<svg width="334" height="276" viewBox="0 0 334 276" fill="none" xmlns="http://www.w3.org/2000/svg">
<g clip-path="url(#clip0_65_3724)">
<path d="M201.793 125.482H252.414V118.127H201.793V125.482Z" fill="#151A4F"/>
<path d="M273.292 239.656C268.443 239.656 264.512 235.665 264.512 230.742C264.512 225.819 268.443 221.828 273.292 221.828C278.14 221.828 282.071 225.819 282.071 230.742C282.071 235.665 278.14 239.656 273.292 239.656Z" fill="url(#paint0_linear_65_3724)"/>
<path d="M252.653 166.922H322.093V153.935H252.653V166.922Z" fill="#67D59B"/>
<path d="M300.011 166.922H274.812C274.812 169.189 276.636 170.956 278.803 170.956H295.944C298.262 170.956 300.011 169.189 300.011 166.922Z" fill="#49A876"/>
<path d="M284.352 182.368H290.547V170.918H284.352V182.368Z" fill="#49A876"/>
<path d="M288.114 181.138H286.746C284.504 181.138 282.679 182.982 282.679 185.249V218.677H292.181V185.249C292.219 182.982 290.395 181.138 288.114 181.138Z" fill="#49A876"/>
<path d="M287.621 218.639H264.284C261.167 218.639 258.887 220.983 258.887 223.864V225.555H260.559V225.209V224.479C260.559 222.174 262.384 220.33 264.664 220.33H287.393L287.621 218.639Z" fill="#49A876"/>
<path d="M287.392 218.639H277.548C274.66 218.639 272.379 220.983 272.379 223.864V225.555H274.052V225.209V224.479C274.052 222.174 275.876 220.33 278.156 220.33H287.392V218.639Z" fill="#49A876"/>
<path d="M287.316 218.639H310.615C313.503 218.639 315.784 220.983 315.784 223.864V225.555H314.111V225.209V224.479C314.111 222.174 312.287 220.33 310.007 220.33H287.278L287.316 218.639Z" fill="#49A876"/>
<path d="M287.544 218.639H297.388C300.049 218.639 302.329 220.983 302.329 223.864V225.555H300.657V225.209V224.479C300.657 222.174 298.832 220.33 296.552 220.33H287.316V218.639H287.544Z" fill="#49A876"/>
<path d="M301.493 239.656C296.644 239.656 292.714 235.665 292.714 230.742C292.714 225.819 296.644 221.828 301.493 221.828C306.342 221.828 310.273 225.819 310.273 230.742C310.273 235.665 306.342 239.656 301.493 239.656Z" fill="url(#paint1_linear_65_3724)"/>
<path d="M259.723 239.656C254.874 239.656 250.944 235.665 250.944 230.742C250.944 225.819 254.874 221.828 259.723 221.828C264.572 221.828 268.503 225.819 268.503 230.742C268.503 235.665 264.572 239.656 259.723 239.656Z" fill="url(#paint2_linear_65_3724)"/>
<path d="M314.986 239.656C310.137 239.656 306.206 235.665 306.206 230.742C306.206 225.819 310.137 221.828 314.986 221.828C319.834 221.828 323.765 225.819 323.765 230.742C323.765 235.665 319.834 239.656 314.986 239.656Z" fill="url(#paint3_linear_65_3724)"/>
<path d="M275.382 166.922H322.093L333.875 103.447C334.749 98.7214 331.709 94.1491 326.996 93.3038C326.502 93.1886 325.932 93.1501 325.438 93.1501H296.286C292.143 93.1501 288.571 96.1087 287.81 100.22L275.382 166.922Z" fill="#67D59B"/>
<path d="M189.49 125.482H240.111V118.127H189.49V125.482Z" fill="#67D59B"/>
<path d="M161.732 73.4167H191.608L206.144 125.482H176.268L161.732 73.4167Z" fill="#67D59B"/>
<path d="M126.916 276.004H132.236V127.888H258.58V122.528H126.916V276.004Z" fill="#D6D7D8"/>
<path d="M142.216 79.4778C142.216 82.1648 140.082 84.3194 137.42 84.3194C137.395 84.3194 137.395 84.3194 137.345 84.3194H90.3142V82.3422H137.496C139.078 82.2662 140.308 80.9227 140.233 79.3764C140.157 77.8555 138.902 76.6388 137.395 76.6388C137.37 76.6388 137.32 76.6388 137.295 76.6388H90.3393V74.6362H137.395H137.42C140.082 74.6362 142.216 76.7909 142.216 79.4778Z" fill="#A2E5C2"/>
<path d="M89.4856 118.134C89.4856 119.655 90.6909 120.923 92.2226 120.999H139.404V122.976H92.323H92.2979C89.6363 122.976 87.502 120.821 87.502 118.134C87.502 115.447 89.6363 113.293 92.2979 113.293H139.429V115.27H92.4737C92.4486 115.27 92.3984 115.27 92.3733 115.27C90.7662 115.245 89.4856 116.537 89.4856 118.134Z" fill="#A2E5C2"/>
<path d="M96.5163 98.8695C96.5163 100.39 97.7216 101.658 99.2533 101.734H146.184V103.66H99.1026C96.441 103.61 94.3067 101.43 94.3318 98.7428C94.382 96.1065 96.4912 94.0026 99.1026 93.9519H146.209V96.0051H99.5044C99.4793 96.0051 99.4291 96.0051 99.404 96.0051C97.7969 96.0051 96.5163 97.2726 96.5163 98.8695Z" fill="#A2E5C2"/>
<path d="M115.022 88.9075C115.022 88.9836 115.022 89.0596 115.022 89.085C115.022 90.6059 116.228 91.8733 117.759 91.9494H117.86H141.363V93.9266H94.2564C91.5948 93.9266 89.4604 91.7466 89.4604 89.0596C89.4604 86.3727 91.5948 84.2434 94.2564 84.2434H141.337V86.2206H117.935C117.91 86.2206 117.86 86.2206 117.835 86.2206C117.759 86.2206 117.734 86.2206 117.659 86.2206C116.328 86.2966 115.273 87.3359 115.047 88.6287C115.022 88.7555 115.022 88.8315 115.022 88.9075Z" fill="#67D59B"/>
<path d="M119.743 59.8579C119.743 59.9593 119.743 60.0354 119.743 60.1621C119.743 61.683 120.948 62.9504 122.48 63.0265H139.429V65.0037H95.1856C92.524 65.0037 90.3896 62.8237 90.3896 60.1367C90.3896 57.4498 92.524 55.3459 95.1856 55.2952H139.379V57.2724H122.656C122.631 57.2724 122.58 57.2724 122.555 57.2724C122.53 57.2724 122.455 57.2724 122.405 57.2724C121.074 57.3484 119.944 58.337 119.743 59.6805C119.743 59.7565 119.743 59.8326 119.743 59.8579Z" fill="#67D59B"/>
<path d="M146.485 108.451C146.485 111.138 144.351 113.293 141.689 113.293C141.689 113.293 141.664 113.293 141.614 113.293H94.5579V111.316H120.245C121.752 111.24 122.982 109.972 122.982 108.451C122.982 108.375 122.982 108.299 122.982 108.274C122.882 106.854 121.752 105.688 120.321 105.587C120.245 105.587 120.22 105.587 120.145 105.587C120.12 105.587 120.069 105.587 120.044 105.587H94.6081V103.61H141.664C141.664 103.61 141.689 103.61 141.739 103.61C144.326 103.61 146.485 105.764 146.485 108.451Z" fill="#67D59B"/>
<path d="M145.229 69.8198C145.229 72.5068 143.095 74.6361 140.433 74.6361H140.358H93.2771V72.6589H140.207C141.789 72.5828 143.02 71.2394 142.944 69.6931C142.869 68.1722 141.614 66.9554 140.107 66.9554C140.082 66.9554 140.032 66.9554 140.007 66.9554H93.3022V64.9782H140.333H140.408C143.07 64.9529 145.229 67.1329 145.229 69.8198Z" fill="#A2E5C2"/>
<path d="M122.932 108.451C122.932 109.972 121.727 111.24 120.195 111.316H96.4409V105.587H120.295C121.701 105.688 122.831 106.804 122.957 108.274C122.932 108.299 122.932 108.375 122.932 108.451Z" fill="url(#paint4_linear_65_3724)"/>
<path d="M142.945 69.82C142.97 68.299 141.764 67.0063 140.258 66.9556C140.233 66.9556 140.182 66.9556 140.157 66.9556H95.4116V72.6843H140.233H140.333C141.84 72.5576 142.945 71.2902 142.945 69.82Z" fill="url(#paint5_linear_65_3724)"/>
<path d="M140.182 79.4777C140.208 77.9061 139.002 76.664 137.446 76.6133C137.42 76.6133 137.37 76.6133 137.345 76.6133H92.1975V82.3421H137.446H137.546C139.078 82.2153 140.233 80.9479 140.182 79.4777Z" fill="url(#paint6_linear_65_3724)"/>
<path d="M139.429 86.2712V92H117.709C116.203 91.924 114.972 90.6566 114.972 89.1356C114.972 89.0596 114.972 88.9835 114.972 88.9582C114.972 88.8822 114.972 88.8061 114.997 88.7301C115.173 87.3866 116.278 86.398 117.609 86.3219H139.379L139.429 86.2712Z" fill="url(#paint7_linear_65_3724)"/>
<path d="M137.772 115.295H92.3483C92.3232 115.295 92.2729 115.295 92.2478 115.295C90.6659 115.371 89.4355 116.664 89.5109 118.261C89.536 119.706 90.691 120.897 92.1223 120.999H92.2227H137.747L137.772 115.295Z" fill="url(#paint8_linear_65_3724)"/>
<path d="M137.621 57.2976V63.0264H122.43C120.923 62.9503 119.693 61.6829 119.693 60.162C119.693 60.0606 119.693 59.9846 119.693 59.8578C119.693 59.8325 119.693 59.7564 119.693 59.7057C119.919 58.3622 121.024 57.3737 122.355 57.2976H137.621Z" fill="url(#paint9_linear_65_3724)"/>
<path d="M143.949 96.0051H99.3287C99.3036 96.0051 99.2534 96.0051 99.2283 96.0051C97.6463 96.0812 96.4662 97.45 96.5415 99.0216C96.6168 100.441 97.7217 101.582 99.1278 101.734H99.2283H143.924V96.0051H143.949Z" fill="url(#paint10_linear_65_3724)"/>
<path d="M250.419 112.004C250.419 112.004 242.18 113.531 237.824 111.956C233.467 110.382 227.217 106.325 225.086 107.852C222.956 109.332 216.516 113.913 216.516 113.913C216.516 113.913 218.315 115.917 222.245 113.436C226.176 110.954 226.744 112.577 228.874 114.152C231.005 115.726 235.219 120.212 239.055 118.876C242.89 117.54 244.973 117.969 248.43 120.307C251.839 122.598 257.048 125.652 257.048 125.652L254.112 113.961L250.419 112.004Z" fill="#FBE4E1"/>
<path d="M229.726 217.181H215.569C215.569 217.181 218.457 168.601 219.783 155.096C221.109 141.543 221.961 136.724 240.333 134.91C261.309 132.858 274.046 132.858 274.046 132.858L252.881 150.849C247.956 155.048 245.778 161.729 247.341 168.028L247.577 169.03C248.477 172.753 248.146 176.713 246.536 180.197L239.196 196.756C239.196 196.756 240.428 210.547 229.726 217.181Z" fill="#A2E5C2"/>
<path d="M305.96 136.724C305.25 139.539 305.439 152.185 291.139 154.953C274.567 158.15 264.576 157.53 259.747 158.818C255.864 159.868 254.727 161.395 255.154 164.163C255.58 166.931 259.51 170.176 260.741 175.473C261.972 180.77 259.652 184.062 264.671 190.6C269.595 196.995 272.578 203.294 268.033 217.181H252.975C252.975 217.181 225.939 164.736 224.566 153.712C223.192 142.736 231.384 140.255 235.219 139.157C236.687 138.728 241.564 137.392 251.46 134.91C253.591 136.342 258.326 139.014 262.682 137.821C268.554 136.199 269.879 133.908 276.65 135.531C280.675 136.485 287.825 137.773 293.554 135.674C297.721 136.389 301.841 136.724 305.96 136.724Z" fill="#A2E5C2"/>
<path d="M282.238 92.8206C282.096 93.4409 281.953 94.109 281.811 94.8248C279.018 110.239 272.862 114.056 264.008 114.82C259.226 115.249 254.585 115.87 251.223 115.536L250.418 112.052C275.419 110.143 280.107 97.4972 282.238 92.8206Z" fill="#E9E9E9"/>
<path d="M247.057 115.631C247.057 115.631 235.125 115.202 230.768 113.627C226.412 112.052 219.689 108.473 217.558 110C215.427 111.479 208.041 117.969 208.041 117.969C208.041 117.969 209.84 119.974 213.77 117.492C217.7 115.011 217.795 114.247 219.925 115.822C222.056 117.397 228.164 121.882 232 120.546C235.882 119.21 237.918 119.64 241.375 121.978C244.831 124.316 249.993 127.37 249.993 127.37L247.057 115.631Z" fill="#FBE4E1"/>
<path d="M294.738 74.6865C292.323 76.0704 290.192 77.7884 288.346 79.8881L288.156 80.0312C287.872 77.3112 287.209 74.5911 286.167 72.0619C288.393 71.9187 290.997 71.012 294.028 68.7214C293.696 70.7257 293.98 72.7777 294.738 74.6865Z" fill="#FBE4E1"/>
<path d="M295.78 63.4246C295.638 64.379 294.454 66.1446 294.075 68.7216C284.226 77.0727 277.503 67.6717 277.503 67.6717C276.082 68.1012 274.33 66.8127 274.898 65.6674C277.171 60.9908 276.84 60.3227 277.361 58.0321C277.503 57.4117 277.597 56.8868 277.692 56.4096C277.692 56.3619 277.739 56.2665 277.739 56.2187C277.834 55.837 277.881 55.5029 277.929 55.2643L278.023 54.7871C278.023 54.7871 283.232 59.9409 289.482 59.2729C295.685 58.6525 296.016 61.7066 295.78 63.4246Z" fill="#FBE4E1"/>
<path opacity="0.71" d="M297.721 137.439C297.673 137.439 297.626 137.439 297.626 137.439C297.626 137.487 297.626 137.535 297.626 137.535C297.673 137.535 297.721 137.535 297.721 137.535C297.768 137.535 297.768 137.487 297.721 137.439ZM291.471 141.305C291.423 141.305 291.423 141.352 291.423 141.4C291.423 141.448 291.471 141.448 291.518 141.448C291.565 141.448 291.565 141.4 291.565 141.352C291.518 141.305 291.471 141.257 291.471 141.305ZM291.187 139.587C291.139 139.587 291.139 139.635 291.139 139.682C291.139 139.73 291.187 139.73 291.234 139.73C291.281 139.73 291.281 139.682 291.281 139.635C291.234 139.587 291.234 139.539 291.187 139.587ZM290.902 137.821C290.855 137.821 290.855 137.869 290.855 137.917C290.855 137.964 290.902 137.964 290.95 137.964C290.997 137.964 290.997 137.917 290.997 137.869C290.997 137.869 290.95 137.821 290.902 137.821ZM284.415 139.587C284.368 139.587 284.368 139.587 284.321 139.587C284.273 139.635 284.321 139.682 284.321 139.682C284.368 139.73 284.415 139.682 284.415 139.682C284.463 139.635 284.463 139.587 284.415 139.587ZM294.596 139.157C294.596 139.11 294.548 139.11 294.501 139.157C294.454 139.157 294.454 139.205 294.501 139.253C294.501 139.3 294.548 139.3 294.596 139.3C294.596 139.253 294.596 139.205 294.596 139.157ZM293.649 137.678C293.649 137.63 293.601 137.63 293.554 137.678C293.554 137.678 293.507 137.678 293.507 137.726V137.773H293.554C293.696 137.773 293.696 137.726 293.649 137.678ZM292.749 136.199C292.749 136.151 292.702 136.151 292.654 136.199C292.607 136.199 292.607 136.246 292.654 136.294C292.654 136.342 292.702 136.342 292.749 136.294C292.796 136.294 292.796 136.246 292.749 136.199ZM288.014 140.255C287.967 140.255 287.919 140.255 287.919 140.303C287.919 140.35 287.919 140.398 287.967 140.398C288.014 140.398 288.061 140.398 288.061 140.35C288.061 140.303 288.061 140.255 288.014 140.255ZM288.393 138.537C288.346 138.537 288.298 138.537 288.298 138.585C288.298 138.632 288.298 138.68 288.346 138.68C288.393 138.68 288.393 138.68 288.44 138.632C288.488 138.585 288.44 138.585 288.393 138.537ZM300.562 143.882C300.514 143.834 300.42 143.786 300.372 143.834C300.325 143.882 300.325 143.977 300.325 144.025C300.372 144.073 300.467 144.073 300.514 144.073C300.609 144.073 300.609 143.977 300.562 143.882ZM298.668 141.209C298.62 141.162 298.526 141.114 298.478 141.162C298.431 141.209 298.384 141.305 298.431 141.352C298.478 141.4 298.573 141.448 298.62 141.4C298.715 141.352 298.715 141.257 298.668 141.209ZM296.774 138.489C296.726 138.442 296.632 138.394 296.584 138.442C296.537 138.489 296.49 138.585 296.537 138.632C296.584 138.68 296.679 138.728 296.726 138.68C296.821 138.632 296.821 138.585 296.774 138.489ZM288.914 149.656C288.819 149.656 288.772 149.704 288.772 149.751C288.772 149.847 288.819 149.894 288.866 149.894C288.961 149.894 289.008 149.847 289.008 149.799C289.056 149.751 289.008 149.656 288.914 149.656ZM289.482 146.363C289.387 146.363 289.34 146.411 289.34 146.459C289.34 146.554 289.387 146.602 289.435 146.602C289.529 146.602 289.577 146.554 289.577 146.506C289.577 146.459 289.529 146.411 289.482 146.363ZM290.003 143.118C289.908 143.118 289.861 143.166 289.861 143.214C289.861 143.309 289.908 143.357 289.955 143.357C290.05 143.357 290.097 143.309 290.097 143.261C290.145 143.214 290.097 143.118 290.003 143.118ZM290.571 139.873C290.476 139.873 290.429 139.921 290.429 139.969C290.429 140.064 290.476 140.112 290.524 140.112C290.618 140.112 290.666 140.064 290.666 140.016C290.666 139.921 290.618 139.873 290.571 139.873ZM291.092 136.58C290.997 136.58 290.95 136.628 290.95 136.676C290.95 136.724 290.997 136.819 291.044 136.819C291.092 136.819 291.187 136.771 291.187 136.724C291.234 136.676 291.187 136.628 291.092 136.58ZM303.308 138.728C303.261 138.68 303.166 138.68 303.119 138.776C303.071 138.871 303.071 138.919 303.166 138.966C303.213 139.014 303.308 138.966 303.355 138.919C303.355 138.871 303.355 138.776 303.308 138.728ZM295.779 147.89C295.685 147.89 295.637 147.986 295.685 148.033C295.685 148.129 295.779 148.177 295.827 148.129C295.922 148.129 295.969 148.033 295.922 147.986C295.922 147.89 295.874 147.842 295.779 147.89ZM295.069 144.645C295.022 144.645 294.975 144.741 294.975 144.788C294.975 144.884 295.069 144.932 295.117 144.884C295.211 144.884 295.259 144.788 295.211 144.741C295.211 144.693 295.117 144.645 295.069 144.645ZM294.312 141.4C294.217 141.4 294.217 141.496 294.217 141.543C294.217 141.639 294.312 141.687 294.359 141.639C294.454 141.639 294.501 141.543 294.454 141.496C294.454 141.448 294.406 141.4 294.312 141.4ZM293.601 138.203C293.507 138.203 293.507 138.298 293.507 138.346C293.507 138.394 293.601 138.442 293.649 138.442C293.696 138.442 293.743 138.346 293.743 138.298C293.743 138.251 293.649 138.203 293.601 138.203ZM283.468 145.886C283.421 145.838 283.326 145.838 283.279 145.934C283.232 145.981 283.279 146.077 283.326 146.125C283.374 146.172 283.468 146.172 283.516 146.077C283.563 146.029 283.563 145.934 283.468 145.886ZM285.22 143.07C285.173 143.023 285.078 143.023 285.031 143.118C284.984 143.166 284.984 143.261 285.078 143.309C285.126 143.357 285.22 143.309 285.268 143.261C285.315 143.214 285.315 143.118 285.22 143.07ZM286.972 140.255C286.925 140.207 286.83 140.207 286.783 140.303C286.736 140.35 286.736 140.446 286.83 140.494C286.878 140.541 286.972 140.493 287.02 140.446C287.067 140.398 287.02 140.303 286.972 140.255ZM288.724 137.487C288.677 137.439 288.582 137.487 288.535 137.535C288.488 137.583 288.488 137.678 288.582 137.726C288.63 137.773 288.724 137.726 288.772 137.678C288.819 137.583 288.772 137.535 288.724 137.487ZM298.905 147.127C298.857 147.127 298.81 147.222 298.81 147.27C298.81 147.318 298.905 147.365 298.952 147.365C298.999 147.365 299.047 147.27 299.047 147.222C298.999 147.127 298.952 147.079 298.905 147.127ZM297.958 144.311C297.91 144.311 297.863 144.407 297.863 144.454C297.863 144.502 297.958 144.55 298.005 144.55C298.052 144.55 298.1 144.454 298.1 144.407C298.1 144.311 298.005 144.263 297.958 144.311ZM297.2 141.591C297.2 141.591 297.2 141.543 297.153 141.543C297.105 141.496 297.058 141.496 297.058 141.543C297.011 141.543 296.963 141.639 296.963 141.687C296.963 141.734 297.058 141.782 297.105 141.782C297.153 141.782 297.153 141.734 297.153 141.734C297.2 141.639 297.2 141.591 297.2 141.591ZM296.111 138.68C296.064 138.68 296.016 138.776 296.016 138.823C296.064 138.871 296.111 138.919 296.158 138.919C296.206 138.919 296.253 138.823 296.253 138.776C296.253 138.728 296.206 138.68 296.111 138.68ZM286.688 146.22C286.641 146.172 286.546 146.22 286.546 146.268C286.499 146.315 286.546 146.411 286.594 146.411C286.641 146.459 286.736 146.411 286.783 146.363C286.783 146.315 286.736 146.22 286.688 146.22ZM288.014 143.548C287.967 143.5 287.872 143.548 287.872 143.595C287.825 143.643 287.872 143.739 287.919 143.739C287.967 143.786 288.061 143.739 288.061 143.691C288.061 143.691 288.061 143.595 288.014 143.548ZM289.293 140.923C289.245 140.875 289.15 140.923 289.15 140.971C289.103 141.018 289.15 141.114 289.198 141.114C289.245 141.162 289.34 141.114 289.34 141.066C289.387 141.018 289.387 140.971 289.293 140.923ZM290.618 138.298C290.571 138.298 290.476 138.298 290.476 138.346C290.429 138.394 290.476 138.489 290.524 138.489C290.571 138.537 290.666 138.489 290.666 138.442C290.713 138.394 290.666 138.298 290.618 138.298ZM301.84 140.589C301.793 140.541 301.746 140.541 301.698 140.589C301.651 140.637 301.651 140.684 301.698 140.732C301.746 140.78 301.793 140.78 301.84 140.78C301.84 140.732 301.888 140.637 301.84 140.589ZM299.899 138.346C299.852 138.298 299.757 138.298 299.71 138.346C299.662 138.394 299.662 138.489 299.71 138.537C299.757 138.585 299.804 138.585 299.852 138.537C299.946 138.489 299.946 138.394 299.899 138.346ZM293.033 146.411C292.986 146.411 292.891 146.459 292.891 146.506C292.891 146.554 292.938 146.649 292.986 146.649C293.033 146.649 293.081 146.602 293.128 146.554C293.175 146.506 293.128 146.411 293.033 146.411ZM293.27 143.5C293.223 143.5 293.128 143.548 293.128 143.595C293.128 143.643 293.175 143.739 293.223 143.739C293.27 143.739 293.365 143.691 293.365 143.643C293.365 143.548 293.317 143.5 293.27 143.5ZM293.459 140.541C293.412 140.541 293.365 140.589 293.317 140.637C293.317 140.684 293.365 140.78 293.412 140.78C293.459 140.78 293.554 140.732 293.554 140.684C293.601 140.589 293.554 140.541 293.459 140.541ZM293.696 137.583C293.649 137.583 293.554 137.63 293.554 137.678V137.726C293.554 137.726 293.601 137.773 293.649 137.773C293.696 137.773 293.791 137.726 293.791 137.678C293.791 137.63 293.743 137.583 293.696 137.583ZM283.09 141.496C283.042 141.448 282.948 141.448 282.9 141.496C282.853 141.543 282.853 141.639 282.9 141.687C282.948 141.734 282.995 141.734 283.09 141.687C283.09 141.591 283.09 141.543 283.09 141.496ZM285.268 139.539C285.22 139.491 285.126 139.491 285.078 139.539C285.031 139.587 285.031 139.635 285.031 139.682C285.078 139.73 285.173 139.73 285.22 139.682C285.315 139.682 285.315 139.587 285.268 139.539ZM300.514 140.064C300.514 140.016 300.467 140.016 300.42 140.016C300.372 140.016 300.372 140.064 300.372 140.112C300.372 140.159 300.42 140.159 300.467 140.159C300.514 140.159 300.514 140.112 300.514 140.064ZM299.662 138.585C299.662 138.537 299.615 138.537 299.567 138.537C299.52 138.537 299.52 138.585 299.52 138.632C299.52 138.68 299.567 138.68 299.615 138.68C299.662 138.632 299.71 138.585 299.662 138.585ZM293.27 140.923C293.223 140.923 293.175 140.923 293.175 140.971C293.175 141.018 293.175 141.066 293.223 141.066C293.27 141.066 293.317 141.066 293.317 141.018C293.317 140.971 293.27 140.923 293.27 140.923ZM293.696 139.253C293.649 139.253 293.649 139.253 293.601 139.3C293.601 139.348 293.601 139.396 293.649 139.396C293.696 139.396 293.743 139.396 293.743 139.348C293.791 139.3 293.743 139.253 293.696 139.253ZM294.17 137.583C294.122 137.583 294.075 137.583 294.075 137.63C294.075 137.678 294.075 137.726 294.122 137.726C294.17 137.726 294.217 137.726 294.217 137.678C294.264 137.63 294.217 137.583 294.17 137.583ZM296.869 140.255C296.821 140.255 296.821 140.303 296.821 140.303C296.821 140.35 296.869 140.35 296.916 140.35C296.963 140.35 296.963 140.303 296.963 140.255C296.963 140.207 296.916 140.255 296.869 140.255ZM296.679 138.537C296.632 138.537 296.632 138.585 296.632 138.632C296.632 138.68 296.679 138.68 296.726 138.68C296.774 138.68 296.774 138.632 296.774 138.585C296.726 138.537 296.726 138.537 296.679 138.537ZM290.571 138.537C290.524 138.489 290.524 138.537 290.476 138.537C290.476 138.585 290.476 138.632 290.476 138.632C290.524 138.632 290.571 138.632 290.571 138.632C290.571 138.585 290.571 138.537 290.571 138.537ZM291.613 137.153C291.565 137.105 291.565 137.153 291.518 137.153C291.518 137.201 291.518 137.201 291.518 137.248C291.565 137.296 291.613 137.248 291.613 137.248C291.66 137.248 291.66 137.201 291.613 137.153ZM301.225 141.973C301.177 141.973 301.177 142.021 301.177 142.068C301.177 142.116 301.225 142.116 301.272 142.116C301.319 142.116 301.319 142.068 301.319 142.021C301.319 142.021 301.272 141.973 301.225 141.973ZM300.609 140.112C300.562 140.112 300.562 140.159 300.562 140.207C300.562 140.255 300.609 140.255 300.657 140.255C300.704 140.255 300.704 140.207 300.704 140.159C300.704 140.112 300.657 140.112 300.609 140.112ZM299.946 138.251C299.899 138.251 299.899 138.298 299.899 138.346C299.899 138.394 299.946 138.394 299.994 138.394C300.041 138.394 300.041 138.346 300.041 138.298C300.041 138.251 299.994 138.203 299.946 138.251ZM293.033 141.496C292.986 141.496 292.938 141.496 292.938 141.543C292.938 141.591 292.938 141.639 292.986 141.639C293.033 141.639 293.081 141.639 293.081 141.591C293.081 141.543 293.033 141.496 293.033 141.496ZM293.885 139.682C293.838 139.682 293.791 139.682 293.791 139.73C293.791 139.778 293.791 139.825 293.838 139.825C293.885 139.825 293.933 139.825 293.933 139.778C293.933 139.778 293.933 139.73 293.885 139.682ZM294.738 137.917C294.69 137.917 294.643 137.917 294.643 137.964C294.643 138.012 294.643 138.06 294.69 138.06C294.738 138.06 294.785 138.06 294.785 138.012C294.785 137.964 294.785 137.917 294.738 137.917ZM304.35 139.014C304.302 138.966 304.255 138.966 304.255 139.014C304.208 139.062 304.208 139.11 304.255 139.11C304.302 139.157 304.35 139.157 304.35 139.11C304.35 139.11 304.35 139.062 304.35 139.014ZM297.153 141.496C297.105 141.496 297.058 141.543 297.058 141.591C297.058 141.639 297.105 141.687 297.105 141.687C297.105 141.687 297.105 141.687 297.153 141.687C297.2 141.687 297.2 141.639 297.2 141.639C297.247 141.543 297.2 141.496 297.153 141.496ZM297.295 139.539C297.247 139.539 297.2 139.587 297.2 139.635C297.2 139.682 297.247 139.73 297.295 139.73C297.342 139.73 297.389 139.682 297.389 139.635C297.342 139.587 297.342 139.539 297.295 139.539ZM297.389 137.535C297.342 137.535 297.295 137.535 297.295 137.583C297.295 137.63 297.342 137.678 297.342 137.678C297.389 137.678 297.437 137.63 297.437 137.583C297.484 137.583 297.437 137.535 297.389 137.535ZM290.382 138.251C290.334 138.203 290.287 138.203 290.287 138.251C290.24 138.298 290.24 138.346 290.287 138.346C290.334 138.394 290.382 138.394 290.382 138.346C290.382 138.298 290.429 138.298 290.382 138.251C290.429 138.251 290.382 138.251 290.382 138.251ZM291.897 136.962C291.849 136.914 291.802 136.914 291.802 136.962C291.755 137.01 291.755 137.058 291.802 137.058C291.802 137.105 291.849 137.105 291.897 137.058C291.897 137.01 291.897 136.962 291.897 136.962ZM298.147 150.229C298.052 150.229 298.005 150.276 298.005 150.372C298.005 150.467 298.052 150.515 298.147 150.515C298.242 150.515 298.289 150.467 298.289 150.372C298.289 150.324 298.242 150.276 298.147 150.229ZM298.431 146.84C298.336 146.84 298.289 146.888 298.289 146.984C298.289 147.079 298.336 147.127 298.431 147.127C298.526 147.127 298.573 147.079 298.573 146.984C298.573 146.936 298.526 146.84 298.431 146.84ZM298.715 143.452C298.62 143.452 298.573 143.5 298.573 143.595C298.573 143.691 298.62 143.739 298.715 143.739C298.81 143.739 298.857 143.691 298.857 143.595C298.857 143.5 298.81 143.452 298.715 143.452ZM298.999 140.064C298.905 140.064 298.857 140.112 298.857 140.207C298.857 140.303 298.905 140.35 298.999 140.35C299.094 140.35 299.141 140.303 299.141 140.207C299.141 140.112 299.047 140.064 298.999 140.064ZM285.599 143.739C285.552 143.691 285.457 143.691 285.41 143.739C285.362 143.786 285.362 143.882 285.362 143.929C285.41 143.977 285.505 143.977 285.552 143.929C285.647 143.882 285.647 143.786 285.599 143.739ZM288.156 141.543C288.109 141.496 288.014 141.496 287.967 141.543C287.919 141.591 287.919 141.687 287.967 141.734C288.014 141.782 288.109 141.782 288.156 141.734C288.203 141.687 288.203 141.591 288.156 141.543ZM290.76 139.3C290.713 139.253 290.618 139.253 290.571 139.3C290.524 139.348 290.524 139.444 290.571 139.491C290.618 139.539 290.713 139.539 290.76 139.491C290.808 139.491 290.808 139.396 290.76 139.3ZM293.317 137.105C293.27 137.058 293.175 137.058 293.128 137.105C293.081 137.153 293.081 137.248 293.128 137.296C293.175 137.344 293.27 137.344 293.317 137.296C293.365 137.248 293.365 137.201 293.317 137.105ZM302.929 141.4C302.835 141.4 302.835 141.496 302.835 141.591C302.835 141.687 302.929 141.687 303.024 141.687C303.119 141.687 303.119 141.591 303.119 141.496C303.119 141.4 302.977 141.352 302.929 141.4ZM301.982 138.155C301.935 138.155 301.935 138.155 301.888 138.155C301.793 138.203 301.793 138.251 301.793 138.346C301.84 138.442 301.888 138.442 301.982 138.442C302.03 138.394 302.077 138.346 302.077 138.251C302.03 138.203 301.982 138.155 301.982 138.155ZM292.181 146.936C292.134 146.888 292.039 146.936 291.991 146.984C291.944 147.031 291.991 147.127 292.039 147.174C292.086 147.222 292.181 147.174 292.228 147.127C292.276 147.031 292.228 146.984 292.181 146.936ZM293.696 143.882C293.649 143.834 293.554 143.882 293.507 143.929C293.459 143.977 293.507 144.073 293.554 144.12C293.601 144.168 293.696 144.12 293.743 144.073C293.838 144.025 293.791 143.929 293.696 143.882C293.743 143.882 293.743 143.882 293.696 143.882ZM295.259 140.875C295.211 140.828 295.117 140.875 295.069 140.923C295.022 140.971 295.069 141.066 295.117 141.114C295.164 141.162 295.259 141.114 295.306 141.066C295.353 140.971 295.353 140.875 295.259 140.875ZM296.821 137.821C296.774 137.773 296.679 137.821 296.632 137.869C296.584 137.917 296.632 138.012 296.679 138.06C296.726 138.107 296.821 138.06 296.869 138.012C296.916 137.964 296.869 137.869 296.821 137.821ZM304.492 139.491C304.397 139.539 304.397 139.587 304.397 139.682C304.445 139.73 304.492 139.778 304.587 139.778C304.681 139.73 304.681 139.682 304.681 139.587C304.634 139.491 304.539 139.444 304.492 139.491ZM293.885 148.463C293.791 148.415 293.743 148.463 293.696 148.558C293.649 148.606 293.696 148.701 293.743 148.749C293.791 148.797 293.885 148.749 293.933 148.701C293.98 148.606 293.98 148.511 293.885 148.463ZM295.306 145.409C295.211 145.361 295.164 145.409 295.117 145.504C295.069 145.6 295.117 145.647 295.211 145.695C295.259 145.743 295.353 145.695 295.401 145.6C295.401 145.504 295.401 145.456 295.306 145.409ZM296.726 142.307C296.679 142.259 296.584 142.307 296.537 142.355C296.49 142.402 296.537 142.498 296.584 142.545C296.632 142.593 296.726 142.545 296.774 142.498C296.821 142.45 296.821 142.355 296.726 142.307ZM298.147 139.253C298.1 139.205 298.005 139.253 297.958 139.3C297.91 139.348 297.958 139.444 298.005 139.491C298.052 139.539 298.147 139.491 298.194 139.444C298.242 139.348 298.194 139.253 298.147 139.253ZM301.225 144.932C301.13 144.932 301.083 144.979 301.083 145.075C301.083 145.17 301.13 145.218 301.225 145.218C301.319 145.218 301.367 145.17 301.367 145.075C301.367 145.027 301.319 144.979 301.225 144.932ZM301.367 141.543C301.272 141.543 301.225 141.591 301.225 141.687C301.225 141.782 301.272 141.83 301.367 141.83C301.461 141.83 301.509 141.782 301.509 141.687C301.509 141.639 301.461 141.543 301.367 141.543ZM301.509 138.155C301.414 138.155 301.367 138.203 301.367 138.298C301.367 138.394 301.414 138.442 301.509 138.442C301.604 138.442 301.651 138.394 301.651 138.298C301.651 138.251 301.556 138.155 301.509 138.155ZM289.435 143.023C289.387 142.975 289.293 142.975 289.245 143.023C289.198 143.07 289.198 143.166 289.245 143.214C289.293 143.261 289.387 143.261 289.435 143.214C289.482 143.214 289.482 143.118 289.435 143.023C289.435 143.07 289.435 143.023 289.435 143.023ZM291.897 140.732C291.849 140.684 291.755 140.684 291.707 140.732C291.66 140.78 291.66 140.875 291.707 140.923C291.755 140.971 291.849 140.971 291.897 140.923C291.944 140.875 291.991 140.78 291.897 140.732ZM294.406 138.442C294.359 138.394 294.264 138.394 294.217 138.442C294.17 138.489 294.17 138.585 294.217 138.632C294.264 138.68 294.359 138.68 294.406 138.632C294.454 138.585 294.454 138.489 294.406 138.442ZM295.259 142.832C295.211 142.784 295.164 142.784 295.117 142.832C295.069 142.88 295.117 142.927 295.117 142.975C295.164 143.023 295.211 143.023 295.259 142.975C295.306 142.927 295.306 142.832 295.259 142.832ZM296.774 140.78C296.726 140.732 296.679 140.732 296.632 140.78C296.584 140.828 296.584 140.875 296.632 140.923C296.679 140.971 296.726 140.971 296.774 140.923C296.821 140.875 296.821 140.78 296.774 140.78ZM298.289 138.728C298.242 138.68 298.194 138.68 298.147 138.728C298.1 138.776 298.147 138.823 298.147 138.871C298.194 138.919 298.242 138.919 298.289 138.871C298.336 138.823 298.336 138.728 298.289 138.728ZM300.514 143.834C300.467 143.834 300.42 143.834 300.372 143.929C300.372 143.977 300.372 144.025 300.467 144.073C300.514 144.073 300.562 144.073 300.609 143.977C300.562 143.929 300.562 143.882 300.514 143.834C300.514 143.882 300.514 143.882 300.514 143.834ZM301.13 141.352C301.083 141.352 301.035 141.352 300.988 141.4C300.988 141.448 300.988 141.496 301.035 141.543C301.083 141.543 301.13 141.543 301.177 141.448C301.225 141.448 301.177 141.4 301.13 141.352ZM301.746 138.871C301.698 138.871 301.651 138.871 301.604 138.966C301.604 139.014 301.604 139.062 301.651 139.11C301.698 139.11 301.746 139.11 301.793 139.062C301.84 138.966 301.793 138.919 301.746 138.871ZM292.702 138.107C292.654 138.06 292.607 138.06 292.56 138.06C292.512 138.107 292.512 138.155 292.512 138.203C292.56 138.251 292.607 138.251 292.654 138.251C292.749 138.203 292.749 138.155 292.702 138.107ZM294.927 136.771C294.88 136.724 294.832 136.724 294.785 136.724C294.738 136.771 294.738 136.819 294.738 136.867C294.785 136.914 294.832 136.914 294.88 136.914C294.927 136.914 294.927 136.867 294.927 136.771ZM302.456 138.585C302.408 138.585 302.408 138.585 302.361 138.632C302.361 138.68 302.361 138.68 302.408 138.728C302.456 138.728 302.456 138.728 302.503 138.68C302.503 138.632 302.503 138.585 302.456 138.585ZM300.42 140.303C300.372 140.255 300.325 140.255 300.278 140.303C300.23 140.35 300.23 140.398 300.278 140.446C300.325 140.493 300.372 140.493 300.42 140.446C300.42 140.446 300.42 140.398 300.42 140.303C300.42 140.35 300.42 140.35 300.42 140.303ZM302.03 138.728C301.982 138.68 301.935 138.68 301.888 138.728C301.84 138.776 301.84 138.823 301.888 138.871C301.935 138.919 301.982 138.919 302.03 138.871C302.077 138.823 302.077 138.728 302.03 138.728Z" fill="white"/>
<path d="M318.603 137.582C318.603 137.582 310.695 141.496 293.081 135.96C288.772 134.576 284.511 132.906 280.438 130.997L286.168 82.7036C286.831 81.7015 287.588 80.7471 288.393 79.8881C288.535 79.6972 288.677 79.5541 288.867 79.4109C288.914 79.3632 288.914 79.3632 288.961 79.3155C289.104 79.1723 289.246 78.9814 289.435 78.8383C289.766 78.5042 290.098 78.2179 290.382 77.8839C290.524 77.7407 290.713 77.5975 290.855 77.4544C291.329 77.0249 291.755 76.6908 292.181 76.3568C292.323 76.2613 292.465 76.1659 292.607 76.0705C293.27 75.5933 293.886 75.2115 294.312 74.9252C294.501 74.8297 294.691 74.7343 294.833 74.6388C294.786 74.5434 294.738 74.448 294.738 74.3525C294.786 74.3048 294.833 74.3048 294.88 74.2571C300.278 77.9793 304.824 82.7514 308.28 88.3824C314.152 97.7834 312.589 101.267 315.762 106.803C318.839 112.338 328.735 124.268 318.603 137.582Z" fill="#E9E9E9"/>
<path d="M301.982 125.557C300.799 131.617 297.247 134.624 293.081 135.96C287.446 137.773 280.627 136.533 276.697 135.626C269.926 134.003 268.601 136.294 262.729 137.916C256.858 139.539 250.939 136.962 250.939 136.962L246.251 115.583C246.251 115.583 254.632 115.297 263.534 114.724C272.436 114.152 278.544 110.143 281.338 94.7292C282.048 90.4344 283.705 86.3781 286.12 82.7513C286.783 81.7492 287.541 80.7948 288.346 79.9358C288.488 79.7449 288.63 79.6018 288.819 79.4586C288.866 79.4109 288.866 79.4109 288.914 79.3632C289.056 79.22 289.198 79.0291 289.387 78.8859C289.719 78.5519 290.05 78.2656 290.334 77.9315C290.476 77.7884 290.666 77.6452 290.808 77.502C291.281 77.0726 291.707 76.7385 292.134 76.4045C292.276 76.309 292.418 76.2136 292.56 76.1181C293.223 75.6409 293.838 75.2592 294.264 74.9728C294.454 74.8774 294.643 74.782 294.785 74.6865C295.069 75.4501 295.448 76.2136 295.874 76.9294C300.088 83.9921 298.857 86.6644 298.857 86.6644L301.888 85.8054C303.545 96.7812 304.018 115.297 301.982 125.557Z" fill="#E9E9E9"/>
<path d="M229.727 217.181H215.569C215.569 217.181 208.182 224.148 200.275 227.584C192.367 231.02 190 235.601 190 235.601H236.261L229.727 217.181Z" fill="#67D59B"/>
<path d="M268.08 217.181H253.023C253.023 217.181 246.536 224.148 238.628 227.584C230.721 231.02 228.354 235.601 228.354 235.601H274.614L268.08 217.181Z" fill="#67D59B"/>
<path d="M276.129 60.2272C277.029 61.7066 279.018 61.4203 279.775 59.8455C279.87 59.6546 279.586 59.5592 279.491 59.75C279.16 60.6567 278.165 61.1339 277.266 60.7999C276.887 60.6567 276.603 60.4181 276.366 60.0364C276.271 59.8455 275.987 60.0364 276.129 60.2272Z" fill="#1C2868"/>
<path d="M319.218 72.73C317.703 70.1054 315.335 68.4352 313.015 66.5741C310.553 64.5221 308.517 62.0406 307.002 59.2251C306.623 57.9366 306.197 56.4096 305.676 54.5007C302.882 44.1453 292.276 43.7159 284.605 45.7201C277.029 47.6767 275.23 52.6396 277.361 58.0321C277.645 56.839 277.834 55.8369 277.929 55.312L278.023 54.8348C278.023 54.8348 283.232 59.9886 289.482 59.3205C292.371 59.0342 293.98 59.5114 294.88 60.2749C295.354 61.2294 295.496 62.2792 295.306 63.3291C295.069 64.8084 294.359 66.1446 293.744 67.4808C292.986 69.1987 292.418 70.9167 292.702 72.8255C293.46 77.5975 299.284 82.2742 295.874 87.1894C295.638 87.5234 296.159 87.8098 296.395 87.4757C300.515 81.5106 292.039 76.0705 293.46 70.01C293.696 69.0555 294.075 68.1489 294.501 67.2899C294.359 67.7671 294.265 68.2443 294.17 68.7215C293.838 70.9167 294.028 73.6367 295.969 76.8817C300.183 83.9444 298.952 86.6168 298.952 86.6168L320.212 80.6517C320.212 80.6517 321.301 75.8319 315.099 70.2008C311.026 66.4786 309.511 65.3333 308.138 62.0406C308.706 62.8996 309.369 63.7108 310.032 64.4744C312.068 66.7172 314.672 68.2443 316.803 70.3917C319.455 73.1118 320.875 76.834 320.686 80.6517C320.686 81.0334 321.254 81.0334 321.254 80.6517C321.207 77.8362 320.591 75.1161 319.218 72.73Z" fill="#3E3E3E"/>
<path d="M104.405 226.577C97.0055 223.297 90.0766 216.868 88.7507 215.617H73.8235L67.0657 235.12H115.055C115.055 235.163 112.574 230.244 104.405 226.577Z" fill="#67D59B"/>
<path d="M42.0016 226.576C34.6022 223.297 28.0582 216.911 26.8606 215.703H11.3774L4.66235 235.163H52.6516C52.6944 235.163 50.2137 230.244 42.0016 226.576Z" fill="#67D59B"/>
<path d="M26.2618 73.9583L24.6365 80.1286C20.4877 91.4768 19.6323 103.774 22.1986 115.554C28.5287 145.111 22.3697 143.083 18.5203 151.411C14.6708 159.738 12.5323 164.83 12.404 173.115C12.2757 181.356 9.06782 178.81 6.15938 189.209C3.5931 198.357 3.63588 212.553 3.72142 215.703H26.8606C32.2926 205.261 47.6475 161.033 49.7432 150.159C51.6252 140.321 52.3951 128.844 52.4378 118.315L52.5234 86.342L26.2618 73.9583Z" fill="#A2E5C2"/>
<path d="M63.0879 215.66C63.1734 215.66 63.259 215.66 63.3445 215.66H88.7506C86.3554 206.9 75.2777 165.866 70.5729 151.325C65.8253 136.783 58.3403 115.295 54.1059 105.241C49.9144 99.33 49.9999 99.2006 47.177 95.7918C42.1728 89.7078 37.0402 88.4133 35.2438 80.8191C29.598 79.8698 22.1559 76.5042 16.5101 73.5701C16.1251 74.5193 8.85401 93.4618 21.942 116.719C35.3722 140.58 34.6878 136.826 39.4354 155.208C44.183 173.633 40.5475 162.069 47.2626 180.752C52.3096 194.862 52.1812 205.865 63.0879 215.66Z" fill="#A2E5C2"/>
<path opacity="0.86" d="M25.3208 90.3118C25.3208 90.355 25.4063 90.3981 25.4491 90.3981C25.4919 90.355 25.5346 90.3118 25.4919 90.2687C25.4919 90.2255 25.4063 90.1824 25.3635 90.1824C25.3208 90.2255 25.3208 90.2687 25.3208 90.3118ZM27.7587 89.2763C27.7587 89.3194 27.8443 89.3626 27.887 89.3626C27.9298 89.3194 27.9726 89.2763 27.9298 89.2331C27.9298 89.19 27.8443 89.1468 27.8015 89.1468C27.8015 89.1468 27.7587 89.2331 27.7587 89.2763ZM30.2395 88.2407C30.2395 88.2838 30.325 88.327 30.3678 88.327C30.4105 88.2838 30.4533 88.2407 30.4105 88.1975C30.4105 88.1544 30.325 88.1112 30.2822 88.1112C30.2395 88.1112 30.1967 88.1544 30.2395 88.2407ZM33.2334 98.5965C33.2762 98.6396 33.3618 98.5965 33.3618 98.5533C33.4045 98.5102 33.3618 98.4239 33.319 98.4239C33.2762 98.3807 33.1907 98.4239 33.1907 98.467C33.1907 98.5102 33.1907 98.5533 33.2334 98.5965ZM34.26 96.0507C34.3027 96.0938 34.3883 96.0507 34.3883 96.0075C34.3883 95.9644 34.3883 95.8781 34.3027 95.8781C34.26 95.8349 34.1744 95.8781 34.1744 95.9212C34.1744 95.9644 34.2172 96.0507 34.26 96.0507ZM35.2865 93.5049C35.3292 93.548 35.4148 93.5049 35.4148 93.4617C35.4575 93.4186 35.4148 93.3323 35.372 93.2891C35.3292 93.2891 35.2437 93.2891 35.2437 93.3754C35.2009 93.4186 35.2437 93.5049 35.2865 93.5049ZM44.354 98.5533C44.354 98.5965 44.4395 98.6396 44.4823 98.6396C44.525 98.5965 44.5678 98.5533 44.525 98.467C44.4823 98.4239 44.4395 98.3807 44.3967 98.4239C44.354 98.4239 44.3112 98.5102 44.354 98.5533ZM29.4268 94.1521C29.4696 94.1953 29.5124 94.1953 29.5551 94.1521C29.5979 94.109 29.5979 94.0658 29.5551 93.9795C29.5124 93.9364 29.4696 93.9364 29.4268 93.9795C29.384 94.0227 29.384 94.109 29.4268 94.1521ZM31.3087 92.2104C31.3515 92.2535 31.3943 92.2535 31.4371 92.2104C31.4371 92.2104 31.4371 92.2104 31.4798 92.2104C31.5226 92.1672 31.5226 92.1672 31.5226 92.1241C31.5226 92.0809 31.5226 92.081 31.4798 92.0378C31.4371 91.9947 31.3943 91.9947 31.3515 92.0378C31.266 92.081 31.266 92.1672 31.3087 92.2104ZM33.1907 90.2687C33.2334 90.3118 33.2762 90.3118 33.319 90.2687C33.3618 90.2255 33.3618 90.1824 33.319 90.1392C33.2762 90.0961 33.2334 90.0961 33.1907 90.1392C33.1479 90.1392 33.1479 90.2255 33.1907 90.2687ZM38.7082 98.2081C38.7082 98.2513 38.7509 98.3376 38.8365 98.3376C38.8792 98.3376 38.9648 98.2944 38.9648 98.2081C38.9648 98.165 38.922 98.0787 38.8365 98.0787C38.7937 98.0787 38.7082 98.1218 38.7082 98.2081ZM18.8195 99.2868C18.9051 99.3731 19.0334 99.3731 19.1189 99.33C19.2045 99.2437 19.2045 99.1142 19.1189 99.0279C19.0334 98.9416 18.9051 98.9416 18.8195 98.9848C18.734 99.0711 18.734 99.2005 18.8195 99.2868ZM22.5834 95.8781C22.669 95.9644 22.7973 95.9644 22.8828 95.9212C22.9684 95.8349 22.9684 95.7055 22.8828 95.6192C22.7973 95.5329 22.669 95.5329 22.5834 95.576C22.5406 95.6192 22.5406 95.7486 22.5834 95.8781ZM26.3901 92.4261C26.4756 92.5124 26.6039 92.5124 26.6894 92.4693C26.775 92.383 26.775 92.2535 26.6894 92.1672C26.6039 92.0809 26.4756 92.0809 26.3901 92.1672C26.3473 92.2104 26.3045 92.3398 26.3901 92.4261ZM30.1967 89.0174C30.2395 89.0605 30.325 89.1037 30.4105 89.0605C30.4533 89.0605 30.4533 89.0605 30.4961 89.0174C30.5389 88.9742 30.5389 88.9311 30.5389 88.8879C30.5389 88.8016 30.5389 88.7585 30.4961 88.6722C30.4105 88.5859 30.2822 88.5859 30.1967 88.629C30.1111 88.8016 30.1111 88.9311 30.1967 89.0174ZM33.875 112.318C33.875 112.447 33.9606 112.534 34.0889 112.534C34.2172 112.534 34.3027 112.447 34.3027 112.361C34.3027 112.232 34.2172 112.145 34.0889 112.145C34.0033 112.145 33.9178 112.232 33.875 112.318ZM34.26 107.14C34.26 107.269 34.3455 107.356 34.431 107.356C34.5594 107.356 34.6449 107.269 34.6449 107.183C34.6449 107.054 34.5594 106.967 34.4738 106.967C34.3455 106.924 34.26 107.011 34.26 107.14ZM34.6021 101.919C34.6021 102.048 34.6877 102.135 34.7732 102.135C34.9015 102.135 34.9871 102.048 34.9871 101.962C34.9871 101.833 34.9015 101.746 34.7732 101.746C34.6877 101.746 34.6021 101.833 34.6021 101.919ZM34.9443 96.741C34.9443 96.8705 35.0298 96.9568 35.1154 96.9568C35.2437 96.9568 35.3292 96.8705 35.3292 96.7842C35.3292 96.6547 35.2437 96.5685 35.1581 96.5685C35.0726 96.5253 34.9443 96.6116 34.9443 96.741ZM16.5099 90.3118C16.5527 90.4413 16.6382 90.4844 16.7665 90.4413C16.8948 90.3981 16.9376 90.2687 16.8948 90.1824C16.8521 90.0529 16.7238 90.0098 16.6382 90.0529C16.5527 90.0529 16.4671 90.1824 16.5099 90.3118ZM21.3003 88.629C21.343 88.7585 21.4286 88.8016 21.5569 88.7585C21.6852 88.7153 21.728 88.5859 21.6852 88.4996C21.6424 88.4133 21.5569 88.327 21.4286 88.3701C21.3003 88.4133 21.2575 88.5427 21.3003 88.629ZM24.337 107.226C24.4226 107.269 24.5509 107.226 24.5937 107.14C24.6364 107.054 24.5937 106.924 24.5081 106.838C24.4226 106.795 24.2943 106.838 24.2515 106.924C24.2087 107.054 24.2515 107.183 24.337 107.226ZM26.6039 102.566C26.6894 102.609 26.8178 102.566 26.8605 102.48C26.9033 102.394 26.8605 102.264 26.775 102.178C26.6895 102.135 26.5611 102.178 26.5184 102.264C26.4328 102.394 26.4756 102.523 26.6039 102.566ZM28.828 97.9061C28.9136 97.9492 29.0419 97.9061 29.1274 97.8198C29.1702 97.7335 29.1274 97.604 29.0419 97.5177C28.9563 97.4746 28.828 97.5177 28.7425 97.604C28.6997 97.7335 28.7425 97.8629 28.828 97.9061ZM31.0949 93.246C31.1804 93.2891 31.3087 93.246 31.3515 93.1597C31.3943 93.0734 31.3515 92.9439 31.266 92.8576C31.1804 92.8145 31.0521 92.8576 30.9666 92.9439C30.9238 93.0734 30.9666 93.2028 31.0949 93.246C31.0521 93.246 31.0521 93.246 31.0949 93.246ZM43.413 108.693C43.4558 108.823 43.5841 108.866 43.6696 108.823C43.7979 108.78 43.8407 108.65 43.7979 108.564C43.7552 108.478 43.6696 108.391 43.5413 108.434C43.413 108.434 43.3702 108.564 43.413 108.693ZM41.8305 103.731C41.8732 103.861 41.9588 103.904 42.0871 103.861C42.2154 103.817 42.2582 103.731 42.2154 103.602C42.1726 103.472 42.0871 103.429 41.9588 103.472C41.8305 103.515 41.7877 103.602 41.8305 103.731ZM40.2052 98.8122C40.2479 98.8985 40.3335 98.9848 40.4618 98.9416C40.5901 98.8985 40.6329 98.7691 40.5901 98.6828C40.5473 98.5533 40.419 98.5102 40.3335 98.5533C40.2479 98.5533 40.1624 98.6828 40.2052 98.8122ZM13.6442 87.766C13.687 87.7229 13.687 87.6797 13.687 87.6366C13.687 87.5934 13.6442 87.5934 13.6442 87.5503C13.6442 87.6366 13.6442 87.7229 13.6442 87.766ZM17.7075 86.6873C17.7503 86.7736 17.8358 86.8599 17.9214 86.8168C18.0069 86.7736 18.0924 86.6873 18.0497 86.601C18.0497 86.5147 17.9641 86.4284 17.8358 86.4716C17.7503 86.4716 17.6647 86.5579 17.7075 86.6873ZM20.0171 104.81C20.1027 104.853 20.231 104.853 20.2738 104.767C20.3165 104.68 20.3165 104.551 20.231 104.508C20.1455 104.465 20.0599 104.465 19.9744 104.551C19.8888 104.637 19.9316 104.767 20.0171 104.81ZM22.3696 100.883C22.4551 100.927 22.5834 100.927 22.6262 100.84C22.669 100.754 22.669 100.624 22.5834 100.581C22.4979 100.538 22.3696 100.538 22.3268 100.668C22.2412 100.711 22.284 100.84 22.3696 100.883ZM24.6792 96.8273C24.6792 96.8705 24.722 96.9136 24.7647 96.9568C24.8503 96.9999 24.9786 96.9999 25.0214 96.9136C25.0641 96.8273 25.0641 96.6979 24.9786 96.6547C24.9358 96.6116 24.8503 96.6116 24.8075 96.6547C24.7647 96.6547 24.7647 96.6979 24.722 96.741C24.6792 96.6979 24.6364 96.7842 24.6792 96.8273ZM27.1172 92.9871C27.2027 93.0302 27.331 93.0302 27.3738 92.9439C27.4166 92.8576 27.4166 92.7282 27.331 92.685C27.2455 92.6419 27.1172 92.6419 27.0744 92.7282C27.0316 92.8145 27.0316 92.9439 27.1172 92.9871ZM29.5124 89.0605C29.5979 89.1037 29.7262 89.1037 29.769 88.9742C29.8117 88.8879 29.8117 88.7585 29.7262 88.7153C29.6407 88.6722 29.5123 88.6722 29.4696 88.7585C29.384 88.8879 29.4268 89.0174 29.5124 89.0605ZM38.5371 107.917C38.5798 108.003 38.6654 108.089 38.7509 108.046C38.8365 108.003 38.922 107.917 38.8792 107.787C38.8365 107.701 38.7509 107.615 38.6654 107.658C38.5798 107.744 38.4943 107.83 38.5371 107.917ZM37.5106 103.429C37.5533 103.515 37.6389 103.559 37.7244 103.559C37.81 103.515 37.8527 103.429 37.8527 103.343C37.81 103.257 37.7244 103.213 37.6389 103.213C37.5533 103.213 37.5106 103.3 37.5106 103.429ZM36.5268 98.8553C36.5268 98.9416 36.6551 99.0279 36.7407 98.9848C36.8262 98.9416 36.9118 98.8553 36.869 98.769C36.869 98.6828 36.7407 98.5965 36.6551 98.6396C36.5696 98.6827 36.4841 98.769 36.5268 98.8553ZM35.5003 94.3678C35.5431 94.4541 35.6286 94.5404 35.7142 94.4973C35.7997 94.4541 35.8853 94.3678 35.8425 94.2816C35.7997 94.1953 35.7142 94.109 35.6286 94.1521C35.5431 94.1521 35.5003 94.2384 35.5003 94.3678ZM18.1352 93.7206C18.178 93.8069 18.3063 93.8069 18.3918 93.7638C18.4774 93.7206 18.4774 93.5912 18.4346 93.5049C18.3918 93.4186 18.2635 93.3754 18.178 93.4617C18.0924 93.5049 18.0497 93.6343 18.1352 93.7206ZM21.7708 91.0022C21.8135 91.0885 21.9418 91.0885 22.0274 91.0454C22.1129 91.0022 22.1129 90.8728 22.0702 90.7865C22.0274 90.7002 21.8991 90.7002 21.8135 90.7433C21.728 90.7865 21.728 90.9159 21.7708 91.0022ZM25.4063 88.2838C25.4491 88.3701 25.5774 88.4133 25.6629 88.327C25.7485 88.2407 25.7485 88.1544 25.7057 88.0681C25.6629 87.9818 25.5346 87.9818 25.4491 88.0249C25.3635 88.1112 25.3635 88.1975 25.4063 88.2838ZM28.9136 105.802C28.9136 105.889 28.9563 106.018 29.0846 106.018C29.1702 106.018 29.2985 105.975 29.2985 105.845C29.2985 105.759 29.2557 105.63 29.1274 105.63C29.0419 105.63 28.9136 105.716 28.9136 105.802ZM29.6407 101.229C29.6407 101.315 29.6834 101.444 29.769 101.444C29.8545 101.444 29.9828 101.401 29.9828 101.315C29.9828 101.229 29.9401 101.099 29.8117 101.099C29.769 101.056 29.6834 101.142 29.6407 101.229ZM30.4105 96.6547C30.4105 96.741 30.4533 96.8705 30.5389 96.8705C30.6244 96.8705 30.7527 96.8273 30.7527 96.6979C30.7527 96.6116 30.7099 96.5253 30.5816 96.4821C30.4961 96.4821 30.4105 96.5253 30.4105 96.6547C30.4105 96.6116 30.4105 96.6547 30.4105 96.6547ZM31.1377 92.0378C31.1377 92.1241 31.1804 92.2535 31.266 92.2535C31.3087 92.2535 31.3943 92.2535 31.4371 92.2104C31.4798 92.1672 31.4798 92.1241 31.4798 92.0809C31.4798 91.9946 31.4371 91.8652 31.3087 91.8652C31.266 91.8652 31.1377 91.9515 31.1377 92.0378ZM45.6799 102.092C45.7226 102.178 45.851 102.178 45.9365 102.135C46.022 102.092 46.0648 101.962 45.9793 101.876C45.9365 101.789 45.8082 101.789 45.7226 101.833C45.6371 101.876 45.6371 102.005 45.6799 102.092ZM43.0708 98.2944C43.1136 98.3807 43.2419 98.3807 43.3274 98.3376C43.413 98.2944 43.413 98.165 43.3702 98.0787C43.3275 97.9924 43.1991 97.9924 43.1136 98.0355C43.0281 98.0787 43.0281 98.2081 43.0708 98.2944ZM20.2738 93.2891C20.3165 93.3323 20.4021 93.3323 20.4449 93.2891C20.4876 93.246 20.4876 93.1597 20.4449 93.1165C20.4021 93.0734 20.3165 93.0734 20.2738 93.1165C20.231 93.2028 20.231 93.246 20.2738 93.2891ZM22.1129 91.3043C22.1557 91.3474 22.2412 91.3474 22.284 91.3043C22.3268 91.2611 22.3268 91.1748 22.284 91.1317C22.2412 91.0885 22.1557 91.0885 22.1129 91.1317C22.0274 91.1748 22.0702 91.2611 22.1129 91.3043ZM23.9093 89.2763C23.9521 89.3194 23.9949 89.3194 24.0376 89.2763C24.0804 89.2331 24.0804 89.1468 24.0376 89.1037C23.9949 89.0605 23.9521 89.0605 23.9093 89.1037C23.8665 89.19 23.8665 89.2331 23.9093 89.2763ZM25.7057 87.2914C25.7485 87.3346 25.7913 87.3346 25.834 87.2914C25.8768 87.2483 25.8768 87.162 25.834 87.1188C25.7913 87.0757 25.7057 87.0757 25.6629 87.1188C25.6629 87.162 25.6629 87.2483 25.7057 87.2914ZM30.6672 97.2588C30.6672 97.302 30.7099 97.3451 30.7955 97.3451C30.8383 97.3451 30.881 97.302 30.881 97.2157C30.881 97.1725 30.8383 97.1294 30.7527 97.1294C30.7099 97.1725 30.6672 97.2157 30.6672 97.2588ZM30.5816 94.5404C30.5816 94.5836 30.6244 94.6699 30.7099 94.6267C30.7527 94.6267 30.8383 94.5836 30.7955 94.4973C30.7955 94.4541 30.7527 94.411 30.7099 94.3678C30.6244 94.411 30.5816 94.4541 30.5816 94.5404ZM30.4961 91.7789C30.4961 91.8221 30.5389 91.9084 30.6244 91.9084C30.6672 91.9084 30.7527 91.8652 30.7527 91.7789C30.7527 91.7358 30.7099 91.6926 30.6672 91.6495C30.5389 91.6926 30.4961 91.7358 30.4961 91.7789ZM30.4105 89.0605C30.4105 89.1468 30.4533 89.1468 30.5389 89.19C30.5816 89.19 30.6672 89.1468 30.6244 89.0605C30.6244 89.0174 30.5816 88.9742 30.5389 88.9742C30.5389 88.9742 30.5389 88.9742 30.4961 88.9742C30.4533 88.9311 30.4105 88.9742 30.4105 89.0605ZM18.1352 87.7229C18.178 87.766 18.2207 87.8092 18.2635 87.766C18.3063 87.7229 18.3491 87.6797 18.3063 87.5934C18.3063 87.5503 18.2207 87.5071 18.178 87.5503C18.1352 87.5934 18.1352 87.6366 18.1352 87.7229ZM20.5732 86.5579C20.6159 86.601 20.6587 86.6442 20.7015 86.601C20.7443 86.5579 20.787 86.5147 20.7443 86.4716C20.7443 86.4284 20.6587 86.3853 20.6159 86.4284C20.5732 86.4716 20.5304 86.5147 20.5732 86.5579ZM25.5346 95.0151C25.5774 95.0151 25.6629 95.0151 25.6629 94.9288C25.7057 94.8856 25.6629 94.7993 25.6202 94.7993C25.5774 94.7562 25.4919 94.7993 25.4919 94.8425C25.4491 94.9288 25.4919 94.9719 25.5346 95.0151ZM26.4756 92.4261C26.5184 92.4261 26.6039 92.4261 26.6039 92.3398C26.6039 92.2967 26.6039 92.2104 26.5184 92.2104C26.4756 92.1672 26.3901 92.2104 26.3901 92.2535C26.3901 92.3398 26.4328 92.4261 26.4756 92.4261ZM27.4166 89.8372C27.4593 89.8803 27.5449 89.8372 27.5449 89.794C27.5449 89.7509 27.5449 89.6646 27.4593 89.6646C27.4166 89.6646 27.331 89.6646 27.331 89.7509C27.331 89.7509 27.331 89.8372 27.4166 89.8372ZM35.5859 94.6699C35.6286 94.713 35.6714 94.7562 35.7142 94.713C35.7569 94.6699 35.7997 94.6267 35.7569 94.5836C35.7569 94.5404 35.6714 94.4973 35.6286 94.5404C35.5859 94.5404 35.5859 94.5836 35.5859 94.6699ZM34.5166 92.1672C34.5594 92.2104 34.6021 92.2535 34.6449 92.2104C34.6877 92.1672 34.7304 92.1241 34.6877 92.0809C34.6877 92.0378 34.6021 91.9947 34.5594 92.0378C34.5166 92.0378 34.4738 92.1241 34.5166 92.1672ZM14.0292 84.4436C14.0292 84.5299 14.1147 84.573 14.1575 84.5299C14.243 84.5299 14.2858 84.4436 14.243 84.3573C14.243 84.271 14.1575 84.2278 14.0719 84.271C14.0719 84.3141 14.0292 84.4004 14.0292 84.4436ZM18.3918 96.0075C18.4346 96.0507 18.5201 96.0507 18.5629 95.9644C18.6057 95.9212 18.6057 95.8349 18.5201 95.7918C18.4774 95.7486 18.3918 95.7486 18.3491 95.8349C18.3491 95.9212 18.3491 95.9644 18.3918 96.0075ZM20.0171 93.3754C20.0599 93.4186 20.1455 93.3754 20.1882 93.3323C20.231 93.2891 20.1882 93.2028 20.1455 93.1597C20.1027 93.1165 20.0171 93.1165 19.9744 93.2028C19.9316 93.246 19.9744 93.3323 20.0171 93.3754ZM21.6424 90.7433C21.6852 90.7865 21.7708 90.7865 21.8135 90.7002C21.8563 90.657 21.8135 90.5707 21.7708 90.5276C21.728 90.4844 21.6424 90.5276 21.5997 90.5707C21.5569 90.6139 21.5997 90.7002 21.6424 90.7433ZM23.2678 88.1112C23.3105 88.1544 23.3961 88.1112 23.4388 88.0681C23.4816 88.0249 23.4388 87.9386 23.3961 87.8955C23.3533 87.8523 23.3105 87.8523 23.2678 87.8955C23.2678 87.8955 23.2678 87.8955 23.225 87.8955L23.1822 87.9386C23.225 87.9818 23.225 88.0681 23.2678 88.1112ZM30.8383 98.2513C30.8383 98.2944 30.9238 98.3807 30.9666 98.3376C31.0521 98.3376 31.0949 98.2513 31.0521 98.165C31.0521 98.0787 30.9666 98.0355 30.9238 98.0787C30.881 98.1218 30.8383 98.2081 30.8383 98.2513ZM30.1967 95.1877C30.1967 95.274 30.2822 95.3171 30.3678 95.274C30.4533 95.274 30.4961 95.1877 30.4533 95.1014C30.4533 95.0151 30.3678 94.9719 30.325 95.0151C30.2395 95.0582 30.1967 95.1445 30.1967 95.1877ZM29.5551 92.1241C29.5551 92.1672 29.5979 92.2535 29.6834 92.2104C29.769 92.2104 29.8117 92.1241 29.769 92.0378C29.769 91.9515 29.6834 91.9083 29.6407 91.9515C29.5979 91.9946 29.5551 92.0809 29.5551 92.1241ZM28.9136 89.0605C28.9136 89.1037 28.9563 89.19 29.0419 89.1468C29.1274 89.1468 29.1702 89.0605 29.1274 88.9742C29.1274 88.8879 29.0419 88.8448 28.9991 88.8879C28.9563 88.9311 28.9136 89.0174 28.9136 89.0605ZM14.9701 90.2687C15.0129 90.3118 15.0985 90.355 15.1412 90.3118C15.184 90.2687 15.2268 90.1824 15.184 90.1392C15.1412 90.0529 15.0557 90.0529 15.0129 90.0961C14.9274 90.1392 14.9274 90.1824 14.9701 90.2687ZM17.4509 88.4564C17.4936 88.4996 17.5792 88.5427 17.622 88.4996C17.6647 88.4564 17.7075 88.3701 17.6647 88.327C17.622 88.2838 17.5364 88.2407 17.4936 88.2838C17.4081 88.327 17.4081 88.4133 17.4509 88.4564ZM19.9316 86.6873C19.9744 86.7305 20.0171 86.7736 20.1027 86.7305C20.1455 86.6873 20.1882 86.601 20.1455 86.5579C20.1027 86.5147 20.0171 86.4716 19.9744 86.5147C19.8888 86.5579 19.8888 86.601 19.9316 86.6873ZM24.6792 96.8273C24.6792 96.8273 24.722 96.8273 24.722 96.8705C24.8075 96.8705 24.8503 96.8273 24.8503 96.7842C24.8503 96.6979 24.8075 96.6547 24.7647 96.6547C24.6792 96.6547 24.6364 96.6979 24.6364 96.741C24.5937 96.741 24.6364 96.7842 24.6792 96.8273ZM25.1497 93.6343C25.1497 93.7206 25.1925 93.7638 25.2352 93.7638C25.3208 93.7638 25.3635 93.7206 25.4063 93.6775C25.4063 93.5912 25.3635 93.548 25.3208 93.5049C25.2352 93.5049 25.1497 93.548 25.1497 93.6343ZM25.6629 90.5276C25.6629 90.6139 25.7057 90.657 25.7485 90.657C25.834 90.657 25.8768 90.6139 25.8768 90.5707C25.8768 90.4844 25.834 90.4413 25.7913 90.4413C25.7485 90.4413 25.7057 90.4844 25.6629 90.5276ZM26.219 87.464C26.219 87.5503 26.2617 87.5934 26.3045 87.5934C26.3473 87.5934 26.4328 87.5503 26.4328 87.5072C26.4328 87.4209 26.3901 87.3777 26.3473 87.3777C26.3045 87.3346 26.219 87.3777 26.219 87.464ZM35.928 94.3247C35.9708 94.3678 36.0563 94.411 36.0991 94.3678C36.1419 94.3247 36.1847 94.2384 36.1419 94.1953C36.0991 94.1521 36.0563 94.109 35.9708 94.1521C35.928 94.1953 35.8853 94.2815 35.928 94.3247ZM34.2172 91.7358C34.26 91.7789 34.3027 91.8221 34.3883 91.7789C34.431 91.7358 34.4738 91.6495 34.431 91.6063C34.3883 91.5632 34.3027 91.52 34.26 91.5632C34.1744 91.6063 34.1744 91.6926 34.2172 91.7358ZM32.5063 89.19C32.5491 89.2331 32.6346 89.2763 32.6774 89.2331C32.7202 89.19 32.763 89.1037 32.7202 89.0605C32.6774 89.0174 32.5919 88.9742 32.5491 89.0174C32.4636 89.0605 32.4636 89.1468 32.5063 89.19ZM13.9009 88.6722C13.9864 88.7585 14.1147 88.8016 14.2003 88.7153C14.2858 88.629 14.3286 88.4996 14.243 88.4133C14.1575 88.327 14.0292 88.2838 13.9436 88.3701C13.8581 88.4133 13.8581 88.5427 13.9009 88.6722ZM18.0924 85.4791C18.178 85.5654 18.3063 85.6086 18.3918 85.5223C18.4774 85.436 18.5201 85.3065 18.4346 85.2203C18.3491 85.134 18.2207 85.0908 18.1352 85.1771C18.0497 85.2634 18.0069 85.3928 18.0924 85.4791ZM19.8888 109.772C19.8888 109.902 19.9744 109.988 20.0599 110.031C20.1882 110.031 20.2738 109.988 20.3165 109.858C20.3165 109.729 20.231 109.643 20.1455 109.599C20.0171 109.556 19.9316 109.643 19.8888 109.772ZM20.7015 104.465C20.7015 104.594 20.7443 104.68 20.8726 104.724C21.0009 104.724 21.0864 104.68 21.1292 104.551C21.172 104.422 21.0864 104.335 20.9581 104.292C20.8726 104.249 20.7443 104.335 20.7015 104.465ZM21.5141 99.1574C21.5141 99.2868 21.5997 99.3731 21.6852 99.4163C21.8135 99.4163 21.8991 99.3731 21.9418 99.2437C21.9418 99.1142 21.8991 99.0279 21.7708 98.9848C21.6424 98.9416 21.5141 99.0279 21.5141 99.1574ZM22.3268 93.8501C22.3268 93.9795 22.3696 94.0658 22.4979 94.109C22.6262 94.109 22.7117 94.0227 22.7545 93.9364C22.7545 93.8069 22.7117 93.7206 22.5834 93.6775C22.4551 93.6343 22.3268 93.7206 22.3268 93.8501ZM23.1394 88.5427C23.1394 88.6722 23.225 88.7585 23.3105 88.8016C23.4388 88.8016 23.5244 88.7585 23.5672 88.629C23.6099 88.4996 23.5244 88.4133 23.3961 88.3701C23.2678 88.327 23.1394 88.4133 23.1394 88.5427ZM41.1461 104.637C41.2317 104.724 41.36 104.767 41.4455 104.68C41.5311 104.594 41.5738 104.465 41.4883 104.378C41.4455 104.292 41.3172 104.249 41.1889 104.335C41.0606 104.378 41.0606 104.508 41.1461 104.637ZM38.0666 100.279C38.1521 100.366 38.2804 100.409 38.366 100.322C38.4515 100.236 38.4943 100.107 38.4088 100.02C38.366 99.9341 38.2377 99.8909 38.1094 99.9772C38.0238 100.064 38.0238 100.193 38.0666 100.279ZM35.0298 95.9644C35.1154 96.0507 35.2437 96.0938 35.3292 96.0075C35.4148 95.9212 35.4575 95.7918 35.372 95.7055C35.2865 95.6192 35.1581 95.576 35.0726 95.6623C34.9871 95.7055 34.9443 95.8349 35.0298 95.9644ZM31.9931 91.6063C32.0786 91.6926 32.2069 91.7358 32.2925 91.6495C32.378 91.5632 32.4208 91.4337 32.3352 91.3474C32.2497 91.2611 32.1214 91.218 32.0359 91.3043C31.9503 91.3474 31.9075 91.52 31.9931 91.6063ZM14.1147 83.1922C14.1575 83.3217 14.243 83.3648 14.3713 83.3648C14.4997 83.3217 14.5424 83.2354 14.5424 83.1059C14.4997 82.9765 14.4141 82.9333 14.2858 82.9333C14.1575 82.9333 14.0719 83.0628 14.1147 83.1922ZM16.0394 94.6267C16.125 94.6699 16.296 94.6699 16.3388 94.5404C16.3816 94.4541 16.3816 94.2815 16.2533 94.2384C16.1677 94.1952 15.9966 94.1952 15.9539 94.3247C15.9111 94.4541 15.9539 94.5836 16.0394 94.6267ZM18.734 90.0529C18.8195 90.1392 18.9479 90.0961 19.0334 90.0098C19.0762 89.9235 19.0762 89.7509 18.9479 89.7077C18.8623 89.6646 18.734 89.6646 18.6485 89.7509C18.6057 89.8372 18.6485 89.9666 18.734 90.0529ZM30.0684 107.011C30.1111 107.14 30.1967 107.183 30.325 107.183C30.4533 107.14 30.4961 107.011 30.4961 106.924C30.4533 106.795 30.3678 106.752 30.2395 106.752C30.1111 106.795 30.0684 106.924 30.0684 107.011ZM28.8708 101.789C28.9136 101.919 28.9991 101.962 29.1274 101.962C29.2557 101.919 29.2985 101.833 29.2985 101.703C29.2985 101.574 29.1702 101.531 29.0419 101.531C28.9136 101.574 28.828 101.66 28.8708 101.789ZM27.6732 96.5685C27.716 96.6979 27.8015 96.741 27.9298 96.741C28.0581 96.6979 28.1009 96.5684 28.1009 96.4821C28.0581 96.3527 27.9726 96.3096 27.8443 96.3096C27.716 96.3527 27.6304 96.4822 27.6732 96.5685ZM26.4328 91.3474C26.4756 91.4769 26.5611 91.52 26.6894 91.52C26.8178 91.4769 26.8605 91.3906 26.8605 91.2611C26.8178 91.1317 26.7322 91.0885 26.6039 91.0885C26.4756 91.1317 26.4328 91.2611 26.4328 91.3474ZM14.3713 91.1317C14.4569 91.1748 14.5852 91.1748 14.6707 91.0885C14.7135 91.0022 14.7135 90.8296 14.628 90.7865C14.5424 90.7002 14.4141 90.7433 14.3286 90.8296C14.243 90.9159 14.2858 91.0454 14.3713 91.1317ZM17.237 86.6873C17.3226 86.7305 17.4509 86.7305 17.5364 86.601C17.5792 86.5147 17.5792 86.3853 17.4936 86.299C17.4081 86.2127 17.2798 86.2558 17.1942 86.3421C17.1087 86.4716 17.1515 86.601 17.237 86.6873ZM26.9461 108.736C26.9461 108.866 27.0744 108.952 27.2027 108.909C27.331 108.866 27.3738 108.78 27.3738 108.65C27.3738 108.521 27.2455 108.434 27.1172 108.478C26.9888 108.521 26.9033 108.65 26.9461 108.736ZM25.9623 103.515C26.0051 103.645 26.0907 103.731 26.219 103.688C26.3473 103.645 26.4328 103.559 26.3901 103.429C26.3473 103.3 26.2617 103.257 26.1334 103.257C26.0051 103.257 25.9196 103.386 25.9623 103.515ZM24.9358 98.2513C24.9786 98.3807 25.0641 98.467 25.1925 98.4239C25.3208 98.3807 25.3635 98.2944 25.3635 98.165C25.3635 98.0355 25.2352 97.9492 25.1069 97.9924C25.0214 98.0355 24.9358 98.1218 24.9358 98.2513ZM23.9521 92.9871C23.9521 93.1165 24.0804 93.1597 24.1659 93.1597C24.2943 93.1165 24.337 93.0302 24.337 92.9008C24.337 92.7713 24.2087 92.7282 24.0804 92.7282C23.9949 92.7713 23.9521 92.9008 23.9521 92.9871ZM22.9684 87.766C22.9684 87.8955 23.0967 87.9386 23.225 87.9386C23.2678 87.9386 23.2678 87.9386 23.2678 87.8955C23.2678 87.8955 23.2678 87.8955 23.3105 87.8955C23.3961 87.8092 23.4388 87.6797 23.3533 87.5934C23.3105 87.5503 23.225 87.5072 23.1394 87.5072C23.0111 87.5072 22.9256 87.6366 22.9684 87.766ZM17.237 100.538C17.1942 100.668 17.2798 100.754 17.4081 100.797C17.5364 100.84 17.622 100.754 17.6647 100.624C17.7075 100.495 17.622 100.409 17.4936 100.366C17.3653 100.322 17.237 100.409 17.237 100.538ZM18.2635 95.274C18.2207 95.4034 18.3063 95.4897 18.4346 95.5329C18.5629 95.5329 18.6485 95.4897 18.6912 95.3603C18.6912 95.2308 18.6485 95.1445 18.5201 95.1014C18.3918 95.0582 18.2635 95.1445 18.2635 95.274ZM19.2473 90.0098C19.2045 90.1392 19.29 90.2255 19.4183 90.2687C19.5467 90.3118 19.6322 90.2255 19.675 90.0961C19.7177 89.9666 19.6322 89.8803 19.5039 89.8372C19.4183 89.8372 19.29 89.9235 19.2473 90.0098ZM35.6286 102.135C35.7142 102.221 35.8425 102.264 35.928 102.178C36.0136 102.092 36.0563 101.962 35.9708 101.876C35.928 101.789 35.7997 101.746 35.6714 101.789C35.5859 101.876 35.5859 102.048 35.6286 102.135ZM32.763 97.6903C32.8485 97.7766 32.9768 97.8198 33.0624 97.7335C33.1479 97.6472 33.1907 97.5177 33.1051 97.4314C33.0624 97.3451 32.934 97.302 32.8057 97.3451C32.763 97.4314 32.7202 97.5609 32.763 97.6903ZM29.9401 93.246C30.0256 93.3323 30.1539 93.3754 30.2395 93.2891C30.325 93.2028 30.3678 93.0734 30.2822 92.9871C30.2395 92.9008 30.1111 92.8576 29.9828 92.9008C29.8973 92.9871 29.8545 93.1165 29.9401 93.246ZM27.0744 88.7585C27.1599 88.8448 27.2882 88.8879 27.3738 88.8016C27.4593 88.7153 27.5021 88.5859 27.4166 88.4996C27.331 88.4133 27.2027 88.3701 27.1172 88.4133C27.0316 88.5427 26.9888 88.6722 27.0744 88.7585ZM15.0985 88.5859C15.184 88.629 15.2695 88.5859 15.3123 88.4996C15.3551 88.4133 15.3123 88.327 15.2268 88.2838C15.1412 88.2407 15.0557 88.2838 15.0129 88.3701C15.0129 88.4564 15.0557 88.5427 15.0985 88.5859ZM16.5527 84.8319C16.6382 84.8751 16.7238 84.8319 16.7665 84.7456C16.8093 84.6593 16.7665 84.573 16.681 84.5299C16.5954 84.4867 16.5099 84.5299 16.4671 84.6162C16.4244 84.7025 16.4671 84.7888 16.5527 84.8319ZM27.0744 99.5026C27.1172 99.5889 27.2027 99.632 27.2882 99.5889C27.3738 99.5457 27.4166 99.4594 27.3738 99.3731C27.331 99.2868 27.2455 99.2437 27.1599 99.2868C27.0744 99.33 27.0316 99.4163 27.0744 99.5026ZM25.5346 95.7918C25.5774 95.8781 25.6629 95.9212 25.7485 95.8781C25.834 95.8349 25.8768 95.7486 25.834 95.6623C25.7913 95.576 25.7057 95.5329 25.6202 95.576C25.5346 95.6192 25.4919 95.7486 25.5346 95.7918ZM23.9949 92.0809C24.0376 92.1672 24.1232 92.2104 24.2087 92.1672C24.2943 92.1241 24.337 92.0378 24.2943 91.9515C24.2515 91.8652 24.1659 91.8221 24.0804 91.8652C23.9949 91.9083 23.9521 92.0378 23.9949 92.0809ZM22.4551 88.4133C22.4979 88.4996 22.5834 88.5427 22.669 88.4996C22.7545 88.4564 22.7973 88.3701 22.7545 88.2838C22.7117 88.1975 22.6262 88.1544 22.5406 88.1975C22.4979 88.1975 22.4551 88.2838 22.4551 88.4133C22.4551 88.3701 22.4551 88.3701 22.4551 88.4133ZM13.4731 84.6593C13.5159 84.6162 13.5159 84.5299 13.4731 84.4867C13.4731 84.573 13.4731 84.6162 13.4731 84.6593ZM18.8195 99.1142C18.8195 99.2005 18.9051 99.2868 18.9906 99.2868C19.0762 99.2868 19.1617 99.2005 19.1617 99.1142C19.1617 99.0279 19.0762 98.9416 18.9906 98.9416C18.9051 98.9416 18.8195 99.0279 18.8195 99.1142ZM18.7768 95.0582C18.7768 95.1445 18.8623 95.2308 18.9479 95.2308C19.0334 95.2308 19.1189 95.1445 19.1189 95.0582C19.1189 94.9719 19.0334 94.8856 18.9479 94.8856C18.8623 94.8856 18.7768 94.9719 18.7768 95.0582ZM18.734 91.0454C18.734 91.1317 18.8195 91.218 18.9051 91.218C18.9906 91.218 19.0762 91.1317 19.0762 91.0454C19.0762 90.9591 18.9906 90.8728 18.9051 90.8728C18.7768 90.8728 18.734 90.9591 18.734 91.0454ZM18.6912 86.9894C18.6912 87.0757 18.7768 87.162 18.8623 87.162C18.9479 87.162 19.0334 87.0757 19.0334 86.9894C19.0334 86.9031 18.9479 86.8168 18.8623 86.8168C18.734 86.8599 18.6912 86.9031 18.6912 86.9894ZM32.5919 93.246C32.6346 93.2891 32.763 93.3323 32.8057 93.246C32.8913 93.2028 32.8913 93.0734 32.8057 93.0302C32.763 92.9871 32.6346 92.9871 32.5919 93.0302C32.5063 93.1165 32.5063 93.2028 32.5919 93.246ZM29.8117 90.4413C29.8973 90.4844 29.9828 90.4844 30.0256 90.4413C30.0684 90.355 30.0684 90.2687 30.0256 90.2255C29.9401 90.1824 29.8545 90.1824 29.8117 90.2255C29.7262 90.2687 29.7262 90.3981 29.8117 90.4413ZM27.0316 87.6366C27.0744 87.6797 27.2027 87.7229 27.2455 87.6366C27.2882 87.5503 27.2882 87.464 27.2455 87.4208C27.2027 87.3777 27.0744 87.3345 27.0316 87.4208C26.9461 87.464 26.9461 87.5503 27.0316 87.6366ZM17.8358 90.2255C17.8358 90.2687 17.8786 90.3118 17.9214 90.3118C17.9641 90.3118 18.0069 90.2687 18.0069 90.1824C18.0069 90.1392 17.9641 90.0961 17.8786 90.0961C17.8786 90.1392 17.8358 90.1824 17.8358 90.2255ZM17.4936 88.0681C17.4936 88.1112 17.5364 88.1544 17.5792 88.1544C17.622 88.1544 17.6647 88.1112 17.6647 88.0681C17.6647 88.0249 17.622 87.9818 17.5792 87.9818C17.4936 87.9386 17.4509 87.9818 17.4936 88.0681ZM17.1087 85.8675C17.1087 85.9106 17.1515 85.9538 17.1942 85.9538C17.237 85.9538 17.2798 85.9106 17.2798 85.8243C17.2798 85.7812 17.237 85.738 17.1942 85.738C17.1515 85.7812 17.1087 85.8243 17.1087 85.8675ZM13.9009 86.7305C13.9009 86.7736 13.9009 86.8168 13.9864 86.8168C14.0292 86.8168 14.0719 86.7736 14.1147 86.7305C14.1147 86.6873 14.1147 86.6442 14.0292 86.6442C13.9864 86.6442 13.9436 86.6873 13.9009 86.7305ZM14.3713 84.573C14.3713 84.6162 14.3713 84.6593 14.4569 84.6593C14.4997 84.6593 14.5424 84.6593 14.5852 84.6162C14.5852 84.573 14.5852 84.5299 14.4997 84.5299C14.4569 84.5299 14.3713 84.5299 14.3713 84.573ZM21.4714 87.5934C21.5141 87.6366 21.5569 87.6366 21.5997 87.6366C21.6424 87.5934 21.6424 87.5503 21.6424 87.5072C21.5997 87.464 21.5569 87.464 21.5141 87.464C21.4714 87.464 21.4714 87.5503 21.4714 87.5934ZM20.3165 85.738C20.3593 85.7812 20.4021 85.7812 20.4449 85.7812C20.4876 85.738 20.4876 85.6949 20.4876 85.6517C20.4449 85.6086 20.4021 85.6086 20.3593 85.6086C20.3165 85.6086 20.3165 85.6949 20.3165 85.738ZM20.3165 93.7638C20.3593 93.8501 20.4449 93.8501 20.5304 93.8069C20.6159 93.7638 20.6159 93.6775 20.5732 93.6343C20.5304 93.548 20.4449 93.548 20.4021 93.5912C20.3165 93.5912 20.2738 93.7206 20.3165 93.7638ZM18.4774 90.7002C18.5201 90.7865 18.6057 90.7865 18.6485 90.7433C18.734 90.7002 18.734 90.6139 18.6912 90.5276C18.6485 90.4413 18.5629 90.4413 18.4774 90.4844C18.4346 90.5276 18.3918 90.6139 18.4774 90.7002ZM16.5954 87.5934C16.6382 87.6797 16.7238 87.6797 16.8093 87.6366C16.8948 87.5934 16.8948 87.5071 16.8521 87.4208C16.8093 87.3345 16.7238 87.3346 16.6382 87.3777C16.5527 87.4209 16.5527 87.5072 16.5954 87.5934ZM14.7135 84.5299C14.7563 84.6162 14.8418 84.6162 14.9274 84.573C15.0129 84.5299 15.0129 84.4436 14.9701 84.3573C14.9274 84.271 14.8418 84.271 14.7991 84.3141C14.7135 84.3573 14.6707 84.4436 14.7135 84.5299ZM24.2943 87.3777C24.337 87.4209 24.4653 87.4208 24.5081 87.3346C24.5509 87.2483 24.5509 87.162 24.4653 87.1188C24.4226 87.0757 24.337 87.0757 24.2515 87.162C24.2087 87.2051 24.2515 87.2914 24.2943 87.3777Z" fill="white"/>
<path d="M64.1999 35.1674L33.4902 88.0681C22.2414 87.3777 0.385263 76.3747 0.385263 76.3747C-2.00993 63.128 6.92926 58.1659 13.7299 53.8078C20.5305 49.4498 20.7871 44.0993 32.8486 37.1091C40.5047 32.7942 48.6312 29.3855 57.0999 27.0554C59.9656 35.9873 64.1999 35.1674 64.1999 35.1674Z" fill="#E9E9E9"/>
<path d="M73.3958 93.5048C73.3958 93.5048 79.7687 97.9923 84.9868 99.6751C90.1621 101.401 90.5898 100.97 92.5145 98.6827C94.3109 96.5252 95.8935 94.2383 97.2622 91.7788C97.861 90.6569 99.6146 90.6138 99.2296 93.5479C98.8447 96.4821 94.9953 98.1649 96.5778 99.6319C98.1603 101.142 103.721 101.444 107.869 101.185C112.018 100.97 114.285 100.97 110.692 106.277C107.1 111.584 102.737 114.691 91.0603 109.729C79.3838 104.724 71.1717 105.63 67.0657 106.018L73.3958 93.5048Z" fill="#FBE4E1"/>
<path d="M63.986 35.2106C63.986 35.2106 59.1528 51.0031 59.2811 61.7041C59.4095 72.405 61.3769 74.2173 69.7173 77.3672C78.0577 80.4739 79.9824 80.6033 79.9824 80.6033L71.2143 114.432C71.2143 114.432 62.104 115.986 55.6028 108.478C49.1016 100.97 46.5781 99.028 42.0016 97.2589C37.425 95.4898 28.3148 88.8448 31.5226 72.8365C34.6877 56.8282 41.2745 42.6754 57.0998 27.0554" fill="#E9E9E9"/>
<path d="M69.8457 24.9412C69.8457 24.9412 64.8415 30.3348 64.1572 35.1675C64.1572 35.1675 59.9228 35.9873 57.0571 27.0555C59.1529 25.2432 61.0349 23.1289 62.5746 20.842L69.8457 24.9412Z" fill="#FBE4E1"/>
<path d="M83.3186 21.0577C83.8318 23.6466 84.4306 25.3726 80.1535 25.1137C80.1535 25.1137 71.7703 34.9085 62.4034 23.5603C62.4034 23.5603 62.2324 23.3014 61.933 22.8268C62.5318 23.3014 63.2161 23.6466 63.9432 23.8192C63.9432 23.8192 65.9535 21.0577 64.0288 19.3317C62.0613 17.5626 60.7781 15.06 63.045 13.4203C65.3119 11.7807 65.6541 14.8874 68.1776 14.499C70.7011 14.1538 73.6095 11.0471 73.6095 11.0471C75.577 12.5573 77.7583 13.7224 80.1535 14.4127C81.3083 14.8874 82.5059 15.1463 83.7463 15.2326L83.7891 15.3189C83.7463 15.2757 82.8053 18.5119 83.3186 21.0577Z" fill="#FBE4E1"/>
<path d="M95.423 6.77537C94.1399 10.6588 90.932 13.6361 86.9115 14.5422C90.0766 13.5929 93.1989 10.9608 95.5941 5.17886L55.9879 0.000976562C55.9879 0.000976562 53.6355 6.17128 55.3036 12.6005C56.9717 19.0297 61.8048 23.474 63.9434 23.7761C63.9434 23.7761 65.9536 21.0145 64.0289 19.2886C62.1042 17.5626 60.7783 15.0168 63.0452 13.3772C65.3121 11.7375 65.6542 14.8442 68.1777 14.4559C70.7012 14.1107 73.6097 11.004 73.6097 11.004C75.5771 12.5142 77.7585 13.6792 80.1537 14.3696C86.2272 16.8291 93.4127 13.8087 95.8507 6.86167C95.9362 6.60277 95.5085 6.47333 95.423 6.77537Z" fill="#3E3E3E"/>
<path d="M86.9971 21.1008C87.9808 19.6769 88.0236 17.7352 87.1254 16.7428C86.2272 15.7935 84.6874 16.1819 83.7037 17.6058C83.5754 17.7784 83.4898 17.951 83.4043 18.1236C82.7627 17.7352 81.9501 17.6921 81.2657 18.0373C81.2657 17.951 81.3085 17.8215 81.3085 17.7352C81.3941 16.8722 81.0947 16.0524 80.5814 15.4052C79.5121 14.2833 77.7585 14.7579 76.6037 16.4408C76.0477 17.2174 75.7482 18.1667 75.7055 19.1591C75.6627 19.8495 75.8338 20.4968 76.1332 21.1008C76.2187 21.2303 76.3043 21.3597 76.4326 21.4892C76.9458 22.0501 77.7157 22.2227 78.4001 22.007C79.2127 21.7481 79.9398 21.1871 80.4103 20.4536C80.7953 19.8927 81.0519 19.2454 81.1802 18.5982C81.8218 18.3825 82.6344 18.1667 83.2332 18.5982C83.2332 18.6414 83.1904 18.6845 83.1904 18.7277C83.1904 18.7708 83.1904 18.814 83.1477 18.8571C83.0621 19.4612 83.0621 20.1084 83.1477 20.7125C83.1904 20.9714 83.276 21.2303 83.3615 21.4892C83.4043 21.5323 83.4043 21.6186 83.4043 21.6618C83.4471 21.7481 83.4471 21.8344 83.4898 21.9207C83.4898 21.9638 83.5326 21.9638 83.5326 22.007C84.4736 22.9563 86.0133 22.5679 86.9971 21.1008ZM80.0681 20.1516C79.6404 20.7988 79.0416 21.3166 78.3145 21.5323C77.7157 21.7049 77.0742 21.5323 76.6892 21.1008C76.2187 20.5831 76.0049 19.8495 76.0904 19.1591C76.1332 18.2962 76.3898 17.4763 76.9031 16.7859C77.8868 15.3189 79.4266 14.8874 80.3248 15.8367C80.4103 15.923 80.4959 16.0524 80.5814 16.1387C80.8808 16.6134 81.0091 17.2174 80.9663 17.7784C80.838 18.5982 80.5386 19.418 80.0681 20.1516ZM83.832 21.6186C83.1049 20.842 83.1477 19.2023 84.0031 17.951C84.8585 16.7428 86.1417 16.3545 86.8688 17.1311C87.5959 17.9078 87.5531 19.5475 86.6977 20.7988C85.8423 22.0501 84.5591 22.3953 83.832 21.6186Z" fill="#67D59B"/>
</g>
<defs>
<linearGradient id="paint0_linear_65_3724" x1="270.711" y1="227.03" x2="254.709" y2="249.384" gradientUnits="userSpaceOnUse">
<stop offset="0.0898" stop-color="#EEEEEE"/>
<stop offset="0.8178" stop-color="#D6D7D8"/>
</linearGradient>
<linearGradient id="paint1_linear_65_3724" x1="298.293" y1="228.139" x2="270.553" y2="250.125" gradientUnits="userSpaceOnUse">
<stop offset="0.0898" stop-color="#EEEEEE"/>
<stop offset="0.8178" stop-color="#D6D7D8"/>
</linearGradient>
<linearGradient id="paint2_linear_65_3724" x1="255.458" y1="226.161" x2="234.074" y2="248.624" gradientUnits="userSpaceOnUse">
<stop offset="0.0898" stop-color="#EEEEEE"/>
<stop offset="0.8178" stop-color="#D6D7D8"/>
</linearGradient>
<linearGradient id="paint3_linear_65_3724" x1="311.599" y1="225.933" x2="294.587" y2="249.481" gradientUnits="userSpaceOnUse">
<stop offset="0.0898" stop-color="#EEEEEE"/>
<stop offset="0.8178" stop-color="#D6D7D8"/>
</linearGradient>
<linearGradient id="paint4_linear_65_3724" x1="103.795" y1="108.448" x2="133.038" y2="108.448" gradientUnits="userSpaceOnUse">
<stop offset="0.0898" stop-color="white"/>
<stop offset="0.8178" stop-color="#E7E8E9"/>
</linearGradient>
<linearGradient id="paint5_linear_65_3724" x1="94.0466" y1="70.2003" x2="148.907" y2="69.3343" gradientUnits="userSpaceOnUse">
<stop offset="0.0898" stop-color="white"/>
<stop offset="0.8178" stop-color="#E7E8E9"/>
</linearGradient>
<linearGradient id="paint6_linear_65_3724" x1="92.2047" y1="79.4739" x2="145.161" y2="79.4739" gradientUnits="userSpaceOnUse">
<stop offset="0.0898" stop-color="white"/>
<stop offset="0.8178" stop-color="#E7E8E9"/>
</linearGradient>
<linearGradient id="paint7_linear_65_3724" x1="141.048" y1="89.7679" x2="102.84" y2="87.863" gradientUnits="userSpaceOnUse">
<stop offset="0.0898" stop-color="white"/>
<stop offset="0.8178" stop-color="#E7E8E9"/>
</linearGradient>
<linearGradient id="paint8_linear_65_3724" x1="146.516" y1="118.211" x2="63.0866" y2="118.037" gradientUnits="userSpaceOnUse">
<stop offset="0.0898" stop-color="white"/>
<stop offset="0.8178" stop-color="#E7E8E9"/>
</linearGradient>
<linearGradient id="paint9_linear_65_3724" x1="143.582" y1="62.3687" x2="118.511" y2="58.3841" gradientUnits="userSpaceOnUse">
<stop offset="0.0898" stop-color="white"/>
<stop offset="0.8178" stop-color="#E7E8E9"/>
</linearGradient>
<linearGradient id="paint10_linear_65_3724" x1="141.903" y1="99.1827" x2="73.8969" y2="98.1435" gradientUnits="userSpaceOnUse">
<stop offset="0.0898" stop-color="white"/>
<stop offset="0.8178" stop-color="#E7E8E9"/>
</linearGradient>
<clipPath id="clip0_65_3724">
<rect width="334" height="276" fill="white"/>
</clipPath>
</defs>
</svg>
