<svg width="316" height="237" viewBox="0 0 316 237" fill="none" xmlns="http://www.w3.org/2000/svg">
<g clip-path="url(#clip0_99_1044)">
<path d="M119.293 233.362H191.214V153.163H119.293V233.362Z" fill="#CFF2DF"/>
<path d="M74.7411 236.97H235.767V230.785H74.7411V236.97Z" fill="#CFF2DF"/>
<path d="M0.0415344 205.014H316.022V0.0825195H0.0415344V205.014Z" fill="#CFF2DF"/>
<path d="M5.59772 173.883H310.466V5.03052H5.59772V173.883Z" fill="white"/>
<path d="M109.948 84.3238L109.994 80.3195C109.994 79.1089 110.46 77.9448 111.346 77.1067C112.185 76.2686 113.35 75.7564 114.562 75.7564H119.828C122.998 75.7564 125.188 76.4083 126.4 77.6654C127.612 78.9692 128.218 80.8316 128.218 83.2994V84.2772H129.709C132.319 84.2307 134.883 84.5566 137.353 85.3016V84.51C137.4 81.7629 136.887 78.9692 135.908 76.4083C134.929 73.9871 133.112 71.9383 130.828 70.6812C128.404 69.2843 125.002 68.5393 120.621 68.5393H105.473C104.262 68.5393 103.096 69.0049 102.257 69.8896C101.418 70.7277 100.906 71.8918 100.906 73.1024V109.7C100.906 110.305 100.999 110.911 101.232 111.469C101.465 112.028 101.791 112.54 102.211 112.959C102.63 113.378 103.143 113.704 103.702 113.937C104.262 114.17 104.867 114.31 105.427 114.31C106.639 114.31 107.804 113.844 108.643 112.959C109.482 112.121 109.994 110.957 109.994 109.747V84.3238H109.948Z" fill="#67D59B"/>
<path d="M130.641 112.307C132.925 111.097 134.743 109.095 135.815 106.72C136.654 104.718 137.166 102.529 137.26 100.388C137.26 100.341 137.26 100.294 137.26 100.248V99.0838C137.26 96.616 136.654 94.707 135.442 93.4498C134.23 92.1461 132.039 91.5408 128.87 91.5408H128.171V99.8288C128.171 102.39 127.565 104.252 126.4 105.416C125.235 106.627 122.998 107.232 119.782 107.232H119.083V112.82C119.083 113.239 119.222 113.611 119.502 113.89C119.782 114.17 120.155 114.356 120.574 114.356C124.862 114.356 128.218 113.658 130.641 112.307Z" fill="#67D59B"/>
<path d="M135.629 72.0314C136.561 72.0314 137.306 71.2864 137.306 70.3552C137.306 69.4239 136.561 68.679 135.629 68.679C134.696 68.679 133.951 69.4239 133.951 70.3552C133.951 71.2399 134.696 72.0314 135.629 72.0314Z" fill="#67D59B"/>
<path d="M150.123 90.2838C148.958 90.2838 147.84 89.9578 146.861 89.3525C145.882 88.7472 145.09 87.9091 144.531 86.8848C143.925 85.8138 143.645 84.6032 143.645 83.3926C143.645 82.182 143.925 81.018 144.484 79.9936C145.043 78.9692 145.882 78.0846 146.908 77.4327C147.886 76.8274 149.052 76.5015 150.217 76.5015C150.962 76.5015 151.708 76.6411 152.361 76.9205C152.687 77.0602 153.013 77.2465 153.339 77.4327C153.433 77.4793 153.479 77.5258 153.572 77.5258C153.666 77.5258 153.759 77.5258 153.852 77.4793C153.945 77.4327 153.992 77.3861 154.039 77.293C154.085 77.1999 154.132 77.1533 154.132 77.0602V71.24C154.132 71.1468 154.178 71.0072 154.272 70.914C154.365 70.8209 154.458 70.7744 154.551 70.7744L156.788 70.4019C156.835 70.4019 156.928 70.4019 156.975 70.4019C157.021 70.4019 157.115 70.4484 157.161 70.495C157.208 70.5415 157.254 70.5881 157.301 70.6347C157.348 70.6812 157.348 70.7744 157.348 70.8209V89.4922C157.348 89.5388 157.348 89.6319 157.301 89.6785C157.254 89.725 157.254 89.7716 157.208 89.8182C157.161 89.8647 157.115 89.9113 157.068 89.9113C157.021 89.9113 156.928 89.9578 156.882 89.9578H154.738C154.691 89.9578 154.598 89.9579 154.551 89.9113C154.505 89.9113 154.458 89.8647 154.411 89.8182C154.365 89.7716 154.318 89.725 154.318 89.6785C154.272 89.6319 154.272 89.5388 154.272 89.4922C154.272 89.3991 154.225 89.306 154.178 89.2594C154.132 89.1663 154.039 89.1197 153.992 89.0732C153.899 89.0266 153.805 89.0266 153.712 89.0266C153.619 89.0266 153.526 89.0732 153.479 89.1197C153.153 89.3525 152.827 89.5388 152.5 89.6785C151.708 90.1441 150.916 90.3303 150.123 90.2838ZM150.916 87.816C151.522 87.816 152.128 87.7229 152.734 87.4435C153.2 87.2573 153.666 86.9779 153.992 86.6054C154.085 86.5123 154.132 86.4191 154.132 86.2795V80.5523C154.132 80.4127 154.085 80.3195 153.992 80.2264C153.619 79.8539 153.2 79.5745 152.734 79.3883C152.174 79.1555 151.568 79.0158 150.916 79.0158C150.17 79.0158 149.424 79.2021 148.818 79.5745C148.213 79.947 147.7 80.4592 147.374 81.1111C147.001 81.8095 146.861 82.6011 146.861 83.4392C146.861 84.2307 147.047 85.0223 147.374 85.7207C147.7 86.3726 148.213 86.8848 148.818 87.3038C149.424 87.6298 150.17 87.816 150.916 87.816Z" fill="#67D59B"/>
<path d="M171.749 90.3769C170.025 90.3769 168.673 90.0044 167.788 89.2129C166.902 88.4213 166.436 87.3039 166.436 85.8139V79.5746C166.436 79.4349 166.39 79.3418 166.296 79.2486C166.203 79.1555 166.063 79.109 165.97 79.109H161.822C161.682 79.109 161.589 79.0624 161.496 78.9693C161.403 78.8762 161.356 78.783 161.356 78.6433V77.1534C161.356 77.1068 161.356 77.0137 161.403 76.9671C161.449 76.9206 161.449 76.874 161.496 76.8274C161.542 76.7809 161.589 76.7343 161.636 76.7343C161.682 76.7343 161.775 76.6877 161.822 76.6877H169.233C169.372 76.6877 169.466 76.7343 169.559 76.8274C169.652 76.9205 169.699 77.0137 169.699 77.1534V85.4879C169.699 86.2795 169.885 86.8848 170.305 87.2107C170.864 87.6298 171.516 87.816 172.169 87.7229C172.635 87.7229 173.101 87.6764 173.567 87.5832C173.847 87.5367 174.126 87.4435 174.453 87.3504C174.546 87.3039 174.592 87.3039 174.686 87.3039C174.779 87.3039 174.826 87.3504 174.919 87.397C174.965 87.4435 175.012 87.4901 175.059 87.5832C175.105 87.6298 175.105 87.7229 175.105 87.816V89.3991C175.105 89.4923 175.059 89.5854 175.012 89.6785C174.965 89.7716 174.872 89.8182 174.779 89.8648C174.359 90.0044 173.94 90.0976 173.52 90.1907C172.915 90.3304 172.355 90.3769 171.749 90.3769ZM168.067 74.0803C167.462 74.0803 166.856 73.8475 166.436 73.4284C166.203 73.2422 166.063 73.0093 165.923 72.73C165.83 72.4506 165.737 72.1712 165.737 71.8919C165.737 71.6125 165.784 71.3331 165.923 71.0538C166.063 70.7744 166.203 70.5416 166.436 70.3553C166.902 69.9363 167.462 69.7035 168.067 69.75C168.673 69.75 169.233 69.9828 169.699 70.3553C169.932 70.5416 170.072 70.7744 170.211 71.0538C170.305 71.3331 170.398 71.6125 170.398 71.8919C170.398 72.1712 170.351 72.4506 170.211 72.73C170.118 73.0093 169.932 73.2422 169.699 73.4284C169.279 73.894 168.673 74.0803 168.067 74.0803Z" fill="#67D59B"/>
<path d="M179.067 89.6319V77.1533C179.067 77.0137 179.113 76.9205 179.207 76.8274C179.3 76.7343 179.44 76.6877 179.533 76.6877H181.77C181.91 76.6877 182.003 76.7343 182.096 76.8274C182.19 76.9205 182.236 77.0137 182.236 77.1533V77.4327C182.236 77.5258 182.283 77.619 182.329 77.7121C182.376 77.8052 182.469 77.8518 182.562 77.8983C182.656 77.9449 182.749 77.9449 182.842 77.9449C182.935 77.9449 183.029 77.8983 183.075 77.8052C184.054 76.9205 185.359 76.4549 186.664 76.5015C187.549 76.5015 188.482 76.6877 189.274 77.1068C190.02 77.4793 190.626 78.0846 191.045 78.783C191.465 79.528 191.698 80.4127 191.698 81.2974V89.6319C191.698 89.7716 191.651 89.8647 191.558 89.9579C191.465 90.051 191.325 90.0976 191.231 90.0976H188.948C188.808 90.0976 188.715 90.051 188.621 89.9579C188.528 89.8647 188.482 89.7716 188.482 89.6319V82.1355C188.482 81.7164 188.435 81.2973 188.295 80.8783C188.155 80.4592 187.922 80.0867 187.643 79.8074C187.363 79.528 186.99 79.2952 186.571 79.1555C186.198 79.0158 185.778 78.9227 185.312 78.9693C184.706 78.9693 184.147 79.1089 183.634 79.3417C183.168 79.5746 182.749 79.9005 182.423 80.3196C182.376 80.4127 182.329 80.5058 182.329 80.5989V89.6785C182.329 89.7251 182.329 89.8182 182.283 89.8647C182.236 89.9113 182.236 89.9579 182.19 90.0044C182.143 90.051 182.096 90.0976 182.05 90.0976C182.003 90.0976 181.91 90.1441 181.863 90.1441H179.626C179.486 90.1441 179.393 90.0976 179.3 90.0044C179.114 89.9113 179.067 89.7716 179.067 89.6319Z" fill="#67D59B"/>
<path d="M149.984 113.099C148.819 113.099 147.7 112.82 146.721 112.214C145.743 111.609 144.95 110.771 144.391 109.747C143.785 108.676 143.505 107.465 143.505 106.254C143.505 105.044 143.785 103.88 144.344 102.809C144.904 101.738 145.743 100.9 146.768 100.248C147.747 99.6426 148.912 99.3166 150.077 99.3166C150.823 99.3166 151.569 99.4563 152.221 99.7357C152.547 99.8754 152.874 100.062 153.2 100.248C153.293 100.294 153.34 100.341 153.433 100.341C153.526 100.341 153.619 100.341 153.712 100.294C153.806 100.248 153.852 100.201 153.899 100.108C153.946 100.015 153.992 99.9685 153.992 99.8754V94.0552C153.992 93.962 154.039 93.8223 154.132 93.7292C154.225 93.6361 154.318 93.5895 154.412 93.5895L156.649 93.217C156.695 93.217 156.789 93.217 156.835 93.217C156.882 93.217 156.975 93.2636 157.022 93.3102C157.068 93.3567 157.115 93.4033 157.161 93.4499C157.208 93.4964 157.208 93.5895 157.208 93.6361V112.307C157.208 112.447 157.161 112.54 157.068 112.633C156.975 112.726 156.835 112.773 156.742 112.773H154.551C154.505 112.773 154.412 112.773 154.365 112.726C154.318 112.726 154.272 112.68 154.225 112.633C154.179 112.587 154.132 112.54 154.132 112.494C154.132 112.447 154.085 112.354 154.085 112.307C154.085 112.214 154.039 112.121 153.992 112.075C153.946 112.028 153.852 111.935 153.806 111.888C153.712 111.842 153.619 111.842 153.526 111.842C153.433 111.842 153.34 111.888 153.293 111.935C152.967 112.168 152.64 112.354 152.314 112.494C151.522 112.959 150.73 113.099 149.984 113.099ZM150.73 110.585C151.335 110.585 151.941 110.491 152.547 110.259C153.013 110.072 153.479 109.793 153.806 109.421C153.899 109.327 153.945 109.234 153.945 109.095V103.368C153.945 103.228 153.899 103.135 153.806 103.042C153.433 102.669 153.013 102.39 152.501 102.157C151.941 101.924 151.335 101.784 150.73 101.784C149.984 101.784 149.238 101.971 148.586 102.343C147.98 102.716 147.467 103.228 147.141 103.88C146.768 104.578 146.628 105.37 146.628 106.208C146.628 106.999 146.815 107.744 147.141 108.443C147.467 109.095 147.98 109.653 148.586 110.026C149.238 110.445 149.984 110.631 150.73 110.585Z" fill="#67D59B"/>
<path d="M167.974 113.192C166.716 113.192 165.411 112.913 164.292 112.261C163.22 111.656 162.334 110.817 161.729 109.793C161.123 108.722 160.796 107.512 160.796 106.254C160.796 104.997 161.123 103.787 161.729 102.716C162.334 101.691 163.267 100.807 164.292 100.248C165.411 99.6426 166.669 99.3167 167.974 99.3167C169.232 99.3167 170.491 99.6426 171.656 100.248C172.728 100.853 173.614 101.691 174.219 102.716C174.825 103.787 175.152 104.997 175.152 106.254C175.152 107.512 174.825 108.722 174.219 109.793C173.614 110.817 172.728 111.702 171.656 112.261C170.537 112.866 169.279 113.192 167.974 113.192ZM167.974 110.585C168.72 110.585 169.419 110.398 170.071 110.026C170.677 109.653 171.19 109.141 171.516 108.489C171.889 107.791 172.075 107.046 172.029 106.254C172.029 105.463 171.842 104.718 171.516 104.019C171.19 103.368 170.677 102.855 170.071 102.483C169.419 102.11 168.72 101.924 167.974 101.924C167.228 101.924 166.529 102.11 165.877 102.483C165.271 102.855 164.805 103.414 164.432 104.019C164.059 104.718 163.873 105.463 163.919 106.208C163.919 106.999 164.106 107.744 164.432 108.443C164.758 109.095 165.271 109.607 165.877 109.979C166.529 110.352 167.275 110.585 167.974 110.585Z" fill="#67D59B"/>
<path d="M178.88 112.447V99.9685C178.88 99.922 178.88 99.8288 178.927 99.7823C178.974 99.7357 178.974 99.6892 179.02 99.6426C179.067 99.596 179.113 99.5495 179.16 99.5495C179.207 99.5495 179.3 99.5029 179.346 99.5029H181.584C181.63 99.5029 181.723 99.5029 181.77 99.5495C181.817 99.5495 181.863 99.596 181.91 99.6426C181.956 99.6892 182.003 99.7357 182.003 99.7823C182.05 99.8288 182.05 99.922 182.05 99.9685V100.248C182.05 100.341 182.096 100.434 182.143 100.527C182.19 100.62 182.283 100.667 182.376 100.714C182.469 100.76 182.562 100.76 182.656 100.76C182.749 100.76 182.842 100.714 182.889 100.62C183.867 99.7357 185.172 99.2701 186.477 99.3167C187.363 99.3167 188.295 99.5029 189.087 99.922C189.833 100.294 190.439 100.9 190.859 101.598C191.278 102.343 191.511 103.228 191.511 104.113V112.447C191.511 112.494 191.511 112.587 191.464 112.633C191.418 112.68 191.418 112.726 191.371 112.773C191.325 112.82 191.278 112.866 191.231 112.866C191.185 112.866 191.092 112.913 191.045 112.913H188.761C188.621 112.913 188.528 112.866 188.435 112.773C188.342 112.68 188.295 112.587 188.295 112.447V104.951C188.295 104.532 188.249 104.113 188.109 103.693C187.969 103.274 187.736 102.902 187.456 102.623C187.177 102.343 186.804 102.11 186.384 101.971C186.011 101.831 185.592 101.738 185.126 101.784C184.52 101.784 183.961 101.924 183.448 102.157C182.982 102.39 182.562 102.716 182.236 103.135C182.19 103.228 182.143 103.321 182.143 103.414V112.494C182.143 112.54 182.143 112.633 182.096 112.68C182.05 112.726 182.05 112.773 182.003 112.82C181.956 112.866 181.91 112.913 181.863 112.913C181.817 112.913 181.723 112.959 181.677 112.959H179.44C179.3 112.959 179.207 112.913 179.113 112.82C178.974 112.68 178.927 112.587 178.88 112.447Z" fill="#67D59B"/>
<path d="M202.744 113.192C201.439 113.192 200.134 112.913 198.968 112.261C197.896 111.656 196.964 110.818 196.312 109.747C195.659 108.676 195.333 107.465 195.333 106.208C195.333 104.951 195.613 103.74 196.265 102.669C196.871 101.645 197.757 100.807 198.829 100.201C199.947 99.5962 201.206 99.2702 202.464 99.2702C203.769 99.2237 205.027 99.5496 206.193 100.201C207.265 100.76 208.104 101.645 208.756 102.669C209.409 103.74 209.688 104.997 209.688 106.208V106.487C209.688 106.627 209.642 106.72 209.548 106.813C209.455 106.906 209.315 106.953 209.222 106.953H199.201C199.108 106.953 199.062 106.953 198.968 107C198.922 107.046 198.829 107.093 198.782 107.139C198.735 107.186 198.689 107.279 198.689 107.325C198.689 107.419 198.689 107.465 198.689 107.558C198.829 108.07 199.015 108.536 199.341 108.909C199.761 109.467 200.273 109.933 200.926 110.212C201.578 110.538 202.324 110.678 203.023 110.678C203.722 110.678 204.422 110.538 205.121 110.305C205.587 110.119 206.006 109.84 206.379 109.514C206.472 109.421 206.612 109.374 206.705 109.374C206.845 109.374 206.938 109.421 207.032 109.514L208.43 110.678C208.476 110.724 208.523 110.771 208.57 110.818C208.616 110.864 208.616 110.957 208.616 111.004C208.616 111.05 208.616 111.144 208.57 111.19C208.523 111.237 208.476 111.283 208.43 111.33C207.731 111.889 206.985 112.354 206.146 112.634C204.934 113.006 203.862 113.192 202.744 113.192ZM199.155 105.044H205.866C205.96 105.044 206.006 105.044 206.099 104.997C206.146 104.951 206.239 104.904 206.286 104.858C206.332 104.811 206.379 104.718 206.379 104.671C206.379 104.578 206.379 104.532 206.379 104.439C206.239 103.926 205.96 103.461 205.633 103.088C205.307 102.716 204.888 102.39 204.422 102.157C203.816 101.878 203.163 101.738 202.511 101.738C201.905 101.738 201.252 101.878 200.693 102.111C200.134 102.39 199.668 102.762 199.341 103.275C199.062 103.647 198.875 104.02 198.735 104.439C198.735 104.532 198.689 104.578 198.735 104.671C198.735 104.765 198.782 104.811 198.829 104.858C198.875 104.904 198.922 104.951 199.015 104.997C198.968 105.044 199.062 105.044 199.155 105.044Z" fill="#67D59B"/>
<path d="M109.948 84.3238L109.994 80.3195C109.994 79.1089 110.46 77.9448 111.346 77.1067C112.185 76.2686 113.35 75.7564 114.562 75.7564H119.828C122.998 75.7564 125.188 76.4083 126.4 77.6654C127.612 78.9692 128.218 80.8316 128.218 83.2994V84.2772H129.709C132.319 84.2307 134.883 84.5566 137.353 85.3016V84.51C137.4 81.7629 136.887 78.9692 135.908 76.4083C134.929 73.9871 133.112 71.9383 130.828 70.6812C128.404 69.2843 125.002 68.5393 120.621 68.5393H105.473C104.262 68.5393 103.096 69.0049 102.257 69.8896C101.418 70.7277 100.906 71.8918 100.906 73.1024V109.7C100.906 110.305 100.999 110.911 101.232 111.469C101.465 112.028 101.791 112.54 102.211 112.959C102.63 113.378 103.143 113.704 103.702 113.937C104.262 114.17 104.867 114.31 105.427 114.31C106.639 114.31 107.804 113.844 108.643 112.959C109.482 112.121 109.994 110.957 109.994 109.747V84.3238H109.948Z" fill="#67D59B"/>
<path d="M56.4537 90.047C55.4828 89.8445 54.5118 89.6015 53.5005 89.723C52.044 89.9255 50.7899 90.857 49.6572 91.829C48.2817 93.044 47.0275 94.34 46.0566 95.8791C43.7102 99.4836 43.0224 104.02 43.1843 108.313C43.3056 112.606 44.1957 116.899 44.6811 121.192C45.207 125.647 45.207 130.142 44.8025 134.597C54.7141 133.18 64.9089 133.504 74.6992 135.529C68.2263 126.092 64.4235 114.347 66.689 103.129C67.3363 99.8076 68.4286 95.8791 66.1226 93.4085C64.8685 92.0315 62.9671 91.5455 61.1061 91.1405C59.6093 90.8165 57.991 90.4115 56.4537 90.047Z" fill="#3E3E3E"/>
<path d="M55.8873 107.867C55.9682 107.867 56.0896 107.908 56.1705 107.948C56.4132 108.11 56.3728 108.556 56.3323 108.92C55.24 115.076 55.685 121.637 57.5864 127.51C53.9859 124.837 49.2526 127.51 45.1261 126.457C46.3398 123.743 46.0566 120.463 46.0161 117.425C45.9756 113.821 45.2474 108.961 46.0161 105.478C48.9289 105.842 52.9745 107.462 55.8873 107.867Z" fill="#FBE4E1"/>
<path d="M62.8863 97.013C63.2099 100.172 62.4413 102.926 61.2276 105.842C59.8521 109.244 57.2629 112.363 53.7837 113.537C50.3046 114.752 46.704 114.307 45.0049 111.026C44.3171 109.69 43.9935 107.462 43.9935 105.923C44.0744 101.752 45.0453 97.3776 48.12 94.5425C49.9405 92.8415 51.8014 90.452 54.2692 90.2495C56.737 90.047 60.2162 91.1405 61.5917 93.1655C62.7649 94.8665 62.684 94.988 62.8863 97.013Z" fill="#FBE4E1"/>
<path d="M48.403 107.503C48.8885 108.07 49.6167 108.353 50.3044 108.556C51.3967 108.88 52.5699 109.001 53.7027 108.758C54.795 108.515 55.8873 107.867 56.4941 106.895C55.8468 107.017 55.1186 107.017 54.4309 106.936C51.154 106.531 48.5244 104.06 46.5016 101.509C46.623 102.845 46.7848 103.736 47.1084 105.032C47.3107 105.721 47.9175 106.895 48.403 107.503Z" fill="white"/>
<path d="M66.0818 102.359C62.724 96.8915 56.8984 93.0034 50.5873 91.9504C49.5355 92.9224 48.4431 93.854 47.3913 94.826C54.552 95.798 60.4585 100.901 64.8681 106.612C65.7582 105.356 66.6887 103.736 65.9605 102.4C66.2436 104.546 65.2727 100.334 66.0818 102.359Z" fill="#49A876"/>
<path d="M64.383 138.89C61.5916 127.307 62.0366 125.039 62.1175 113.132C62.158 110.5 60.9847 99.8075 59.0429 96.5675C56.3728 92.0314 53.9859 91.3024 51.4777 90.4114C57.3842 85.4704 64.6662 90.8569 66.4058 93.9349C68.1454 97.013 68.3881 100.658 68.6309 104.141C69.4804 115.724 70.9773 127.226 73.0405 138.647C70.1277 138.526 67.2554 138.607 64.383 138.89Z" fill="#3E3E3E"/>
<path d="M60.2967 109.892C60.4181 109.892 60.499 109.811 60.499 109.69C60.4586 105.599 59.609 101.752 57.748 97.2155C56.5344 94.34 53.9857 91.3025 52.4483 90.452C52.3674 90.4115 52.2461 90.4115 52.2056 90.533C52.1652 90.614 52.1652 90.7355 52.2865 90.776C53.7429 91.5455 56.2916 94.6235 57.4244 97.337C59.2854 101.833 60.1349 105.64 60.1349 109.649C60.1349 109.811 60.2158 109.892 60.2967 109.892Z" fill="#3E3E3E"/>
<path d="M58.9618 108.191C59.0832 108.151 59.1641 108.07 59.1641 107.989C58.3145 101.751 55.5635 95.0284 51.9629 90.4924C51.9225 90.4114 51.7607 90.4114 51.6798 90.4519C51.5988 90.4924 51.5988 90.6544 51.6393 90.7354C55.1994 95.2309 57.9099 101.873 58.7595 108.029C58.8 108.11 58.8809 108.191 58.9618 108.191Z" fill="#3E3E3E"/>
<path d="M75.2655 138.121C75.2655 138.121 75.306 138.121 75.2655 138.121C75.3869 138.121 75.4678 138.04 75.4678 137.918C74.6991 125.89 73.0809 115.481 70.0063 103.048L69.9253 102.724C69.1567 99.767 68.0644 95.231 65.9202 93.2465C65.8393 93.1655 65.718 93.206 65.637 93.2465C65.5561 93.3275 65.5966 93.449 65.637 93.53C67.7003 95.4335 68.7926 99.8885 69.5208 102.805L69.6017 103.129C72.7168 115.562 74.335 125.971 75.0632 137.959C75.1037 138.04 75.1846 138.121 75.2655 138.121Z" fill="#3E3E3E"/>
<path d="M43.3863 120.098C43.5077 122.245 43.5886 124.351 43.7099 126.457C43.7099 126.538 43.7504 126.659 43.8313 126.7C43.8718 126.74 43.9527 126.74 43.9931 126.7C46.2182 126.376 47.5128 136.744 49.7378 136.703C52.0843 136.663 55.4421 126.254 57.748 126.538C57.748 125.242 57.748 123.986 57.7076 122.69C57.7076 122.245 57.748 121.03 57.748 121.03C57.748 121.03 57.1817 120.463 56.7367 120.26C55.2803 119.612 53.8643 121.921 52.327 121.475C51.5179 121.232 51.0729 120.22 50.2637 120.098C49.0905 119.896 48.3623 121.394 47.1891 121.718C46.5014 121.921 45.7327 121.678 45.0854 121.313C44.6 120.908 44.074 120.422 43.3863 120.098Z" fill="#FBE4E1"/>
<path d="M93.1469 120.544C94.0774 116.777 95.6147 116.656 98.3657 113.861C98.8107 113.416 99.2962 112.727 99.7816 113.092C100.267 114.469 96.8284 116.777 96.5452 120.017C101.036 117.385 107.751 116.17 111.757 116.413C113.172 116.494 110.705 117.628 107.468 118.154C104.515 118.6 102.735 119.774 100.065 121.111C99.903 121.556 101.683 120.787 102.169 120.706C106.578 119.653 109.693 118.802 114.386 118.438C115.762 118.6 113.375 120.949 112.121 121.475C108.965 122.69 105.405 123.622 102.249 124.877C103.099 126.416 111.392 121.273 109.774 123.298C106.861 126.578 102.452 128.441 98.042 128.239C97.3138 128.198 96.5856 128.117 95.8979 128.36C95.0888 128.684 94.3606 129.454 94.1583 130.264C90.9218 142.049 87.3618 153.146 84.6108 160.639C83.8017 159.545 80.9293 149.056 79.6347 148.529C82.1025 141.806 86.674 138.283 89.1013 131.519C90.1532 128.563 91.4478 126.376 92.3378 124.189C92.4996 123.703 93.3087 120.098 93.1469 120.544Z" fill="#FBE4E1"/>
<path d="M50.5472 98.3494C50.6686 98.3494 50.7495 98.2684 50.7495 98.1469C50.7495 98.0254 50.6686 97.9444 50.5472 97.9444C48.039 97.8634 45.6926 95.6764 45.4903 93.1249C45.4903 93.0034 45.3689 92.9629 45.288 92.9629C45.1666 92.9629 45.0857 93.0844 45.1262 93.1654C45.4094 95.9599 47.7963 98.2684 50.5472 98.3494Z" fill="#3E3E3E"/>
<path d="M22.0258 173.761C20.0031 164.406 19.7199 150.878 21.9854 142.211C22.8349 139.052 23.9677 135.812 26.1928 133.382C27.6896 131.722 29.6315 130.507 31.6138 129.413C35.4167 127.429 39.4622 125.93 43.6292 124.999C45.5306 128.239 47.4725 131.438 49.4143 134.678C51.518 132.127 57.7077 125.323 57.7077 125.323C57.7077 125.323 70.3299 128.927 73.7282 133.625C77.6928 139.093 78.5829 146.18 78.9065 152.944C79.1897 158.533 76.3578 167.079 74.9823 173.761H22.0258Z" fill="#E9E9E9"/>
<path d="M69.9252 173.761C69.6015 171.493 69.4802 169.104 69.6015 168.375C70.532 162.907 74.5371 156.346 77.2072 151.486C82.3855 142.09 83.1137 138.607 88.6157 130.142C91.2453 132.127 94.4008 133.382 97.6777 133.787C92.1353 147.517 85.5815 160.923 78.2186 173.761H69.9252Z" fill="#E9E9E9"/>
</g>
<defs>
<clipPath id="clip0_99_1044">
<rect width="316" height="237" fill="white"/>
</clipPath>
</defs>
</svg>
