<svg width="703" height="711" viewBox="0 0 703 711" fill="none" xmlns="http://www.w3.org/2000/svg">
<g opacity="0.85" clip-path="url(#clip0_115_491)" filter="url(#filter0_d_115_491)">
<path d="M531.352 599.707L367.43 555.784C350.621 551.28 340.663 534.189 345.139 517.483L453.316 113.762C457.761 97.1719 474.962 87.2329 491.772 91.737L655.693 135.66C672.503 140.164 682.461 157.255 677.984 173.961L569.776 577.799C565.447 594.419 548.162 604.211 531.352 599.707Z" fill="#CFF2DF"/>
<path d="M532.271 139.518C535.216 140.308 538.23 138.61 539.003 135.727C539.775 132.844 538.014 129.866 535.069 129.077C532.124 128.288 529.11 129.986 528.337 132.869C527.565 135.752 529.326 138.729 532.271 139.518Z" fill="#A2E5C2"/>
<path d="M655.693 135.66L624.277 127.242C622.374 127.851 620.502 128.344 618.716 128.984C570.109 145.305 524.253 174.548 497.837 217.952C487.174 235.487 479.888 254.797 470.523 273.053C448.911 314.76 416.375 349.934 381.571 381.517L345.108 517.599C340.663 534.189 350.59 551.396 367.399 555.9L531.321 599.823C548.131 604.327 565.3 594.504 569.776 577.799L677.984 173.961C682.545 157.403 672.503 140.164 655.693 135.66Z" fill="#A2E5C2"/>
<path d="M453.252 569.828C463.688 572.624 474.389 566.529 477.153 556.213C479.917 545.898 473.698 535.268 463.261 532.472C452.825 529.676 442.125 535.771 439.361 546.087C436.596 556.402 442.816 567.032 453.252 569.828Z" fill="#85DDAE"/>
<path d="M548.481 136.525L587.633 142.043L586.735 148.641L547.552 143.24L548.481 136.525Z" fill="#85DDAE"/>
<path d="M663.058 193.96L456.127 138.513L359.825 497.917L566.756 553.364L663.058 193.96Z" fill="white"/>
<path d="M452.821 562.625C460.824 564.769 469.023 560.119 471.135 552.238C473.247 544.358 468.471 536.231 460.468 534.086C452.464 531.942 444.265 536.592 442.153 544.473C440.041 552.353 444.817 560.481 452.821 562.625Z" fill="#C0EED5"/>
<path d="M581.411 146.717L550.342 138.392C549.762 138.236 549.307 137.617 549.462 137.037C549.618 136.457 550.206 136.117 550.901 136.304L581.97 144.628C582.55 144.784 583.005 145.403 582.85 145.983C582.578 146.532 581.99 146.872 581.411 146.717Z" fill="#49A876"/>
<path d="M533.009 137.229C535.058 137.778 537.15 136.613 537.682 134.627C538.214 132.641 536.985 130.585 534.936 130.036C532.887 129.488 530.795 130.653 530.263 132.639C529.731 134.625 530.96 136.68 533.009 137.229Z" fill="#49A876"/>
<path d="M447.384 137.289L443.675 136.295L439.385 152.305L443.095 153.299L447.384 137.289Z" fill="#49A876"/>
<path d="M437.966 172.441L434.256 171.447L426.578 200.102L430.287 201.096L437.966 172.441Z" fill="#49A876"/>
<path d="M666.111 233.572L662.401 232.578L654.723 261.233L658.433 262.227L666.111 233.572Z" fill="#67D59B"/>
<path d="M427.926 209.913L424.216 208.919L416.538 237.574L420.247 238.568L427.926 209.913Z" fill="#49A876"/>
<path d="M531.82 124.974L535.429 131.909L528.497 135.523L524.888 128.587L531.82 124.974Z" fill="white"/>
<path d="M527.924 124.676L530.608 129.498L525.703 132.039L523.019 127.216L527.924 124.676Z" fill="#85DDAE"/>
<path d="M538.949 521.929C490.07 511.949 442.987 499.334 397.264 483.965C408.567 433.064 421.057 385.288 435.256 342.177C483.03 352.796 530.258 365.451 576.941 380.142C567.467 426.544 554.473 473.874 538.949 521.929Z" fill="#85DDAE"/>
<path d="M496.797 394.985L485.849 392.051L477.608 422.805L488.556 425.739L496.797 394.985Z" fill="#FBE4E1"/>
<path d="M485.212 381.535C484.899 379.635 485.203 377.681 485.712 375.781C488.273 366.837 497.013 360.21 506.239 359.545C515.465 358.88 524.743 363.953 529.798 371.691C532.765 376.172 534.382 381.393 536.945 386.152C539.522 390.86 543.427 395.318 548.728 396.408C556.526 398.002 564.965 391.679 572.206 394.94C575.673 396.529 577.874 399.981 580.667 402.655C583.46 405.329 587.742 407.357 590.992 405.256C589.022 410.561 589.392 412.862 588.886 416.798C588.379 420.735 585.914 425.027 581.401 427.339C576.447 429.864 573.512 433.04 570.043 437.393C567.231 440.931 566.671 445.679 565.553 450.057C564.435 454.434 562.142 459.103 557.84 460.426C551.956 460.281 549.009 453.273 544.091 450.139C540.482 447.851 535.96 447.74 531.909 446.49C524.02 444.211 517.745 437.137 516.257 428.979C515.674 425.631 515.824 422.204 515.371 418.781C514.314 410.244 509.546 402.253 502.461 397.383C495.847 392.804 486.394 389.611 485.212 381.535Z" fill="#3E3E3E"/>
<path d="M512.413 370.884C509.393 367.214 507.671 366.477 503.24 365.62C502.817 365.562 500.391 365.407 499.954 365.4C494.75 365.381 491.815 367.126 488.57 370.439C485.324 373.751 483.407 378.245 482.258 382.945C481.287 386.977 481.076 391.653 483.621 395.251C484.975 397.155 486.969 398.514 489.086 399.412C493.935 401.371 499.28 400.658 503.486 398.263C507.692 395.868 510.796 391.857 512.931 387.367C515.32 382.339 516.327 375.51 512.413 370.884Z" fill="#FBE4E1"/>
<path d="M492.51 372.1C491.874 372.425 490.934 373.274 490.934 373.274C490.934 373.274 491.543 374.482 491.883 374.849C496.506 380.105 501.858 384.895 507.838 388.974C512.104 382.468 514.791 375.099 515.749 367.431C513.854 366.318 511.819 365.113 509.645 365.245C508.925 365.273 508.266 365.481 507.607 365.69C502.269 367.396 497.208 369.507 492.51 372.1Z" fill="#3E3E3E"/>
<path d="M490.385 371.641C490.283 371.613 490.246 371.548 490.208 371.483C490.133 371.353 490.188 371.148 490.318 371.072L494.78 368.746C496.245 367.983 497.711 367.22 499.289 366.653C501.953 365.716 504.837 365.388 507.645 365.755C507.798 365.796 507.924 365.94 507.883 366.094C507.842 366.248 507.698 366.375 507.545 366.333C504.839 365.994 502.071 366.297 499.472 367.197C497.959 367.727 496.494 368.49 495.079 369.267L490.617 371.593C490.488 371.668 490.436 371.654 490.385 371.641Z" fill="#3E3E3E"/>
<path d="M489.719 380.267C486.803 379.485 484.351 377.177 483.36 374.326C483.275 374.028 483.139 373.716 483.069 373.367C483.007 373.186 483.1 373.045 483.281 372.984C483.462 372.922 483.602 373.015 483.663 373.196C483.747 373.494 483.832 373.792 483.917 374.09C484.856 376.928 487.387 379.147 490.293 379.76C490.447 379.801 490.573 379.945 490.532 380.099C490.49 380.253 490.347 380.38 490.193 380.339C490.026 380.349 489.872 380.308 489.719 380.267Z" fill="#23286B"/>
<path d="M551.19 392.335C547.711 391.403 544.674 389.434 542.944 386.274C538.636 378.406 533.781 369.511 525.89 363.765C518.646 358.467 507.337 356.263 499.687 362.302C499.558 362.377 499.39 362.387 499.264 362.244C499.19 362.114 499.18 361.946 499.323 361.819C507.182 355.616 518.862 357.865 526.246 363.255C534.226 369.08 539.343 378.43 543.463 385.973C546.924 392.293 555.808 393.518 562.821 391.49L562.938 391.466C566.502 390.44 570.972 389.107 573.348 392.109C577.623 397.437 585.16 400.007 591.756 398.308C591.873 398.284 592.054 398.222 592.221 398.212C592.388 398.202 592.528 398.294 592.538 398.462C592.548 398.63 592.455 398.77 592.288 398.78C592.172 398.804 592.056 398.828 591.888 398.838C585.06 400.585 577.254 397.998 572.866 392.476C570.729 389.812 566.505 391.046 563.056 392.048L562.94 392.072C559.194 393.159 554.924 393.336 551.19 392.335Z" fill="#3E3E3E"/>
<path d="M544.918 442.547L540.89 439.982L543.596 444.614L544.918 442.547Z" fill="#49A876"/>
<path d="M526.63 430.988L538.995 451.965L541.453 448.112L534.128 435.749L526.63 430.988Z" fill="#49A876"/>
<path d="M512.422 422.008L534.393 459.317L536.851 455.463L519.92 426.769L512.422 422.008Z" fill="#49A876"/>
<path d="M506.834 427.72L529.805 466.617L532.263 462.763L509.241 423.852L506.834 427.72Z" fill="#49A876"/>
<path d="M502.232 435.071L525.204 473.968L527.662 470.114L504.639 431.204L502.232 435.071Z" fill="#49A876"/>
<path d="M497.643 442.371L514.164 470.35L521.662 475.11L500.05 438.504L497.643 442.371Z" fill="#A1C3FC"/>
<path d="M493.042 449.722L499.955 461.37L507.453 466.13L495.449 445.855L493.042 449.722Z" fill="#A1C3FC"/>
<path d="M489.775 454.955L493.194 457.137L490.847 453.206L489.775 454.955Z" fill="#A1C3FC"/>
<path d="M499.897 501.085C500.066 500.25 510.405 512.21 516.482 496.284C524.631 475.08 518.54 450.336 516.833 427.647C516.345 421.078 515.782 412.948 509.774 410.403C505.195 408.461 497.41 410.502 492.85 412.582C488.341 414.675 486.102 416.277 481.901 413.335C480.568 412.372 480.896 410.534 480.896 410.534C480.896 410.534 468.598 408.34 464.337 410.94C460.076 413.54 457.893 414.936 455.273 419.187C445.271 435.437 435.256 451.738 425.254 467.987L505.474 489.482L499.897 501.085Z" fill="#CFF2DF"/>
<path d="M463.315 418.645C464.488 420.61 466.081 422.853 468.344 422.799C468.849 422.549 468.15 419.225 467.146 417.856C466.744 417.308 466.185 416.938 465.64 416.517C464.69 415.767 463.937 413.254 463.209 413.719C461.579 415.098 459.649 415.957 457.611 416.401C458.126 414.888 459.583 413.133 460.755 412.236C462.656 410.874 462.992 410.029 464.892 408.667C466.194 407.695 468.85 405.766 468.44 404.225C468.054 402.801 461.736 406.941 458.472 410.524C457.436 411.732 456.248 413.505 453.89 415.349C455.156 413.487 455.496 412.423 456.338 411.328C457.601 409.685 457.76 408.682 459.022 407.039C460.021 405.766 461.514 403.47 460.469 402.254C459.928 401.614 458.98 402.901 458.518 403.602C455.536 407.976 453.936 411.289 450.94 415.714C451.341 411.97 450.439 412.058 450.84 408.314C450.875 407.773 450.882 404.473 450.634 403.966C450.372 403.511 449.618 403.254 449.225 403.699C449.003 403.914 448.731 404.722 448.753 405.663C448.749 409.569 449.135 413.855 448.739 417.381C448.35 417.607 448.11 418.093 447.846 418.462C446.47 420.735 444.422 422.442 442.36 424.201C441.558 424.536 440.793 424.936 440.153 425.481C439.083 426.404 438.367 427.643 437.703 428.896C430.818 441.084 422.699 452.555 413.504 463.133C418.627 464.891 423.684 466.686 428.806 468.444C429.304 468.632 429.866 468.783 430.372 468.533C430.826 468.27 431.066 467.784 431.204 467.27C434.359 458.156 437.565 449.055 439.609 439.587C440.015 437.66 440.436 435.681 441.531 434.049C441.61 433.96 441.689 433.871 441.716 433.768C441.716 433.768 441.716 433.768 441.767 433.782C445.452 432.513 449.137 431.244 452.822 429.976C453.184 429.853 453.611 429.692 453.996 429.685C454.382 429.678 454.805 429.737 455.163 429.833C458.734 430.624 464.806 435.388 465.03 434.347C465.242 432.533 464.2 431.099 462.872 429.917C461.557 428.684 459.835 427.948 458.151 427.276C457.807 427.129 457.411 426.968 457.224 426.643C456.986 426.304 456.994 425.866 457.039 425.493C457.082 424.514 457.139 423.483 457.181 422.504C457.23 421.912 457.228 421.306 457.533 420.783C458.455 418.774 461.446 419.685 463.315 418.645Z" fill="#FBE4E1"/>
<path d="M421.133 486.639C414.146 485.702 411.627 479.139 410.065 472.282C409.645 470.574 412.659 462.192 415.121 458.119C420.683 448.823 426.559 442.034 433.062 433.321C435.565 434.211 439.64 435.579 442.18 436.534C441.58 442.867 439.394 448.775 438.794 455.107C438.435 458.698 434.962 469.818 432.224 474.918C429.634 479.672 426.158 487.325 421.133 486.639Z" fill="#A2E5C2"/>
<path d="M513.04 475.772C513.034 473.954 511.607 472.526 510.371 471.204C503.673 464.072 499.737 454.818 496.029 445.735C495.167 443.633 494.267 441.466 492.936 439.679C491.838 436.413 490.377 433.27 490.346 429.905C490.368 429.416 490.338 428.913 490.113 428.522C491.533 425.271 493.997 421.804 495.96 418.368C496.45 417.564 496.554 416.766 496.534 416.431C496.402 415.9 495.686 415.708 495.18 415.958C494.726 416.221 493.03 419.069 492.828 419.62C491.302 423.063 490.566 422.535 489.04 425.979C488.645 420.7 488.916 417.031 488.534 411.701C488.485 410.862 488.307 409.274 487.518 409.558C485.954 410.074 486.15 412.823 486.379 414.425C486.651 416.479 486.287 417.427 486.559 419.481C486.754 420.799 486.517 421.891 486.669 424.188C485.549 421.411 485.457 419.296 485.113 417.717C484.129 412.997 480.676 406.238 479.63 407.279C478.453 408.394 479.826 411.458 480.481 412.9C481.446 415.029 481.315 415.929 482.279 418.059C482.846 419.421 483.245 421.619 482.92 423.238C481.391 421.783 480.084 420.112 479.413 418.116C479.052 417.414 477.158 419.163 475.909 419.323C475.226 419.416 474.557 419.456 473.936 419.73C472.381 420.414 470.114 422.943 470.427 423.412C472.359 424.59 474.846 423.496 476.858 422.329C477.957 424.164 481.003 424.87 480.978 427.01C480.98 427.616 480.675 428.139 480.421 428.677C479.969 429.546 479.503 430.467 479.051 431.336C478.852 431.668 478.64 432.051 478.315 432.24C477.991 432.428 477.568 432.369 477.196 432.325C475.401 432.064 473.579 431.906 471.787 432.251C470.032 432.661 468.427 433.332 467.703 435.009C467.377 436.022 474.965 434.919 478.505 436.032C478.915 436.142 479.259 436.289 479.59 436.488C479.92 436.687 480.209 437.039 480.461 437.327C482.678 439.902 481.843 439.128 483.304 440.84C483.579 441.244 483.92 441.61 484.274 441.925C485.64 443.172 487.389 443.806 488.755 445.052C491.133 447.23 491.805 450.657 492.327 453.823C493.884 463.155 495.404 472.422 496.961 481.754C500.027 481.364 503.143 480.989 506.208 480.599C509.055 480.207 513.023 478.904 513.04 475.772Z" fill="#FBE4E1"/>
<path d="M511.078 505.401C513.312 504.019 514.82 500.846 515.524 497.403C516.292 493.922 516.32 490.133 516.4 486.357C516.483 480.931 511.067 469.63 506.717 464.172C505.862 463.063 497.827 449.464 497.827 449.464C497.827 449.464 491.841 455.839 489.109 457.033C488.64 469.014 489.948 481.525 493.043 493.305C493.561 495.26 494.093 497.163 495.042 498.738C496.477 501.159 498.577 502.327 500.537 503.402C504.061 505.392 507.92 507.362 511.078 505.401Z" fill="#A2E5C2"/>
<path d="M501.612 478.928C501.585 479.03 501.608 479.147 501.711 479.174C501.813 479.201 501.878 479.164 501.957 479.075C501.984 478.972 501.96 478.856 501.858 478.828C501.705 478.787 501.64 478.825 501.612 478.928ZM498.196 495.566C498.08 495.59 498.052 495.693 498.076 495.809C498.099 495.926 498.202 495.953 498.318 495.929C498.434 495.905 498.461 495.802 498.438 495.686C498.428 495.518 498.312 495.542 498.196 495.566ZM502.097 493.695C501.981 493.719 501.953 493.822 501.977 493.938C502.001 494.054 502.103 494.082 502.219 494.058C502.335 494.034 502.362 493.931 502.339 493.815C502.353 493.764 502.213 493.671 502.097 493.695ZM498.051 486.283C498.075 486.399 498.126 486.413 498.215 486.492C498.331 486.468 498.344 486.416 498.423 486.327C498.399 486.211 498.348 486.197 498.246 486.17C498.092 486.129 498.028 486.166 498.051 486.283ZM502.358 486.171C502.382 486.287 502.433 486.301 502.522 486.38C502.638 486.356 502.651 486.305 502.73 486.216C502.706 486.099 502.655 486.086 502.553 486.058C502.413 485.966 502.334 486.055 502.358 486.171ZM504.726 501.278C504.661 501.316 504.671 501.483 504.708 501.548C504.746 501.613 504.913 501.603 504.978 501.566C505.043 501.528 505.033 501.36 504.995 501.295C504.907 501.216 504.804 501.189 504.726 501.278ZM507.712 498.116C507.647 498.154 507.657 498.321 507.694 498.386C507.731 498.451 507.899 498.441 507.964 498.404C508.028 498.366 508.019 498.198 507.981 498.133C507.893 498.054 507.79 498.027 507.712 498.116ZM498.022 482.093C498.009 482.144 498.083 482.274 498.199 482.25C498.251 482.264 498.38 482.189 498.357 482.072C498.371 482.021 498.296 481.891 498.18 481.915C498.077 481.887 498.012 481.925 498.022 482.093ZM501.861 482.296C501.847 482.347 501.922 482.477 502.038 482.453C502.089 482.467 502.205 482.443 502.196 482.276C502.209 482.224 502.186 482.108 502.018 482.118C501.954 482.156 501.889 482.193 501.861 482.296ZM503.332 497.273C503.267 497.31 503.239 497.413 503.277 497.478C503.314 497.543 503.416 497.57 503.481 497.533C503.546 497.495 503.574 497.392 503.536 497.327C503.499 497.262 503.396 497.235 503.332 497.273ZM506.152 494.727C506.087 494.764 506.06 494.867 506.097 494.932C506.135 494.997 506.237 495.024 506.302 494.987C506.367 494.949 506.394 494.846 506.357 494.781C506.333 494.665 506.231 494.638 506.152 494.727ZM500.942 489.204C500.826 489.227 500.799 489.33 500.822 489.447C500.846 489.563 500.948 489.59 501.065 489.566C501.181 489.542 501.208 489.44 501.184 489.323C501.161 489.207 501.007 489.166 500.942 489.204ZM494.405 483.93C494.289 483.954 494.261 484.056 494.285 484.173C494.308 484.289 494.411 484.317 494.527 484.293C494.643 484.269 494.67 484.166 494.647 484.05C494.623 483.933 494.47 483.892 494.405 483.93ZM498.581 482.463C498.465 482.487 498.438 482.589 498.461 482.706C498.485 482.822 498.587 482.849 498.703 482.826C498.819 482.802 498.847 482.699 498.823 482.583C498.8 482.466 498.697 482.439 498.581 482.463ZM502.772 480.944C502.656 480.968 502.628 481.071 502.652 481.187C502.675 481.304 502.778 481.331 502.894 481.307C503.01 481.283 503.037 481.18 503.014 481.064C502.925 480.985 502.823 480.958 502.772 480.944ZM506.763 497.972C506.736 498.075 506.759 498.191 506.862 498.218C506.964 498.246 507.029 498.208 507.056 498.105C507.084 498.003 507.06 497.886 506.958 497.859C506.921 497.794 506.791 497.869 506.763 497.972ZM504.023 474.841C503.907 474.865 503.842 474.903 503.815 475.005L504.023 474.841ZM500.534 490.525C500.469 490.562 500.479 490.73 500.516 490.795C500.553 490.86 500.721 490.85 500.786 490.812C500.85 490.775 500.841 490.607 500.803 490.542C500.715 490.463 500.599 490.487 500.534 490.525ZM498.019 488.86C497.954 488.898 497.964 489.066 498.001 489.131C498.038 489.196 498.206 489.186 498.27 489.148C498.335 489.11 498.363 489.008 498.288 488.877C498.2 488.799 498.032 488.809 498.019 488.86ZM501.41 486.027C501.345 486.065 501.355 486.232 501.392 486.297C501.43 486.362 501.532 486.39 501.662 486.315C501.727 486.277 501.717 486.109 501.679 486.044C501.591 485.965 501.488 485.938 501.41 486.027ZM500.044 478.232C499.928 478.256 499.9 478.359 499.924 478.475C499.948 478.592 500.05 478.619 500.166 478.595C500.282 478.571 500.31 478.468 500.286 478.352C500.197 478.273 500.109 478.195 500.044 478.232ZM501.728 478.904C501.663 478.941 501.636 479.044 501.673 479.109C501.711 479.174 501.813 479.201 501.878 479.164C501.943 479.126 501.97 479.024 501.933 478.958C501.844 478.88 501.742 478.852 501.728 478.904Z" fill="white"/>
<path d="M585.863 351.199C536.984 341.219 489.901 328.603 444.178 313.234C455.481 262.334 467.971 214.557 482.17 171.447C529.944 182.066 577.173 194.72 623.855 209.411C614.381 255.814 601.387 303.144 585.863 351.199Z" fill="#85DDAE"/>
<path d="M552.634 190.516C551.082 189.694 549.53 188.872 547.778 188.606C545.186 188.266 542.628 189.307 540.294 190.459C537.433 191.876 534.651 193.568 532.299 195.73C526.633 200.813 523.443 208.184 521.759 215.603C520.028 223.01 519.597 230.663 518.433 238.222C517.252 246.029 515.243 253.717 512.55 261.12C530.063 263.223 547.214 268.377 562.951 276.351C556.247 257.341 555.145 235.568 564.134 217.513C566.779 212.179 570.364 205.981 567.632 200.679C566.128 197.788 563.097 196.062 560.17 194.516C557.642 193.178 555.161 191.853 552.634 190.516Z" fill="#3E3E3E"/>
<path d="M543.565 220.583C543.706 220.621 543.883 220.719 543.999 220.852C544.348 221.25 544.098 221.995 543.838 222.586C539.13 232.597 536.903 243.932 537.472 254.849C532.596 248.668 523.299 251.052 516.742 247.365C520.018 243.267 521.031 237.597 522.38 232.374C523.983 226.202 524.916 217.617 527.838 212.002C532.668 214.007 538.829 218.603 543.565 220.583Z" fill="#FBE4E1"/>
<path d="M560.361 205.331C559.446 210.824 556.914 215.172 553.549 219.602C549.626 224.797 543.87 228.891 537.372 229.333C530.921 229.788 524.983 227.384 523.599 221.022C523.027 218.431 523.476 214.489 524.174 211.884C526.22 204.815 529.866 197.82 536.358 194.381C540.203 192.313 544.507 189.1 548.753 189.882C553.059 190.63 558.457 194.107 559.892 198.199C561.162 201.585 560.957 201.784 560.361 205.331Z" fill="#FBE4E1"/>
<path d="M531.068 216.575C531.665 217.75 532.719 218.54 533.846 219.248C535.596 220.276 537.516 221.044 539.52 221.124C541.524 221.204 543.611 220.596 545.095 219.216C543.91 219.102 542.729 218.785 541.586 218.327C536.19 216.17 532.879 210.763 530.55 205.468C530.13 207.793 530.007 209.385 529.99 211.716C529.931 213.071 530.437 215.339 531.068 216.575Z" fill="white"/>
<path d="M563.356 215.883C560.128 205.066 552.031 195.788 541.79 191.114C539.563 192.244 537.276 193.408 535.037 194.585C546.734 199.497 554.473 210.862 559.382 222.587C561.465 220.86 563.76 218.53 563.154 215.88C562.696 219.667 562.96 212.07 563.356 215.883Z" fill="#49A876"/>
<path d="M543.853 277.327C544.423 256.306 546.207 252.671 551.734 232.42C552.988 227.932 555.878 209.208 554.091 202.839C551.625 193.902 547.905 191.534 544.012 188.866C556.287 183.117 566.249 195.637 567.781 201.633C569.314 207.629 568.076 213.949 566.902 220.032C563.086 240.133 560.287 260.404 558.613 280.825C553.798 279.332 548.846 278.157 543.853 277.327Z" fill="#3E3E3E"/>
<path d="M550.15 226.054C550.339 226.105 550.518 226 550.569 225.811C552.388 218.834 552.675 211.904 551.579 203.334C550.855 197.91 547.858 191.521 545.641 189.404C545.524 189.271 545.323 189.268 545.177 189.432C545.045 189.549 545.041 189.751 545.205 189.896C547.306 191.881 550.256 198.257 550.949 203.419C552.07 211.894 551.748 218.764 549.955 225.646C549.857 225.823 549.961 226.003 550.15 226.054Z" fill="#3E3E3E"/>
<path d="M548.608 222.544C548.656 222.557 548.656 222.557 548.608 222.544C548.857 222.56 548.99 222.443 549.041 222.253C550.467 211.262 548.862 198.544 544.79 189.176C544.733 189.008 544.497 188.945 544.33 189.002C544.163 189.059 544.099 189.296 544.156 189.463C548.146 198.758 549.742 211.321 548.341 222.218C548.35 222.373 548.467 222.506 548.608 222.544Z" fill="#3E3E3E"/>
<path d="M562.728 280.963C562.917 281.013 563.11 280.862 563.148 280.72C567.356 259.912 569.329 241.399 569.794 218.878L569.792 218.318C569.875 212.908 570.041 204.726 567.318 200.341C567.214 200.161 567.013 200.157 566.845 200.214C566.666 200.318 566.662 200.52 566.718 200.688C569.338 204.893 569.197 212.98 569.093 218.283L569.095 218.842C568.642 241.317 566.682 259.782 562.474 280.59C562.423 280.779 562.539 280.912 562.728 280.963Z" fill="#3E3E3E"/>
<path d="M516.78 235.697C516.004 239.348 515.216 243.047 514.44 246.698C514.402 246.84 514.398 247.042 514.515 247.175C514.597 247.247 514.691 247.273 514.798 247.251C518.717 247.742 516.168 265.948 520.008 266.926C524.036 267.955 534.452 251.755 538.294 253.292C538.878 251.113 539.462 248.934 540.011 246.695C540.214 245.937 540.855 243.925 540.855 243.925C540.855 243.925 540.116 242.712 539.497 242.19C537.345 240.395 533.822 243.716 531.486 242.227C530.231 241.434 529.932 239.526 528.578 238.909C526.695 237.998 524.734 240.215 522.645 240.264C521.362 240.327 520.154 239.546 519.292 238.604C518.371 237.697 517.702 236.604 516.78 235.697Z" fill="#FBE4E1"/>
<path d="M601.115 259.208C604.435 253.243 607.097 253.702 613.043 250.218C614.002 249.663 615.123 248.694 615.795 249.585C616.024 252.134 609.147 254.556 607.154 259.913C616.001 257.51 627.958 258.429 634.681 260.738C637.052 261.526 632.327 262.342 626.618 261.726C621.408 261.142 617.804 262.309 612.646 263.415C612.16 264.097 615.526 263.628 616.38 263.654C624.374 263.866 630.046 263.863 638.195 265.386C640.481 266.304 635.339 269.242 632.937 269.512C626.993 270.154 620.574 270.109 614.618 270.798C615.337 273.784 631.81 268.804 628.144 271.528C621.711 275.695 613.289 276.891 605.973 274.525C604.758 274.148 603.52 273.664 602.272 273.787C600.763 273.941 599.179 274.938 598.433 276.211C587.536 294.769 576.411 312.099 568.32 323.59C567.457 321.328 567.317 302.198 565.385 300.716C572.662 290.378 582.069 286.45 589.216 276.026C592.357 271.485 595.58 268.338 598.048 264.987C598.547 264.258 601.614 258.479 601.115 259.208Z" fill="url(#paint0_linear_115_491)"/>
<path d="M538.87 202.01C539.059 202.061 539.239 201.957 539.289 201.767C539.34 201.578 539.236 201.398 539.047 201.347C534.787 200.053 531.868 195.26 532.645 190.847C532.696 190.658 532.533 190.512 532.391 190.474C532.202 190.424 532.009 190.575 532.019 190.73C531.14 195.521 534.196 200.555 538.87 202.01Z" fill="#3E3E3E"/>
<path d="M455.891 317.431C456.708 300.589 462.417 277.391 470.239 263.695C473.104 258.674 476.56 253.71 481.444 250.601C484.757 248.442 488.622 247.244 492.459 246.343C499.81 244.606 507.393 243.896 514.911 244.184C516.698 250.553 518.533 256.934 520.32 263.303C525.031 259.894 538.711 251.17 538.711 251.17C538.711 251.17 558.556 263.088 562.174 272.639C566.381 283.77 564.669 296.208 562.198 307.885C560.119 317.534 551.403 330.787 546.029 341.584L455.891 317.431Z" fill="#49A876"/>
<path d="M537.384 339.267C537.905 335.243 538.748 331.153 539.314 329.985C543.421 321.082 553.16 311.759 559.964 304.696C573.029 291.085 575.857 285.445 589.082 273.502C592.609 278.103 597.424 281.678 602.82 283.835C587.101 304.707 569.893 324.519 551.462 343.04L537.384 339.267Z" fill="#49A876"/>
<path d="M107.516 292.192C95.9866 284.462 93.5658 270.231 87.0879 258.875C86.0244 257.345 85.3676 258.527 85.1055 259.929C81.4266 257.585 82.2951 264.495 82.5544 266.489C82.9328 269.306 84.0992 274.259 85.0912 276.902C86.9695 282.159 91.8655 287.998 94.9994 292.799C89.8802 292.446 87.3271 284.632 84.0966 285.69C80.0618 287.212 91.0526 298.646 95.092 300.068C96.7557 300.627 103.96 303.349 105.435 302.499C108.757 300.673 104.01 293.855 107.516 292.192Z" fill="#FBE4E1"/>
<path d="M371.121 205.162C380.47 206.648 404.585 166.14 397.665 160.664C395.805 159.146 395.181 163.167 393.663 165.024C393.114 164.537 388.352 166.657 387.837 167.311C383.425 172.354 382.015 180.578 378.767 185.933C374.452 193.152 368.024 198.107 361.328 203.217C365.019 208.054 367.667 211.707 371.121 205.162Z" fill="#FBE4E1"/>
<path d="M374.477 206.174C384.465 202.739 402.213 187.687 397.01 185.954C392.125 184.305 386.383 194.311 371.808 202.177C372.894 202.355 373.694 206.983 374.477 206.174Z" fill="#FBE4E1"/>
<path d="M179.345 198.822C177.336 198.284 175.306 197.4 173.698 196.63C173.409 196.439 173.092 196.354 172.803 196.164C170.09 194.871 165.98 192.864 164.931 190.433C164.777 190.165 164.967 189.876 165.235 189.722C165.503 189.567 165.792 189.758 165.947 190.026C166.869 192.084 170.873 194.062 173.298 195.164C173.587 195.355 173.904 195.44 174.193 195.631C177.09 197.086 181.023 198.48 183.471 198.23C190.889 197.614 195.968 195.58 199.187 192.028C199.97 191.219 200.648 190.382 201.354 189.44C202.356 188.237 203.387 186.929 204.495 185.754C204.982 185.205 205.469 184.657 205.984 184.003C207.311 182.434 208.772 180.788 210.515 179.784C214.508 177.572 220.214 176.158 226.137 176.047C229.43 176.024 235.615 176.21 240.33 178.492C240.619 178.683 240.668 178.922 240.583 179.239C240.393 179.527 240.153 179.576 239.836 179.491C235.332 177.266 229.282 177.003 226.094 177.054C220.411 177.116 214.839 178.452 211.085 180.616C209.477 181.543 208.15 183.112 206.851 184.575C206.336 185.229 205.849 185.777 205.256 186.298C204.148 187.472 203.146 188.675 202.143 189.878C201.466 190.715 200.654 191.629 199.976 192.466C195.431 197.586 188.456 198.66 183.59 199.054C182.334 199.51 180.931 199.247 179.345 198.822Z" fill="#49A876"/>
<path d="M158.268 206.417C168.567 209.856 180.757 213.009 189.704 206.691C200.584 199.08 201.043 180.868 213.134 175.506C220.329 172.341 228.725 175.269 236.007 178.126C240.307 179.844 244.713 181.591 249.013 183.309C244.527 176.787 238.453 171.538 231.475 167.97C223.207 163.718 211.939 162.622 205.481 169.381C200.265 174.887 200.153 183.346 196.459 189.939C193.26 195.533 187.326 199.489 180.993 200.282C174.66 201.076 167.928 198.706 163.518 194.015C160.402 192.954 155.152 205.356 158.268 206.417Z" fill="#49A876"/>
<path d="M242.333 195.553C249.75 197.541 257.359 193.195 259.328 185.846C261.297 178.498 256.881 170.929 249.463 168.942C242.046 166.954 234.437 171.3 232.468 178.649C230.499 185.997 234.916 193.566 242.333 195.553Z" fill="#DDF6E9"/>
<path d="M103.877 393.759C101.287 388.198 92.913 383.917 87.067 384.162C85.4168 384.399 60.1458 432.181 63.573 432.081C74.6796 431.662 86.6408 421.285 93.0018 412.35C98.3322 404.724 94.9602 406.31 100.63 397.417C101.21 396.101 104.053 394.372 103.877 393.759Z" fill="#58BE88"/>
<path d="M99.7698 571.939C94.8236 575.594 93.2793 583.895 95.1503 589.603C95.8608 591.604 148.128 607.194 147.109 602.96C144.312 592.25 137.091 584.09 126.884 579.884C118.312 576.342 113.982 576.427 105.375 573.441C103.796 572.566 100.179 571.257 99.7698 571.939Z" fill="#58BE88"/>
<path d="M257.814 274.402C250.359 267.537 245.672 249.078 250.15 239.978C261.064 217.436 313.73 220.117 328.459 214.217C350.537 205.419 350.024 204.376 372.098 192.634C372.658 197.312 374.974 201.78 378.399 205.075C369.543 220.358 362.535 226.63 353.013 238.905C344.52 249.872 339.434 252.357 329.553 262.16C319.673 271.962 292.308 285.682 278.467 284.463C269.082 283.533 264.854 280.702 257.814 274.402Z" fill="#A2E5C2"/>
<path d="M118.622 576.878C110.321 577.823 102.073 575.612 97.8902 568.38C94.2216 562.191 93.2919 552.547 93.0652 545.356C92.7983 535.777 92.3973 526.276 92.1304 516.697C91.634 503.322 91.5263 488.919 99.0385 477.802C108.591 463.724 128.192 458.677 136.377 443.779C138.319 440.338 139.472 436.46 140.596 432.686C146.501 412.764 152.406 392.842 158.417 372.948C161.232 363.289 164.209 353.448 169.66 344.948C175.111 336.449 183.564 329.433 193.6 327.934C206.716 344.125 256.694 356.838 272.641 370.505C263.042 397.02 247.744 426.197 225.046 449.995C215.292 460.171 197.031 474.179 186.91 484.031C184.292 486.611 175.777 490.894 172.258 491.762C169.831 492.357 167.152 492.205 164.726 492.8C161.791 493.598 159.265 495.412 156.923 497.387C133.608 516.719 119.148 546.573 118.622 576.878Z" fill="#33865A"/>
<path d="M232.104 348.778C231.725 371.765 243.245 383.34 234.504 404.54C223.382 431.667 188.33 463.925 164.572 481.101C160.34 483.363 153.056 474.167 146.507 471.96C122.313 464.119 114.708 426.089 96.0075 408.742C92.893 405.983 97.5858 393.545 101.275 392.044C110.42 393.023 119.854 394.193 128.045 398.311C136.207 402.536 143.139 410.505 143.279 419.71C143.031 404.138 142.946 388.383 146.252 373.084C149.607 358.024 156.784 343.083 169.027 333.347C181.27 323.612 198.909 319.963 212.921 326.887C217.714 329.303 222.013 332.718 226.072 336.182C228.115 337.862 230.236 339.675 231.257 342.212C232.179 344.27 232.142 346.524 232.104 348.778Z" fill="#49A876"/>
<path d="M222.334 245.654C227.149 238.682 233.726 232.748 241.837 230.394C250.322 227.914 256.393 228.522 263.69 230.477C272.15 232.744 279.107 235.966 281.474 238.977C293.21 253.553 298.718 276.986 299.739 295.595C300.24 303.879 299.329 314.047 298.024 322.3C292.005 360.414 273.795 389.036 258.632 408.402C250.48 408.368 237.555 407.961 225.339 403.216C219.086 400.748 212.939 398.309 206.602 396.158C189.993 390.463 175.42 378.862 166.054 363.902C163.421 359.348 162.18 358.903 160.217 353.963C157.571 346.915 156.963 340.301 158.596 336.324C165.259 320.34 178.647 323.249 191.477 311.746C193.417 310.003 195.335 277.467 196.726 275.237C198.526 272.324 217.519 252.626 222.334 245.654Z" fill="#C0EED5"/>
<path d="M262.986 245.794C256.127 243.051 255.495 239.486 249.725 233.526C247.583 231.368 247.902 229.755 247.91 229.304C248.002 228.537 248.659 227.355 249.068 226.672C252.26 221.529 254.19 215.595 254.9 209.56C256.513 211.577 258.861 212.545 261.18 213.619C269.223 217.019 277.237 220.525 285.28 223.925C283.952 227.191 282.624 230.457 281.323 233.617C278.836 239.515 275.298 246.377 268.81 246.902C266.948 247.082 264.939 246.544 262.986 245.794Z" fill="#FBE4E1"/>
<path d="M256.217 187.729C261.191 183.968 271.333 182.498 277.021 185.38C282.709 188.263 284.453 193.597 286.613 199.495C288.667 205.365 288.224 212.943 287.774 219.274C287.503 222.823 286.879 226.843 284.106 229.156C280.578 232.172 275.36 231.34 270.785 230.227C266.315 229.143 261.873 227.953 257.898 225.869C253.923 223.785 250.23 220.645 248.281 216.501C245.254 210.031 247.002 202.237 250.082 195.819C251.7 192.743 253.606 189.859 256.217 187.729Z" fill="#FBE4E1"/>
<path d="M259.169 180.937C250.459 182.564 242.478 189.933 242.04 198.757C241.602 207.581 243.865 216.903 251.738 220.936C247.605 213.943 248.355 202.26 255.215 195.27C260.805 189.637 282.892 196.461 285.915 182.218C276.444 183.302 275.358 183.124 272.319 182.197C267.272 180.731 264.417 179.966 259.169 180.937Z" fill="#49A876"/>
<path d="M250.574 240.091C252.059 243.432 250.955 247.55 250.339 251.12C247.548 265.765 232.912 278.934 220.663 287.423C213.706 292.237 209.572 294.977 201.264 296.373C196.39 297.217 191.426 297.132 186.475 297.843C179.874 298.79 173.645 301.309 167.445 303.722C160.469 306.493 153.492 309.265 146.593 312.17C139.109 315.144 131.491 318.196 123.396 317.951C114.158 317.74 105.263 312.866 100.023 305.35C103.017 300.946 105.144 295.97 106.213 290.711C119.709 291.95 133.611 287.866 144.343 279.536C148.648 276.162 152.565 272.119 156.608 268.449C163.835 261.783 171.977 255.929 180.141 250.42C196.065 239.634 215.095 225.718 241.296 229.456C247.733 230.389 247.913 233.946 250.574 240.091Z" fill="#A2E5C2"/>
<path d="M371.744 202.839C374.63 200.104 377.129 196.699 379.149 193.392Z" fill="#FBE4E1"/>
<path d="M287.971 212.196C283.271 215.351 278.815 215.062 274.028 213.893C275.626 216.811 278.739 221.267 282.35 221.329C288.322 221.458 287.896 216.703 288.069 212.675C288.662 212.155 287.209 211.652 287.971 212.196Z" fill="white"/>
<path d="M289.792 201.592C290.254 205.79 285.385 209.579 281.317 208.263C281.595 204.263 281.077 200.276 279.839 196.435C280.164 196.069 280.594 195.732 280.919 195.366C281.017 195.845 281.193 196.458 281.291 196.938C283.052 199.673 289.245 197.71 289.792 201.592Z" fill="#FBE4E1"/>
<path d="M246.735 208.73C247.567 209.858 248.934 210.677 250.28 211.151C252.127 211.873 254.193 212.2 256.161 212.048C256.592 210.013 256.841 207.816 256.293 205.632C255.822 203.582 254.421 201.622 252.334 200.949C250.353 200.305 247.898 201.006 246.649 202.708C245.399 204.411 245.489 207.038 246.735 208.73Z" fill="#FBE4E1"/>
<path d="M176.512 364.214C176.434 364.08 176.357 363.946 176.223 364.023C176.089 364.101 175.955 364.178 176.032 364.312C176.11 364.446 176.187 364.58 176.321 364.503C176.427 364.531 176.561 364.454 176.512 364.214ZM159.451 342.439C159.479 342.333 159.536 342.122 159.324 342.066C159.219 342.037 159.007 341.981 158.951 342.192C158.922 342.297 158.866 342.509 159.077 342.565C159.183 342.594 159.423 342.545 159.451 342.439ZM167.332 354.058C167.466 353.981 167.523 353.77 167.339 353.607C167.262 353.473 167.05 353.417 166.888 353.6C166.754 353.677 166.697 353.888 166.881 354.05C167.092 354.107 167.198 354.135 167.332 354.058ZM201.64 342.765C201.909 342.611 201.888 342.265 201.733 341.998C201.578 341.73 201.261 341.645 201.098 341.827C200.83 341.982 200.851 342.327 201.006 342.595C201.055 342.835 201.372 342.92 201.64 342.765ZM191.276 349.721C191.544 349.567 191.523 349.222 191.368 348.954C191.213 348.686 190.868 348.707 190.6 348.861C190.331 349.016 190.247 349.333 190.402 349.6C190.69 349.791 191.008 349.876 191.276 349.721ZM180.805 356.65C181.073 356.495 181.158 356.178 181.003 355.91C180.849 355.643 180.531 355.558 180.369 355.74C180.101 355.895 180.122 356.24 180.171 356.48C180.192 356.825 180.537 356.804 180.805 356.65ZM206.597 369.106C206.547 368.867 206.259 368.676 206.019 368.725C205.779 368.774 205.588 369.062 205.637 369.302C205.687 369.542 205.976 369.732 206.215 369.683C206.455 369.634 206.646 369.346 206.597 369.106ZM194.261 371.573C194.212 371.334 193.923 371.143 193.683 371.192C193.444 371.241 193.253 371.529 193.302 371.769C193.351 372.009 193.64 372.199 193.88 372.15C194.12 372.101 194.311 371.813 194.261 371.573ZM180.166 329.428C180.328 329.245 180.201 328.871 180.018 328.709C179.835 328.547 179.489 328.567 179.299 328.856C179.136 329.039 179.157 329.384 179.34 329.546C179.658 329.631 180.003 329.611 180.166 329.428ZM173.197 339.784C173.359 339.601 173.233 339.228 173.049 339.065C172.866 338.903 172.492 339.029 172.33 339.212C172.168 339.395 172.189 339.74 172.477 339.931C172.661 340.093 173.006 340.073 173.197 339.784ZM166.2 350.246C166.362 350.063 166.341 349.718 166.052 349.527C165.869 349.365 165.524 349.386 165.333 349.674C165.171 349.857 165.297 350.231 165.481 350.393C165.664 350.555 166.038 350.429 166.2 350.246ZM208.681 381.209C208.632 380.97 208.448 380.807 208.209 380.856C207.969 380.905 207.806 381.088 207.856 381.328C207.905 381.567 208.088 381.73 208.328 381.681C208.434 381.709 208.624 381.42 208.681 381.209ZM186.15 340.086C186.313 339.903 186.292 339.558 186.109 339.396C185.925 339.233 185.686 339.282 185.523 339.465C185.361 339.648 185.382 339.993 185.565 340.155C185.748 340.318 185.988 340.269 186.15 340.086ZM179.077 348.717C179.24 348.534 179.219 348.189 179.036 348.026C178.852 347.864 178.613 347.913 178.45 348.096C178.288 348.279 178.309 348.624 178.492 348.786C178.675 348.948 179.021 348.928 179.077 348.717ZM172.004 357.347C172.167 357.164 172.146 356.819 171.963 356.657C171.779 356.495 171.54 356.544 171.377 356.727C171.215 356.909 171.236 357.255 171.419 357.417C171.602 357.579 171.814 357.636 172.004 357.347ZM196.885 362.203C197.153 362.049 197.21 361.837 197.055 361.57C196.9 361.302 196.689 361.245 196.421 361.4C196.153 361.554 196.096 361.765 196.251 362.033C196.328 362.167 196.646 362.252 196.885 362.203ZM186.973 367.47C187.213 367.421 187.298 367.104 187.143 366.836C186.988 366.569 186.777 366.512 186.509 366.666C186.241 366.821 186.184 367.032 186.339 367.3C186.522 367.462 186.839 367.547 186.973 367.47ZM164.175 334.537C164.232 334.326 164.077 334.058 163.865 334.001C163.654 333.945 163.386 334.099 163.329 334.311C163.273 334.522 163.428 334.79 163.639 334.846C163.851 334.903 163.985 334.826 164.175 334.537ZM160.838 345.301C160.894 345.089 160.74 344.822 160.528 344.765C160.317 344.708 160.048 344.863 159.992 345.074C159.935 345.285 160.09 345.553 160.302 345.61C160.513 345.666 160.781 345.512 160.838 345.301ZM218.171 374.132C218.439 373.977 218.524 373.66 218.369 373.393C218.214 373.125 217.897 373.04 217.629 373.194C217.361 373.349 217.276 373.666 217.431 373.933C217.586 374.201 217.903 374.286 218.171 374.132ZM206.862 380.382C207.13 380.228 207.215 379.911 207.06 379.643C206.905 379.375 206.588 379.29 206.32 379.445C206.052 379.599 205.967 379.916 206.122 380.184C206.305 380.346 206.622 380.431 206.862 380.382ZM175.905 339.831C175.99 339.514 175.835 339.246 175.517 339.161C175.2 339.076 174.932 339.23 174.847 339.547C174.762 339.864 174.917 340.132 175.234 340.217C175.552 340.302 175.82 340.147 175.905 339.831ZM172.354 352.235C172.439 351.918 172.284 351.65 171.967 351.565C171.65 351.48 171.382 351.635 171.297 351.951C171.212 352.268 171.367 352.536 171.684 352.621C171.896 352.678 172.269 352.551 172.354 352.235ZM197.432 358.049C197.594 357.866 197.573 357.521 197.313 357.225C197.129 357.062 196.784 357.083 196.593 357.371C196.431 357.554 196.452 357.899 196.635 358.062C196.896 358.358 197.135 358.309 197.432 358.049ZM189.272 368.199C189.462 367.911 189.413 367.671 189.124 367.48C188.941 367.318 188.595 367.339 188.433 367.522C188.271 367.704 188.292 368.05 188.475 368.212C188.764 368.403 189.109 368.382 189.272 368.199ZM205.496 361.794C205.658 361.611 205.637 361.266 205.454 361.104C205.271 360.941 204.925 360.962 204.763 361.145C204.601 361.328 204.621 361.673 204.805 361.835C204.882 361.969 205.228 361.949 205.496 361.794ZM197.026 371.409C197.188 371.226 197.167 370.881 197.012 370.613C196.829 370.45 196.484 370.471 196.321 370.654C196.159 370.837 196.18 371.182 196.335 371.45C196.49 371.718 196.835 371.697 197.026 371.409ZM179.623 354.295C179.708 353.979 179.553 353.711 179.235 353.626C178.918 353.541 178.65 353.695 178.565 354.012C178.48 354.329 178.635 354.597 178.847 354.653C179.164 354.738 179.432 354.584 179.623 354.295Z" fill="white"/>
</g>
<defs>
<filter id="filter0_d_115_491" x="-10.2891" y="-9.20895" width="723.217" height="743.438" filterUnits="userSpaceOnUse" color-interpolation-filters="sRGB">
<feFlood flood-opacity="0" result="BackgroundImageFix"/>
<feColorMatrix in="SourceAlpha" type="matrix" values="0 0 0 0 0 0 0 0 0 0 0 0 0 0 0 0 0 0 127 0" result="hardAlpha"/>
<feMorphology radius="9" operator="dilate" in="SourceAlpha" result="effect1_dropShadow_115_491"/>
<feOffset dx="6" dy="7"/>
<feGaussianBlur stdDeviation="4"/>
<feColorMatrix type="matrix" values="0 0 0 0 0.75 0 0 0 0 0.75 0 0 0 0 0.75 0 0 0 0.21 0"/>
<feBlend mode="normal" in2="BackgroundImageFix" result="effect1_dropShadow_115_491"/>
<feBlend mode="normal" in="SourceGraphic" in2="effect1_dropShadow_115_491" result="shape"/>
</filter>
<linearGradient id="paint0_linear_115_491" x1="630.381" y1="296.725" x2="682.362" y2="310.653" gradientUnits="userSpaceOnUse">
<stop stop-color="#FFBEB6"/>
<stop offset="1" stop-color="#F2A19C"/>
</linearGradient>
<clipPath id="clip0_115_491">
<rect width="556.7" height="585.297" fill="white" transform="translate(152.197 0.791046) rotate(15)"/>
</clipPath>
</defs>
</svg>
