<svg xmlns="http://www.w3.org/2000/svg" xmlns:xlink="http://www.w3.org/1999/xlink" viewBox="0 0 1093.04 909.76"><defs><style>.cls-1{fill:#cff2df;}.cls-2{fill:#a2e5c2;}.cls-3{fill:#85ddae;}.cls-4{fill:#fff;}.cls-5{fill:#c0eed5;}.cls-6{fill:#49a876;}.cls-7{fill:#fbe4e1;}.cls-8{fill:#3e3e3e;}.cls-9{fill:#23286b;}.cls-10{fill:#a1c3fc;}.cls-11{fill:url(#未命名漸層);}.cls-12{fill:#ddf6e9;}.cls-13{fill:#58be88;}.cls-14{fill:#33865a;}</style><linearGradient id="未命名漸層" x1="-1597.24" y1="-4635.1" x2="-1098.68" y2="-4635.1" gradientTransform="matrix(-0.16, -0.04, -0.04, 0.16, 549.38, 1046.02)" gradientUnits="userSpaceOnUse"><stop offset="0" stop-color="#ffbeb6"/><stop offset="1" stop-color="#f2a19c"/></linearGradient></defs><g id="圖層_2" data-name="圖層 2"><g id="圖層_1-2" data-name="圖層 1"><path class="cls-1" d="M830.87,903,540.13,825c-29.82-8.1-47.5-38.34-39.62-68L692.42,40.94A55.47,55.47,0,0,1,760.58,2l291,78c29.82,8.1,47.5,38.34,39.62,68L899.25,864C891.37,893.58,860.69,911.05,830.87,903Z"/><ellipse class="cls-2" cx="834.93" cy="77.46" rx="9.58" ry="9.8" transform="matrix(0.26, -0.97, 0.97, 0.26, 544.02, 863.9)"/><path class="cls-2" d="M1051.54,80.14l-55.8-14.91c-3.41,1.06-6.61,1.91-9.8,3.19-86.27,29-167.63,80.51-214.49,157.83-19,31.1-31.74,65.39-48.35,97.77C684.76,397.93,627,460.34,565.26,516.36L500.51,757.05c-7.88,29.39,9.8,59.85,39.62,68l290.74,78A55.29,55.29,0,0,0,899,864L1091,147.87C1099.25,118.48,1081.36,88,1051.54,80.14Z"/><ellipse class="cls-3" cx="701.29" cy="816.59" rx="34.29" ry="34.72" transform="translate(-268.97 1282.65) rotate(-75)"/><polygon class="cls-3" points="861.12 81.63 930.77 91.21 929.07 103.14 859.63 93.34 861.12 81.63"/><rect class="cls-4" x="465.79" y="262.93" width="659.85" height="380.19" transform="translate(152.19 1104.39) rotate(-75)"/><ellipse class="cls-5" cx="698.46" cy="811.77" rx="26.2" ry="26.62" transform="translate(-266.42 1276.33) rotate(-75)"/><path class="cls-6" d="M919.7,99.52l-55.17-14.7A1.81,1.81,0,0,1,863,82.48a1.9,1.9,0,0,1,2.55-1.28l55.17,14.7a1.81,1.81,0,0,1,1.49,2.34A2.28,2.28,0,0,1,919.7,99.52Z"/><ellipse class="cls-6" cx="835.57" cy="76.37" rx="6.6" ry="6.82" transform="translate(545.56 863.7) rotate(-75)"/><rect class="cls-6" x="660.29" y="92.82" width="29.39" height="6.82" transform="translate(407.35 723.32) rotate(-75)"/><rect class="cls-6" x="628.91" y="166.35" width="52.61" height="6.82" transform="translate(321.67 758.72) rotate(-75)"/><rect class="cls-6" x="1033.58" y="274.78" width="52.61" height="6.82" transform="translate(516.86 1229.97) rotate(-75)"/><rect class="cls-6" x="611.08" y="232.88" width="52.61" height="6.82" transform="matrix(0.26, -0.97, 0.97, 0.26, 244.19, 790.81)"/><polygon class="cls-4" points="831.73 60.97 838.12 73.11 825.76 79.5 819.37 67.57 831.73 60.97"/><polygon class="cls-3" points="824.7 60.33 829.6 69.06 820.86 73.53 816.18 64.8 824.7 60.33"/><path class="cls-3" d="M844.76,764.87a2107,2107,0,0,1-251.51-67.29c20-90.24,42.18-174.88,67.28-251.51Q787.9,474.51,912,513.35C895,595.86,872,680,844.76,764.87Z"/><polygon class="cls-7" points="735.68 589.23 750.31 534.5 769.64 539.7 755.02 594.42 735.68 589.23"/><path class="cls-8" d="M749,516a24.89,24.89,0,0,1,.84-10.18c4.52-15.83,20-27.62,36.38-28.75s32.81,7.83,41.83,21.59c5.27,7.92,8.18,17.25,12.69,25.64s11.47,16.21,20.87,18.19c13.82,2.83,28.86-8.39,41.64-2.64,6.11,2.83,10.06,9,15,13.67s12.6,8.3,18.33,4.62c-3.48,9.43-2.82,13.48-3.76,20.46a24.8,24.8,0,0,1-13.25,18.66c-8.84,4.43-14,10.09-20.12,17.82-5,6.31-6,14.7-8,22.43s-6,16-13.72,18.38c-10.44-.28-15.7-12.72-24.44-18.28-6.39-4.06-14.48-4.25-21.62-6.51A41.07,41.07,0,0,1,804,599.9c-1-5.94-.85-12.07-1.6-18.1a54.7,54.7,0,0,0-22.94-38C768,536,751.26,530.33,749,516Z"/><path class="cls-7" d="M797.42,497.15c-5.36-6.5-8.46-7.82-16.26-9.33-.76-.1-5.08-.38-5.83-.38-9.21,0-14.48,3-20.21,9s-9.12,13.85-11.19,22.15c-1.69,7.16-2.07,15.46,2.45,21.87a22.56,22.56,0,0,0,9.68,7.35,29.6,29.6,0,0,0,25.57-2.07c7.42-4.24,13-11.31,16.73-19.33C802.49,517.42,804.28,505.26,797.42,497.15Z"/><path class="cls-8" d="M762,499.22a18,18,0,0,0-2.82,2.08,15.24,15.24,0,0,0,1.69,2.83,150.7,150.7,0,0,0,28.3,25.07,89,89,0,0,0,14-38.18c-3.38-2-6.95-4.14-10.81-3.86a14.31,14.31,0,0,0-3.57.75A148.66,148.66,0,0,0,762,499.22Z"/><path class="cls-8" d="M758.22,498.47c-.19-.09-.28-.19-.28-.28a.78.78,0,0,1,.19-.76l7.89-4.14a60.82,60.82,0,0,1,8-3.68,31.74,31.74,0,0,1,14.85-1.6c.29.09.47.28.38.56a.58.58,0,0,1-.56.47,32.14,32.14,0,0,0-14.29,1.51,47.83,47.83,0,0,0-7.8,3.68l-7.9,4.15C758.5,498.47,758.41,498.56,758.22,498.47Z"/><path class="cls-9" d="M757,513.74a16.84,16.84,0,0,1-11.28-10.56c-.19-.56-.38-1-.57-1.69a.54.54,0,0,1,1-.29c.19.57.28,1,.47,1.61a15.81,15.81,0,0,0,11.28,10.08c.28.1.47.29.37.57a.59.59,0,0,1-.56.47C757.56,513.84,757.28,513.84,757,513.74Z"/><path class="cls-8" d="M866.13,535.14c-6.2-1.7-11.56-5.19-14.66-10.75-7.62-13.95-16.26-29.69-30.27-40-12.88-9.42-32.9-13.29-46.53-2.63-.19.09-.56.18-.75-.1s-.19-.56.09-.75c13.91-11,34.69-7,47.75,2.54,14.2,10.37,23.22,27,30.55,40.25,6.11,11.22,21.91,13.39,34.31,9.81h.19c6.3-1.79,14.29-4.15,18.52,1.13a32.71,32.71,0,0,0,32.71,11c.19,0,.57-.19.85-.19a.53.53,0,0,1,.56.47.53.53,0,0,1-.47.57c-.19,0-.37.09-.75.09a33.57,33.57,0,0,1-33.75-11.31c-3.76-4.72-11.28-2.55-17.39-.76h-.18A37.94,37.94,0,0,1,866.13,535.14Z"/><polygon class="cls-6" points="855.13 624.22 847.9 619.6 852.78 627.9 855.13 624.22"/><polygon class="cls-6" points="822.61 603.67 844.61 640.9 848.84 634.02 835.86 612.15 822.61 603.67"/><polygon class="cls-6" points="797.32 587.74 836.43 653.91 840.66 647.13 810.67 596.22 797.32 587.74"/><polygon class="cls-6" points="787.55 597.92 828.25 666.92 832.57 660.04 791.78 591.04 787.55 597.92"/><polygon class="cls-6" points="779.37 610.93 820.17 679.93 824.4 673.05 783.6 604.05 779.37 610.93"/><polygon class="cls-10" points="771.19 623.84 800.52 673.52 813.77 681.91 775.52 617.06 771.19 623.84"/><polygon class="cls-10" points="763.01 636.95 775.23 657.68 788.58 665.98 767.34 630.07 763.01 636.95"/><polygon class="cls-10" points="757.19 646.18 763.3 650.05 759.16 643.07 757.19 646.18"/><path class="cls-1" d="M775.23,728c.19-1.51,18.62,19.7,29.43-8.49,14.47-37.61,3.66-81.44.56-121.69-.85-11.69-1.88-26.12-12.5-30.55-8.09-3.48-21.9.19-30.08,3.87-8,3.68-11.94,6.5-19.46,1.32-2.35-1.7-1.79-5-1.79-5s-21.8-3.86-29.42.76-11.37,7-16.07,14.61l-53.3,86.53,142.5,38.09Z"/><path class="cls-7" d="M710.19,581.9c2.06,3.48,4.88,7.44,8.93,7.35.94-.47-.38-6.32-2.17-8.77a16,16,0,0,0-2.63-2.36c-1.69-1.32-3-5.75-4.32-5a22.17,22.17,0,0,1-10,4.71,18.78,18.78,0,0,1,5.55-7.35c3.38-2.45,3.95-4,7.33-6.32,2.35-1.69,7.05-5.18,6.3-7.92-.66-2.54-11.94,4.81-17.67,11.13-1.88,2.17-3.95,5.28-8.18,8.58,2.26-3.3,2.82-5.19,4.32-7.17,2.26-2.92,2.54-4.71,4.8-7.63,1.78-2.27,4.42-6.32,2.54-8.49-.94-1.13-2.64,1.13-3.48,2.36-5.27,7.73-8.09,13.67-13.44,21.49.75-6.6-.85-6.5-.19-13.1.09-.94.09-6.79-.38-7.73a1.67,1.67,0,0,0-2.54-.47,6.16,6.16,0,0,0-.84,3.49c0,6.88.66,14.51,0,20.73a6.33,6.33,0,0,0-1.6,1.89c-2.44,4-6.11,7.07-9.78,10.18a14.87,14.87,0,0,0-3.94,2.26,19.73,19.73,0,0,0-4.33,6,369,369,0,0,1-43,60.7c9.12,3.11,18.05,6.32,27.17,9.43a3.67,3.67,0,0,0,2.82.19,3.47,3.47,0,0,0,1.5-2.27c5.64-16.11,11.28-32.33,15-49.11.75-3.39,1.5-6.88,3.38-9.8.1-.19.29-.28.29-.47h.09c6.58-2.26,13.07-4.53,19.65-6.79a8.07,8.07,0,0,1,2.06-.47,7.76,7.76,0,0,1,2.07.28c6.3,1.42,17.11,9.9,17.49,8,.37-3.2-1.51-5.75-3.86-7.82a27,27,0,0,0-8.36-4.71,3.72,3.72,0,0,1-1.7-1.13,4,4,0,0,1-.37-2.08l.28-5.28a6.33,6.33,0,0,1,.66-3C701.54,582,706.8,583.69,710.19,581.9Z"/><path class="cls-2" d="M635.36,702.37c-12.41-1.7-16.82-13.3-19.64-25.46-.76-3,4.6-17.91,8.93-25.07,9.87-16.5,20.3-28.56,31.86-44,4.42,1.6,11.66,4,16.17,5.65-1,11.22-5,21.68-6,32.9-.65,6.41-6.76,26.11-11.65,35.16C650.5,690.11,644.29,703.59,635.36,702.37Z"/><path class="cls-7" d="M798.45,683.14c0-3.21-2.54-5.75-4.7-8.11-11.84-12.63-18.89-29-25.47-45.15a48.27,48.27,0,0,0-5.45-10.75c-2-5.75-4.52-11.41-4.61-17.34a5.17,5.17,0,0,0-.38-2.46c2.54-5.75,6.87-11.87,10.34-18a7.18,7.18,0,0,0,1-3.39c-.19-1-1.51-1.32-2.45-.85s-3.85,5.56-4.13,6.5c-2.73,6.13-4,5.19-6.68,11.31-.65-9.33-.18-15.83-.94-25.35-.09-1.51-.37-4.34-1.78-3.77-2.82.94-2.45,5.75-2,8.67.47,3.67-.18,5.28.29,8.95.37,2.36-.1,4.25.18,8.39-2-4.9-2.16-8.67-2.72-11.5-1.79-8.39-7.9-20.36-9.78-18.47-2.07,2,.38,7.44,1.51,10,1.69,3.77,1.5,5.37,3.19,9.14a17.64,17.64,0,0,1,1.13,9.15,22,22,0,0,1-6.2-9.05c-.66-1.23-4.05,1.88-6.21,2.16a10.4,10.4,0,0,0-3.48.76c-2.72,1.22-6.76,5.65-6.2,6.5,3.38,2.08,7.8.19,11.37-1.88,2,3.3,7.34,4.52,7.34,8.29a8.38,8.38,0,0,1-.94,2.93c-.85,1.5-1.6,3.2-2.45,4.71a5.51,5.51,0,0,1-1.31,1.6c-.57.38-1.32.19-2,.19a27.34,27.34,0,0,0-9.59-.09c-3.1.75-5.92,1.88-7.23,4.9-.57,1.79,12.87-.19,19.17,1.79a5.89,5.89,0,0,1,3.39,2.35c3.94,4.53,2.44,3.21,5.07,6.23a11,11,0,0,0,1.69,1.88c2.45,2.17,5.55,3.3,8,5.56,4.23,3.87,5.46,9.9,6.3,15.56,2.73,16.59,5.45,33,8.27,49.58,5.46-.66,11-1.32,16.45-2.07C791.4,691,798.45,688.7,798.45,683.14Z"/><path class="cls-2" d="M795.07,735.64c3.95-2.45,6.67-8.11,7.89-14.14,1.32-6.22,1.41-12.91,1.51-19.51.19-9.62-9.5-29.69-17.2-39.31-1.51-2-15.8-26.11-15.8-26.11S760.85,647.88,756,650a222.63,222.63,0,0,0,7,64.29c.94,3.49,1.88,6.88,3.57,9.62,2.54,4.33,6.3,6.41,9.78,8.29C782.57,735.64,789.33,739.13,795.07,735.64Z"/><path id="texture_22_-i4" data-name="texture 22 -i4" class="cls-4" d="M778.15,688.79c-.1.19,0,.28.19.47h0c.18.1.28,0,.47-.19h0a.35.35,0,0,0-.19-.47h0c-.19,0-.38,0-.47.19Zm-5.92,29.41c-.19,0-.29.19-.19.47s.19.29.47.19h0c.19,0,.28-.19.19-.47a.4.4,0,0,0-.47-.19Zm6.86-3.2c-.19,0-.28.19-.19.47s.19.28.47.19h0c.19,0,.28-.19.19-.47h0c-.1-.19-.28-.19-.47-.19Zm-7.24-13.2c0,.19.09.19.28.38.19,0,.19-.1.38-.29,0-.18-.1-.18-.28-.28S771.85,701.52,771.85,701.8Zm7.61-.28c0,.19.1.19.29.37.18,0,.18-.09.37-.28,0-.19-.09-.19-.28-.28a.24.24,0,0,0-.38.19Zm4.33,26.86a.33.33,0,0,0,.47.47h0a.44.44,0,0,0,0-.47h0C784.16,728.29,783.88,728.19,783.79,728.38Zm5.17-5.65a.41.41,0,0,0,0,.47.33.33,0,0,0,.47-.47h0a.3.3,0,0,0-.47,0Zm-17.11-28.38a.28.28,0,1,0,.28-.28h0c-.19-.09-.28.09-.28.28Zm6.77.29a.3.3,0,0,0,.28.28c.09,0,.28,0,.28-.28,0-.1,0-.29-.28-.29h0c-.09.1-.28.1-.28.29Zm2.63,26.67c-.09.1-.19.29-.09.38s.28.19.37.09h0c.1-.09.19-.28.1-.37h0c-.1-.19-.29-.29-.38-.1Zm5.08-4.52c-.1.09-.19.28-.1.38s.28.18.38.09h0c.09-.09.19-.28.09-.38h0c-.09-.19-.28-.28-.37-.09Zm-9.31-9.9c-.19,0-.28.19-.19.47s.19.28.47.19.28-.19.19-.47-.28-.19-.47-.19Zm-11.66-9.33c-.18,0-.28.19-.18.47s.18.28.47.19.28-.19.18-.47-.28-.19-.47-.19Zm7.43-2.55c-.19,0-.28.19-.19.47s.19.29.47.19.28-.19.19-.47a.34.34,0,0,0-.47-.19Zm7.43-2.73c-.19,0-.29.19-.19.47s.19.28.47.19.28-.19.19-.47A1,1,0,0,0,780.22,692.28Zm7.14,30.16c-.09.19,0,.29.19.48s.28,0,.47-.19,0-.29-.19-.47-.47,0-.47.18Zm-4.89-41c-.19,0-.28.09-.37.28m-5.83,27.62a.33.33,0,1,0,.47.47.44.44,0,0,0,0-.47h0c-.1-.19-.38-.09-.47,0Zm-4.51-3a.41.41,0,0,0,0,.47.44.44,0,0,0,.47,0,.32.32,0,0,0,0-.47.4.4,0,0,0-.47,0Zm6-5a.44.44,0,0,0,0,.47.31.31,0,0,0,.47,0,.41.41,0,0,0,0-.47c0-.1-.28-.19-.47,0Zm-2.44-13.76c-.19,0-.28.18-.19.47h0c0,.19.19.28.47.19s.28-.19.19-.48-.19-.28-.47-.18Zm3,1.13c-.1.09-.19.28-.1.37s.28.19.38.1.19-.28.09-.38h0a.22.22,0,0,0-.37-.09Z"/><path class="cls-3" d="M927.93,462.08A2107.12,2107.12,0,0,1,676.41,394.8c20-90.25,42.19-174.89,67.29-251.52,84.9,19,168.48,41.39,251.51,67.29C978.12,293.07,955.43,377.17,927.93,462.08Z"/><path class="cls-8" d="M868.71,177.22c-2.78-1.47-5.47-2.95-8.59-3.39-4.6-.61-9.12,1.22-13.28,3.31a61.39,61.39,0,0,0-14.15,9.3c-10.07,9.05-15.71,22.1-18.66,35.23s-3.82,26.71-5.91,40.1a205.21,205.21,0,0,1-10.5,40.62,269.35,269.35,0,0,1,89.49,27.05c-11.89-33.75-13.88-72.37,2.09-104.38,4.68-9.48,11-20.44,6.16-29.83-2.69-5.13-8.07-8.18-13.28-11C877.57,182,873.05,179.57,868.71,177.22Z"/><path class="cls-7" d="M852.57,230.54a2.29,2.29,0,0,1,.78.44c.61.69.17,2-.26,3a122,122,0,0,0-11.29,57.24c-8.68-11-25.17-6.7-36.8-13.31,5.82-7.31,7.64-17.31,10-26.62,2.87-11,4.52-26.18,9.72-36.09C833.21,218.89,844.15,227,852.57,230.54Z"/><path class="cls-7" d="M882.43,203.49c-1.65,9.74-6.08,17.49-12.07,25.31-6.94,9.14-17.19,16.44-28.73,17.23s-22-3.48-24.48-14.79c-1-4.61-.26-11.57,1-16.18,3.65-12.52,10.07-25,21.62-31.05,6.85-3.65,14.49-9.4,22-8,7.64,1.3,17.18,7.48,19.79,14.78C883.81,197,883.47,197.23,882.43,203.49Z"/><path class="cls-4" d="M830.35,223.41c1,2.09,2.95,3.48,4.94,4.79a21.39,21.39,0,0,0,10.07,3.3,14.06,14.06,0,0,0,9.9-3.39,23.41,23.41,0,0,1-6.25-1.57c-9.55-3.82-15.45-13.39-19.62-22.79a52.9,52.9,0,0,0-.95,11.05A24.13,24.13,0,0,0,830.35,223.41Z"/><path class="cls-6" d="M887.72,222.19a71.44,71.44,0,0,0-38.28-43.92c-4,2.09-8,4.09-12,6.09,20.75,8.69,34.46,28.87,43.23,49.66,3.73-3,7.73-7.22,6.68-11.91C886.51,228.89,887,215.41,887.72,222.19Z"/><path class="cls-8" d="M853.09,331.18c1-37.31,4.16-43.75,14-79.67,2.26-8,7.38-41.15,4.17-52.45-4.34-15.83-11-20.1-17.88-24.79,21.78-10.18,39.49,12,42.18,22.61s.52,21.83-1.56,32.62A1046.1,1046.1,0,0,0,879.3,337.36,201.9,201.9,0,0,0,853.09,331.18Z"/><path class="cls-8" d="M864.28,240.29h0a.64.64,0,0,0,.79-.44c3.21-12.35,3.73-24.7,1.82-39.84-1.3-9.65-6.6-21-10.5-24.7a.46.46,0,0,0-.79.09.45.45,0,0,0,.09.78c3.73,3.48,8.94,14.79,10.16,24,2,15.05,1.39,27.22-1.74,39.4C863.76,239.85,863.94,240.11,864.28,240.29Z"/><path class="cls-8" d="M861.59,234h0c.44,0,.7-.17.79-.52,2.51-19.48-.35-42-7.56-58.62a.6.6,0,1,0-1.12.43c7.11,16.53,9.89,38.79,7.46,58.1C861.07,233.68,861.33,233.94,861.59,234Z"/><path class="cls-8" d="M886.51,337.71h0a.63.63,0,0,0,.78-.44c7.46-36.88,10.93-69.76,11.8-109.68v-1c.18-9.57.44-24.09-4.42-31.92-.18-.35-.53-.35-.87-.26s-.35.52-.26.87c4.68,7.48,4.42,21.83,4.25,31.22v1c-.69,39.92-4.25,72.63-11.72,109.51A.79.79,0,0,0,886.51,337.71Z"/><path class="cls-7" d="M805,257.42c-1.39,6.52-2.78,13.05-4.17,19.49a.83.83,0,0,0,.18.86,1.16,1.16,0,0,0,.52.18c6.94.87,2.43,33.14,9.29,34.88,7.11,1.83,25.6-26.88,32.46-24.18,1-3.83,2.08-7.74,3-11.74.34-1.31,1.47-4.88,1.47-4.88a13.89,13.89,0,0,0-2.43-3c-3.82-3.22-10.07,2.7-14.23.09-2.26-1.39-2.78-4.79-5.12-5.83-3.3-1.65-6.86,2.35-10.51,2.43-2.25.09-4.42-1.3-6-2.95A53,53,0,0,0,805,257.42Z"/><path class="cls-11" d="M954.73,299.09c5.9-10.62,10.59-9.75,21.18-15.92,1.74-1,3.73-2.7,4.86-1.13.44,4.52-11.89,8.78-15.45,18.26,15.71-4.26,36.89-2.61,48.87,1.48,4.17,1.39-4.17,2.87-14.32,1.74-9.29-1-15.63,1.05-24.83,3-.87,1.22,5.12.35,6.6.43,14.15.35,24.22.35,38.71,3,4.08,1.65-5,6.87-9.29,7.3-10.59,1.14-22,1.05-32.55,2.27,1.31,5.3,30.56-3.57,24,1.3a46.36,46.36,0,0,1-39.41,5.39c-2.17-.69-4.34-1.56-6.6-1.3a9.24,9.24,0,0,0-6.77,4.26c-19.35,32.88-39.06,63.67-53.38,84-1.56-4-1.82-37.93-5.21-40.54,12.94-18.35,29.6-25.31,42.27-43.75,5.56-8.09,11.29-13.66,15.72-19.57C950.22,308,955.6,297.78,954.73,299.09Z"/><path class="cls-8" d="M844.15,197.58a.63.63,0,0,0,.78-.44.62.62,0,0,0-.44-.78c-7.55-2.26-12.76-10.79-11.37-18.61a.6.6,0,0,0-.43-.7.54.54,0,0,0-.69.44c-1.48,8.61,4,17.57,12.15,20.09Z"/><path class="cls-6" d="M697,402.25c1.48-29.84,11.54-71,25.43-95.34,5.12-8.87,11.2-17.74,19.88-23.22,5.9-3.83,12.76-5.92,19.53-7.57a149.52,149.52,0,0,1,39.84-3.82q4.81,16.95,9.64,33.92c8.33-6,32.63-21.49,32.63-21.49s35.24,21.14,41.67,38.1c7.46,19.75,4.42,41.84.08,62.54-3.64,17.14-19.18,40.62-28.64,59.76L697,402.25Z"/><path class="cls-6" d="M841.63,441c1-7.13,2.43-14.35,3.39-16.44,7.29-15.83,24.56-32.36,36.62-44.88,23.27-24.18,28.22-34.1,51.74-55.32a58,58,0,0,0,24.39,18.35,1007.36,1007.36,0,0,1-91.14,105l-25-6.7Z"/><path class="cls-7" d="M78.66,357.44c-20.4-13.77-24.67-39-36.33-59.14-1.94-2.71-3.11-.58-3.5,1.94-6.6-4.07-5,8.15-4.47,11.64a98.35,98.35,0,0,0,4.47,18.41c3.31,9.31,12.05,19.78,17.68,28.12-9.13-.58-13.6-14.54-19.43-12.6-7.19,2.71,12.44,23.07,19.43,25.59,2.92,1,15.74,5.81,18.27,4.26C81.19,372.37,72.64,360.54,78.66,357.44Z"/><path class="cls-7" d="M546.54,203.11c16.51,2.71,59.45-69.22,47-78.91-3.3-2.72-4.47,4.46-7.19,7.75-1-.77-9.52,2.91-10.3,4.07-7.77,8.92-10.3,23.46-16.13,33-7.57,12.8-19,21.52-30.89,30.64C535.66,208.34,540.51,214.93,546.54,203.11Z"/><path class="cls-7" d="M552.37,204.85c17.68-6,49.15-32.76,40-35.87-8.74-2.91-18.84,14.74-44.69,28.7C549.65,198.07,551,206.21,552.37,204.85Z"/><path class="cls-6" d="M206.32,192.06a69,69,0,0,1-10.1-3.88,12.45,12.45,0,0,0-1.56-.78c-4.86-2.32-12-5.81-14-10.08a1,1,0,0,1,1.94-.78c1.56,3.69,8.75,7.18,13,9.12a11,11,0,0,0,1.56.77c5.05,2.52,12,5,16.51,4.66,13.21-1.17,22.15-4.66,28-11.06a47.71,47.71,0,0,0,3.89-4.65c1.75-2.13,3.69-4.46,5.63-6.59.78-1,1.75-1.94,2.72-3.1,2.33-2.72,4.86-5.63,8-7.56,7-3.88,17.29-6.4,27.78-6.6,5.83,0,16.91.39,25.26,4.27.59.39.59.77.39,1.36-.39.58-.78.58-1.36.38-8-3.87-18.65-4.46-24.48-4.26-10.1.19-20,2.52-26.62,6.4-2.91,1.55-5.25,4.46-7.58,7a22.49,22.49,0,0,1-2.91,3.1c-2,2.13-3.69,4.26-5.44,6.4-1.17,1.55-2.72,3.1-3.89,4.65-8.16,9.11-20.4,11.05-29.14,11.63A16.78,16.78,0,0,1,206.32,192.06Z"/><path class="cls-6" d="M169,205.24c18.27,6,39.83,11.63,55.77.58,19.23-13.57,20.2-45.76,41.58-55.26,12.82-5.62,27.59-.38,40.61,4.66,7.57,3.1,15.54,6.2,23.12,9.11A82.07,82.07,0,0,0,299,137.19c-15.16-7.57-35-9.7-46.44,2.32-9.32,9.7-9.52,24.82-15.93,36.45a38,38,0,0,1-27.4,18.42,36.74,36.74,0,0,1-31.08-11C172.51,181.39,163.18,203.49,169,205.24Z"/><ellipse class="cls-12" cx="324.42" cy="162.4" rx="24.43" ry="24.67" transform="translate(98.77 446.48) rotate(-78.13)"/><path class="cls-13" d="M72.25,537.36c-4.66-9.89-19.43-17.45-29.92-17.06-2.91.39-47.8,85.12-41.77,84.92,19.62-.77,41-19.19,52.26-34.9,9.52-13.57,3.5-10.66,13.6-26.56C67.78,541.63,72.64,538.53,72.25,537.36Z"/><path class="cls-13" d="M65.06,853.39c-8.74,6.4-11.46,21.14-8.16,31.41,1.17,3.49,94,31.22,92.29,23.66a59.89,59.89,0,0,0-35.94-40.91c-15.16-6.21-22.93-6.21-38.08-11.44C72.25,854.75,65.84,852.42,65.06,853.39Z"/><path class="cls-2" d="M345.63,325.84c-13.4-12.22-21.57-45-13.6-61.08C351.46,224.82,444.92,229.48,471,219c39.24-15.52,38.27-17.45,77.52-38.2a36.3,36.3,0,0,0,11.27,22.1c-15.74,27.15-28.17,38.2-45.08,59.72-15.15,19.39-24.09,23.85-41.58,41.3-17.48,17.25-66.06,41.88-90.74,39.74C365.45,342.12,358.07,337.27,345.63,325.84Z"/><path class="cls-14" d="M98.48,862.12c-14.76,1.74-29.34-2.33-36.72-15.12-6.61-11.06-8.16-28.12-8.55-40.91-.39-17.07-1.17-33.93-1.75-50.8-1-23.66-1.16-49.25,12.24-69C80.61,661.45,115.58,652.34,130,626c3.5-6,5.44-13,7.58-19.58Q153.28,553.46,169,500.33c5.06-17.06,10.3-34.51,20-49.63s24.67-27.53,42.55-30.25c23.51,28.7,112.3,51.38,140.48,75.62C355,543.18,328,594.75,287.54,637c-17.3,18-49.74,42.85-67.62,60.3-4.66,4.65-19.82,12.21-26,13.76-4.27,1-9.13.78-13.4,1.75-5.25,1.36-9.72,4.65-13.8,8.14C125.1,755.68,99.65,808.61,98.48,862.12Z"/><path class="cls-6" d="M299.78,457.68c-.59,40.71,19.82,61.26,4.27,98.88-19.82,48.08-82,105.28-124.16,135.72-7.57,4.07-20.4-12.22-32.06-16.29-42.94-14-56.54-81.43-89.57-112.06C52.82,559.08,61,537,67.59,534.26c16.32,1.75,33,3.88,47.6,11,14.57,7.56,26.82,21.72,27,38-.39-27.53-.58-55.64,5.25-82.78s18.65-53.32,40.22-70.77c21.56-17.26,53-23.66,77.91-11.44,8.55,4.26,16.13,10.27,23.32,16.48,3.69,2.91,7.38,6.2,9.13,10.66C300,449.73,299.78,453.8,299.78,457.68Z"/><path class="cls-5" d="M282.68,275c8.55-12.41,20.21-22.88,34.58-27.15,15-4.46,25.85-3.29,38.86.2,15,4.07,27.4,9.69,31.48,15.12,20.79,25.79,30.7,67.47,32.45,100.43,1,14.74-.78,32.77-3.11,47.31C406.25,478.62,374,529.22,347,563.73c-14.38,0-37.5-.77-59.07-9.11-11.07-4.46-21.95-8.73-33.22-12.6a137.94,137.94,0,0,1-71.89-57.2c-5.05-7.95-7.38-8.72-10.69-17.64-4.66-12.41-5.83-24.24-2.91-31.22,11.85-28.11,35.55-23.26,58.29-43.62,3.5-3.1,6.8-60.88,9.32-64.76C240.13,322.15,274.13,287.25,282.68,275Z"/><path class="cls-7" d="M354.76,275c-12.24-4.85-13.21-11.25-23.51-21.72-3.88-3.87-3.3-6.59-3.3-7.56a14.21,14.21,0,0,1,2.14-4.65,72.83,72.83,0,0,0,10.3-30.44c2.91,3.49,7,5.23,11.07,7.17,14.18,6,28.56,12.22,42.75,18.23-2.33,5.81-4.67,11.63-7,17.25C382.74,263.79,376.53,276,365.26,277,361.76,277.56,358.07,276.59,354.76,275Z"/><path class="cls-7" d="M342.72,172.09c8.74-6.6,26.81-9.31,36.91-4.08,9.91,5,13.22,14.55,17.1,25s2.92,23.85,2.14,35.1c-.39,6.2-1.55,13.38-6.41,17.45-6.22,5.43-15.55,3.88-23.71,1.94-8-1.94-15.73-4.08-22.92-7.76s-13.6-9.31-17.1-16.67c-5.44-11.44-2.33-25.21,3.11-36.65C334.56,181.2,337.86,175.77,342.72,172.09Z"/><path class="cls-6" d="M347.77,160.06c-15.54,2.91-29.53,15.9-30.12,31.61S321,223.85,335,231c-7.39-12.41-6-33.16,6.21-45.57,9.91-10.08,49.36,2.14,54.41-23.07-16.91,1.94-18.66,1.55-24.1,0C362.15,159.68,357.1,158.32,347.77,160.06Z"/><path class="cls-2" d="M332.61,265c2.53,5.81.59,13.18-.38,19.58-4.86,26-30.9,49.24-52.66,64.37-12.44,8.53-19.62,13.38-34.39,15.9-8.74,1.55-17.49,1.35-26.23,2.52-11.66,1.74-22.73,6.2-33.81,10.66-12.43,4.85-24.68,9.89-36.92,14.93C135,398.15,121.41,403.58,107,403.2a53,53,0,0,1-41.38-22.3,73.72,73.72,0,0,0,11.07-26,97.54,97.54,0,0,0,67.62-19.78c7.58-6,14.57-13.18,21.76-19.58,12.82-11.83,27.2-22.1,41.77-32,28.18-19.2,62-43.82,108.62-37.23C327.56,247.89,327.76,254.29,332.61,265Z"/><path class="cls-7" d="M547.51,199a90.76,90.76,0,0,0,13.21-16.68"/><path class="cls-4" d="M399.06,215.71c-8.35,5.62-16.32,5-24.67,2.91,2.91,5.23,8.35,13,14.77,13.18,10.68.2,9.9-8.14,10.1-15.32C400,215.52,397.51,214.74,399.06,215.71Z"/><path class="cls-7" d="M402.17,196.71c.78,7.37-7.77,14.15-15,11.83a51.15,51.15,0,0,0-2.72-20.94,19.71,19.71,0,0,0,1.94-1.94,13.16,13.16,0,0,1,.59,2.71C390.32,193.41,401.2,189.73,402.17,196.71Z"/><path class="cls-7" d="M325.62,209.51a13.84,13.84,0,0,0,6.22,4.26,21.62,21.62,0,0,0,10.49,1.55c.78-3.88,1.16-7.56.19-11.24-.77-3.69-3.3-7.18-7-8.34a9.49,9.49,0,0,0-10.11,3.1A10.06,10.06,0,0,0,325.62,209.51Z"/><path id="texture-2_11_-i11" data-name="texture-2 11 -i11" class="cls-4" d="M201.07,485.21c-.19-.2-.19-.39-.58-.39-.19.19-.39.19-.39.58.2.2.2.39.58.39h0c.39,0,.59-.39.39-.58Zm-29.92-38.78c0-.19.19-.58-.19-.58h0c-.2,0-.59-.19-.59.19h0c0,.2-.19.59.2.59,0,.19.19.19.58-.2Zm14,20.75c.19-.2.39-.58.19-.78s-.58-.39-.77-.19-.39.58-.2.77C184.36,467.18,184.75,467.18,185.14,467.18Zm60.82-20c.38-.2.38-1,.38-1.36a.93.93,0,0,0-1.16-.39h0c-.39.2-.39,1-.39,1.36,0,.58.58.77,1.17.39ZM227.3,459.62c.39-.2.39-1,.2-1.36s-1-.39-1.36-.39a1.11,1.11,0,0,0-.39,1.36h0A1.71,1.71,0,0,0,227.3,459.62Zm-18.65,12.21a1.12,1.12,0,0,0,.39-1.36h0a.94.94,0,0,0-1.17-.38h0c-.39.19-.39,1-.39,1.35C207.87,472,208.46,472.22,208.65,471.83Zm45.86,22.1a.76.76,0,0,0-1-.58.75.75,0,0,0-.58,1,.73.73,0,0,0,1,.58c.39,0,.59-.58.59-1Zm-21.77,4.27a.8.8,0,0,0-1.55.39.75.75,0,0,0,1,.58c.39,0,.58-.39.58-1Zm-25.06-74.84a1.7,1.7,0,0,0-.2-1.36,1.21,1.21,0,0,0-1.36.2h0a1.24,1.24,0,0,0,0,1.16h0C206.9,423.94,207.29,423.94,207.68,423.36ZM195.24,442a1,1,0,1,0-1.55-1.16c-.39.19-.19,1,.19,1.36h0c.59.38,1,0,1.36-.2ZM182.81,460.2a1.2,1.2,0,0,0-.2-1.36h0a1.22,1.22,0,0,0-1.36.19h0a1.7,1.7,0,0,0,.2,1.36c.58.58,1.36.39,1.36-.19Zm75.39,55.25c0-.38-.39-.77-.78-.58-.39,0-.78.39-.58.78,0,.39.39.77.77.58h0C258,516.23,258.39,515.84,258.2,515.45Zm-39.83-73.09a1.23,1.23,0,0,0,0-1.16.68.68,0,0,0-1,.19h0a1.23,1.23,0,0,0,0,1.16h0a.68.68,0,0,0,1-.19Zm-12.44,15.51c.19-.39.19-1-.19-1-.39-.19-.78-.19-1,.2h0a1.24,1.24,0,0,0,0,1.16h0a4.15,4.15,0,0,0,1.17-.39ZM193.3,473.19a1.2,1.2,0,0,0,0-1.17h0c-.39-.19-.78-.19-1,.2h0a1.23,1.23,0,0,0,0,1.16h0s.78,0,1-.19Zm44.11,8.33a.86.86,0,0,0,.39-1.16.87.87,0,1,0-1.56.78c.2.58.78.77,1.17.38Zm-17.49,9.31c.39,0,.58-.58.39-1.16h0a.87.87,0,0,0-1.17-.39.86.86,0,0,0-.39,1.16c.2.58.78.78,1.17.39Zm-40.61-58.16c.2-.39-.19-.78-.58-1h0c-.39-.2-.78.19-1,.58h0c-.2.39.19.77.58,1a1.07,1.07,0,0,0,1-.58Zm-5.83,18.8c.2-.39-.19-.77-.58-1s-.78.2-1,.58.19.78.58,1a.73.73,0,0,0,1-.58ZM275.1,502.66a1.12,1.12,0,0,0,.39-1.36c-.19-.58-.78-.58-1.36-.39a1.12,1.12,0,0,0-.39,1.36c.2.58,1,.58,1.36.39Zm-20,11.05a1.12,1.12,0,0,0,.39-1.36c-.2-.58-.78-.58-1.36-.39a1.11,1.11,0,0,0-.39,1.36.84.84,0,0,0,1.36.39ZM200.3,441.78c.19-.58-.2-1-.78-1.17s-1,.2-1.17.78.2,1,.78,1.16a1.21,1.21,0,0,0,1.17-.77Zm-6.42,22.1c.2-.58-.19-1-.77-1.16s-1,.19-1.17.77.2,1,.78,1.17a1.2,1.2,0,0,0,1.16-.78Zm44.3,10.47a1.53,1.53,0,0,0-.19-1.55,1.22,1.22,0,0,0-1.36.19,1.26,1.26,0,0,0,0,1.17h0c.58.77,1.36.58,1.55.19ZM224,492.19a.94.94,0,0,0-.19-1.36h0a1.25,1.25,0,0,0-1.17,0h0a1.23,1.23,0,0,0,0,1.16c.39.78.78.59,1.36.2Zm28.56-11.44a.82.82,0,1,0-1.16,0c.19.58,1,.39,1.16,0ZM237.6,498a1.59,1.59,0,0,0,0-1.35,1.18,1.18,0,0,0-1.16,0,1.58,1.58,0,0,0,0,1.35c.19.39.77.39,1.16,0Zm-30.89-30.44c.19-.58-.2-1-.78-1.16s-1,.2-1.17.78a.94.94,0,0,0,.59,1.16h0a1.2,1.2,0,0,0,1.36-.78Z"/></g></g></svg>