<svg width="389" height="146" viewBox="0 0 389 146" fill="none" xmlns="http://www.w3.org/2000/svg">
<g opacity="0.7">
<path d="M155.692 125.557H205.102V145.934H155.692V125.557Z" fill="#85DDAE"/>
<path d="M25.8281 73.2638H78.5403V145.934H25.8281V73.2638Z" fill="white"/>
<path d="M112.822 34.159H116.455V69.2412H112.822V34.159Z" fill="#A2E5C2"/>
<path d="M151.928 60.9982H136.537V76.7588H140.633V68.3839C140.633 66.4056 142.218 64.8229 144.2 64.8229C146.181 64.8229 147.767 66.4056 147.767 68.3839V76.7588H151.862L151.928 60.9982Z" fill="#C0EED5"/>
<path d="M144.264 64.757C142.283 64.757 140.697 66.3397 140.697 68.318V76.6929H147.897V68.318C147.831 66.4056 146.246 64.757 144.264 64.757Z" fill="white"/>
<path d="M150.077 58.4264H137.923L134.488 61.262H153.512L150.077 58.4264Z" fill="#A2E5C2"/>
<path d="M157.476 81.1111H131.45V107.752H138.386V93.5745C138.386 90.2773 141.094 87.5077 144.463 87.5077C147.832 87.5077 150.54 90.2114 150.54 93.5745V107.752H157.476V81.1111Z" fill="#C0EED5"/>
<path d="M144.463 87.4418C141.16 87.4418 138.386 90.1455 138.386 93.5086V107.687H150.54V93.5086C150.54 90.1455 147.766 87.4418 144.463 87.4418Z" fill="white"/>
<path d="M92.4121 62.2512H135.612V145.934H92.4121V62.2512Z" fill="#85DDAE"/>
<path d="M101.527 0.527552H89.3072C90.0338 0.32972 90.7604 0.131888 91.487 0H99.3476C100.074 0.197832 100.735 0.32972 101.527 0.527552ZM104.302 1.6486H86.4668C86.0705 1.78049 85.7402 1.97832 85.41 2.17615H105.227C104.962 1.97832 104.632 1.78049 104.302 1.6486ZM106.878 3.23126H83.6925C83.4283 3.42909 83.2301 3.56098 82.9659 3.75881H107.472C107.208 3.56098 107.076 3.36314 106.878 3.23126ZM108.265 4.81391H81.6448C81.4466 5.01174 81.2485 5.14363 81.0503 5.34146H108.529C108.463 5.20958 108.331 5.01174 108.265 4.81391ZM108.992 6.39657H79.9934C79.8613 6.5944 79.6631 6.72629 79.531 6.92412H109.19C109.124 6.72629 109.058 6.5944 108.992 6.39657ZM109.388 8.04517H78.6063C78.4741 8.243 78.342 8.37489 78.2099 8.57272H109.454C109.454 8.37489 109.388 8.17706 109.388 8.04517ZM109.586 9.56188H77.5494C77.4173 9.75971 77.3512 9.8916 77.2191 10.0894H109.652C109.652 9.95754 109.652 9.75971 109.586 9.56188ZM109.652 11.2105H76.6246C76.5585 11.4083 76.4264 11.5402 76.3604 11.738H109.652C109.652 11.5402 109.652 11.4083 109.652 11.2105ZM109.388 12.991C109.454 12.925 109.454 12.8591 109.454 12.7931H75.964C75.898 12.991 75.8319 13.1229 75.7659 13.3207H109.19C109.19 13.1888 109.322 13.1229 109.388 12.991ZM107.208 14.5736C107.34 14.5077 107.406 14.4417 107.538 14.4417H75.4356C75.3695 14.6396 75.3695 14.7715 75.3035 14.9693H106.614C106.746 14.7715 106.944 14.7055 107.208 14.5736ZM105.16 15.9584H75.0393C74.9732 16.1563 74.9732 16.2882 74.9732 16.486H104.632C104.764 16.3541 104.962 16.1563 105.16 15.9584ZM103.707 17.5411H74.775C74.775 17.7389 74.709 17.8708 74.709 18.0687H103.311C103.443 17.9368 103.509 17.7389 103.707 17.5411ZM102.65 19.1897H74.709V19.7173H102.386C102.452 19.5194 102.584 19.3216 102.65 19.1897ZM101.99 20.7724H74.775C74.775 20.9702 74.8411 21.1021 74.8411 21.2999H101.858C101.858 21.1021 101.99 20.9042 101.99 20.7724ZM101.594 22.355H75.0393C75.1053 22.5528 75.1053 22.7507 75.1714 22.8826H101.527C101.527 22.6847 101.594 22.5528 101.594 22.355ZM101.461 23.9377H75.5017C75.5677 24.1355 75.6338 24.3333 75.6998 24.4652H101.461C101.461 24.3333 101.461 24.1355 101.461 23.9377ZM76.4264 26.0479H101.594C101.527 25.85 101.527 25.7182 101.527 25.5203H76.1622C76.2943 25.7182 76.3604 25.916 76.4264 26.0479ZM77.4833 27.6305H101.99C101.924 27.4327 101.858 27.3008 101.858 27.103H77.087C77.2191 27.3008 77.3512 27.4986 77.4833 27.6305ZM78.9365 29.2791H102.32C102.32 29.0813 102.32 28.9494 102.254 28.7516H78.342C78.6062 28.9494 78.8044 29.0813 78.9365 29.2791ZM80.9182 30.7299C80.9842 30.7958 81.0503 30.7958 81.1164 30.8618H101.792C101.924 30.7299 101.99 30.5321 102.122 30.3342H80.3237C80.5219 30.4661 80.72 30.664 80.9182 30.7299ZM85.6081 32.4444H99.0173C99.5458 32.3126 100.008 32.1147 100.537 31.9169H83.6265C84.221 32.1147 84.9476 32.3126 85.6081 32.4444Z" fill="#C0EED5"/>
<path d="M148.03 54.2719C148.691 53.8762 149.285 53.3487 149.814 52.7552H149.748L147.37 50.3812L150.672 49.5239L151.333 50.1834C151.531 49.5239 151.729 48.8645 151.729 48.205L150.937 48.4029L148.559 46.0289L151.465 45.3035C150.805 43.1273 149.153 41.3469 147.105 40.4236L147.832 41.149L144.529 42.0063L142.482 39.962C142.085 40.028 141.755 40.1599 141.359 40.2918L143.406 42.336L140.104 43.1933L138.716 41.8085C138.452 42.0063 138.254 42.2701 137.99 42.5339L138.915 43.4571L136.999 43.9846C136.801 44.3803 136.603 44.7759 136.471 45.1716L139.773 44.3143L142.151 46.6883L138.849 47.5456L136.471 45.1716C136.338 45.5673 136.272 45.897 136.206 46.2927L137.726 47.8094L136.074 48.205C136.074 48.5348 136.14 48.8645 136.206 49.1942L138.584 48.6007L140.962 50.9747L137.66 51.832L136.801 50.9747C137.593 52.5573 138.849 53.8762 140.5 54.6675L138.452 52.6233L141.755 51.766L144.133 54.14L141.16 54.8654C141.887 55.1292 142.68 55.261 143.472 55.327L144.992 54.9313L145.256 55.1951C145.652 55.1292 146.049 54.9973 146.379 54.9313L146.115 54.6675L148.03 54.2719ZM149.814 48.7326L146.511 49.5899L144.133 47.2159L147.436 46.3586L149.814 48.7326ZM148.625 41.9404L151.003 44.3143L147.7 45.1716L145.322 42.7976L148.625 41.9404ZM140.896 43.9187L144.199 43.0614L146.577 45.4354L143.274 46.2927L140.896 43.9187ZM139.707 48.271L143.01 47.4137L145.388 49.7877L142.085 50.645L139.707 48.271ZM142.944 51.5022L146.247 50.645L148.625 53.0189L145.322 53.8762L142.944 51.5022Z" fill="#A2E5C2"/>
<path d="M65.3281 90.0795H118.04V146H65.3281V90.0795Z" fill="#C0EED5"/>
<path d="M95.5817 73H42.9355L65.3283 90.2773H117.974L95.5817 73Z" fill="#A2E5C2"/>
<path d="M185.417 114.677H133.828L155.758 125.821H207.348L185.417 114.677Z" fill="#58BE88"/>
<path d="M0 28.6856H52.7122V145.934H0V28.6856Z" fill="#C0EED5"/>
<path d="M80.7197 98.3225H87.5234V135.515H80.7197V98.3225Z" fill="white"/>
<path d="M93.3359 98.3225H100.14V135.515H93.3359V98.3225Z" fill="white"/>
<path d="M105.887 98.3225H112.69V135.515H105.887V98.3225Z" fill="white"/>
<path d="M161.373 112.237H128.609V145.934H137.329V127.931C137.329 123.711 140.764 120.282 144.991 120.282C149.219 120.282 152.654 123.711 152.654 127.931V145.934H161.373V112.237Z" fill="#C0EED5"/>
<path d="M144.595 120.282C140.367 120.282 136.933 123.711 136.933 127.931V145.934H152.324V127.931C152.257 123.711 148.823 120.282 144.595 120.282Z" fill="white"/>
<path d="M275.913 116.523H279.216V127.733H275.913V116.523Z" fill="white"/>
<path d="M117.974 91.6622L65.3281 145.934H117.974V91.6622Z" fill="#C0EED5"/>
<path d="M0 39.1707H28.5359V44.3143H0V39.1707Z" fill="white"/>
<path d="M0 48.6667H28.5359V53.8103H0V48.6667Z" fill="white"/>
<path d="M0 58.1626H28.5359V63.3062H0V58.1626Z" fill="white"/>
<path d="M0 67.6586H28.5359V72.8022H0V67.6586Z" fill="white"/>
<path d="M0 77.1545H28.5359V82.2981H0V77.1545Z" fill="white"/>
<path d="M0 86.6504H28.5359V91.794H0V86.6504Z" fill="white"/>
<path d="M0 96.1464H28.5359V101.29H0V96.1464Z" fill="white"/>
<path d="M0 105.642H28.5359V110.786H0V105.642Z" fill="white"/>
<path d="M0 115.138H28.5359V120.282H0V115.138Z" fill="white"/>
<path d="M0 124.634H28.5359V129.778H0V124.634Z" fill="white"/>
<path d="M10.2383 32.5764L29.9888 137.823H46.1063V33.3017L10.2383 32.5764Z" fill="#C0EED5"/>
<path d="M160.779 114.413L130.195 145.934H160.779V114.413Z" fill="#C0EED5"/>
<path d="M156.485 85.1996L135.281 106.961H156.485V85.1996Z" fill="#C0EED5"/>
<path d="M151.598 62.7787L137.99 76.7588H151.598V62.7787Z" fill="#C0EED5"/>
<path d="M142.746 14.5736H144.926V38.9069H142.746V14.5736Z" fill="#A2E5C2"/>
<path d="M217.322 101.026H249.888V145.934H217.322V101.026Z" fill="white"/>
<path d="M249.954 111.907H282.519V145.934H249.954V111.907Z" fill="#C0EED5"/>
<path d="M268.647 100.894H236.082L249.954 111.907H282.519L268.647 100.894Z" fill="#58BE88"/>
<path d="M257.088 116.523H260.391V127.734H257.088V116.523Z" fill="white"/>
<path d="M263.165 116.523H266.468V127.734H263.165V116.523Z" fill="white"/>
<path d="M235.422 120.084C231.195 120.084 227.76 123.513 227.76 127.734V145.67H243.085V127.734C243.085 123.513 239.584 120.084 235.422 120.084Z" fill="#A2E5C2"/>
<path d="M189.909 62.2512H233.109V145.934H189.909V62.2512Z" fill="#C0EED5"/>
<path d="M197.044 78.3415C200.181 78.3415 202.725 75.8024 202.725 72.6703C202.725 69.5382 200.181 66.9991 197.044 66.9991C193.907 66.9991 191.363 69.5382 191.363 72.6703C191.363 75.8024 193.907 78.3415 197.044 78.3415Z" fill="white"/>
<path d="M211.972 78.3415C215.109 78.3415 217.653 75.8024 217.653 72.6703C217.653 69.5382 215.109 66.9991 211.972 66.9991C208.834 66.9991 206.291 69.5382 206.291 72.6703C206.291 75.8024 208.834 78.3415 211.972 78.3415Z" fill="white"/>
<path d="M226.9 78.4074C230.038 78.4074 232.581 75.8684 232.581 72.7363C232.581 69.6041 230.038 67.0651 226.9 67.0651C223.763 67.0651 221.22 69.6041 221.22 72.7363C221.22 75.8684 223.763 78.4074 226.9 78.4074Z" fill="white"/>
<path d="M200.742 83.7489H203.649V100.828H200.742V83.7489Z" fill="white"/>
<path d="M207.084 83.7489H209.99V100.828H207.084V83.7489Z" fill="white"/>
<path d="M213.426 83.7489H216.332V100.828H213.426V83.7489Z" fill="white"/>
<path d="M219.767 83.7489H222.673V100.828H219.767V83.7489Z" fill="white"/>
<path d="M226.108 83.7489H229.015V100.828H226.108V83.7489Z" fill="white"/>
<path d="M193.41 117.38H196.317V134.46H193.41V117.38Z" fill="white"/>
<path d="M199.752 117.38H202.658V134.46H199.752V117.38Z" fill="white"/>
<path d="M206.094 117.38H209V134.46H206.094V117.38Z" fill="white"/>
<path d="M212.435 117.38H215.341V134.46H212.435V117.38Z" fill="white"/>
<path d="M218.775 117.38H221.682V134.46H218.775V117.38Z" fill="white"/>
<path d="M233.109 81.309L189.909 116.259H233.109V81.309Z" fill="#C0EED5"/>
<path d="M189.909 110.522L233.109 145.472H189.909V110.522Z" fill="#C0EED5"/>
<path d="M154.305 76.6929H133.696L127.883 81.5068H160.052L154.305 76.6929Z" fill="#A2E5C2"/>
<path d="M336.353 98.916C328.625 98.916 322.35 105.181 322.35 112.896V145.67H350.357V112.83C350.357 105.181 344.082 98.916 336.353 98.916Z" fill="white"/>
<path d="M366.409 84.2104H306.364V145.67H322.35V112.83C322.35 105.115 328.625 98.85 336.353 98.85C344.082 98.85 350.357 105.115 350.357 112.83V145.67H366.343L366.409 84.2104Z" fill="#C0EED5"/>
<path d="M274.195 50.579H317.065V145.934H274.195V50.579Z" fill="#85DDAE"/>
<path d="M365.55 84.804H307.157L294.475 74.121H378.233L365.55 84.804Z" fill="#C0EED5"/>
<path d="M293.88 59.1517H317.065V63.3062H293.88V59.1517Z" fill="white"/>
<path d="M293.88 66.8672H317.065V71.0217H293.88V66.8672Z" fill="white"/>
<path d="M293.88 74.5826H317.065V78.7371H293.88V74.5826Z" fill="white"/>
<path d="M293.88 82.2981H317.065V86.4526H293.88V82.2981Z" fill="white"/>
<path d="M293.88 90.0135H317.065V94.168H293.88V90.0135Z" fill="white"/>
<path d="M293.88 97.729H317.065V101.883H293.88V97.729Z" fill="white"/>
<path d="M293.88 105.444H317.065V109.599H293.88V105.444Z" fill="white"/>
<path d="M293.88 113.16H317.065V117.314H293.88V113.16Z" fill="white"/>
<path d="M293.88 120.941H317.065V125.096H293.88V120.941Z" fill="white"/>
<path d="M293.88 128.657H317.065V132.811H293.88V128.657Z" fill="white"/>
<path d="M308.743 53.8103L292.691 139.34H279.612V54.4038L308.743 53.8103Z" fill="#85DDAE"/>
<path d="M157.409 106.631H131.45L124.184 112.698H164.676L157.409 106.631Z" fill="#A2E5C2"/>
</g>
</svg>
