<svg width="76" height="113" viewBox="0 0 76 113" fill="none" xmlns="http://www.w3.org/2000/svg">
<circle cx="58.1173" cy="4.47059" r="4.47059" transform="rotate(90 58.1173 4.47059)" fill="#C0EED5"/>
<circle cx="58.1173" cy="19.6018" r="4.47059" transform="rotate(90 58.1173 19.6018)" fill="#C0EED5"/>
<circle cx="58.1183" cy="63.62" r="4.47059" transform="rotate(90 58.1183 63.62)" fill="#C0EED5"/>
<circle cx="58.1183" cy="78.7512" r="4.47059" transform="rotate(90 58.1183 78.7512)" fill="#C0EED5"/>
<circle cx="31.2941" cy="4.47059" r="4.47059" transform="rotate(90 31.2941 4.47059)" fill="#C0EED5"/>
<circle cx="31.2941" cy="19.6018" r="4.47059" transform="rotate(90 31.2941 19.6018)" fill="#C0EED5"/>
<circle cx="31.2941" cy="63.62" r="4.47059" transform="rotate(90 31.2941 63.62)" fill="#C0EED5"/>
<circle cx="31.2941" cy="78.7512" r="4.47059" transform="rotate(90 31.2941 78.7512)" fill="#C0EED5"/>
<circle cx="4.47081" cy="4.47059" r="4.47059" transform="rotate(90 4.47081 4.47059)" fill="#C0EED5"/>
<circle cx="4.47081" cy="19.6018" r="4.47059" transform="rotate(90 4.47081 19.6018)" fill="#C0EED5"/>
<circle cx="4.47081" cy="63.62" r="4.47059" transform="rotate(90 4.47081 63.62)" fill="#C0EED5"/>
<circle cx="4.47081" cy="78.7512" r="4.47059" transform="rotate(90 4.47081 78.7512)" fill="#C0EED5"/>
<circle cx="58.1173" cy="34.0452" r="4.47059" transform="rotate(90 58.1173 34.0452)" fill="#C0EED5"/>
<circle cx="58.1173" cy="49.1764" r="4.47059" transform="rotate(90 58.1173 49.1764)" fill="#C0EED5"/>
<circle cx="58.1173" cy="93.1946" r="4.47059" transform="rotate(90 58.1173 93.1946)" fill="#C0EED5"/>
<circle cx="58.1173" cy="108.326" r="4.47059" transform="rotate(90 58.1173 108.326)" fill="#C0EED5"/>
<circle cx="31.2941" cy="34.0453" r="4.47059" transform="rotate(90 31.2941 34.0453)" fill="#C0EED5"/>
<circle cx="31.2941" cy="49.1765" r="4.47059" transform="rotate(90 31.2941 49.1765)" fill="#C0EED5"/>
<circle cx="31.2941" cy="93.1947" r="4.47059" transform="rotate(90 31.2941 93.1947)" fill="#C0EED5"/>
<circle cx="31.2941" cy="108.326" r="4.47059" transform="rotate(90 31.2941 108.326)" fill="#C0EED5"/>
<circle cx="4.47081" cy="34.0452" r="4.47059" transform="rotate(90 4.47081 34.0452)" fill="#C0EED5"/>
<circle cx="4.47081" cy="49.1764" r="4.47059" transform="rotate(90 4.47081 49.1764)" fill="#C0EED5"/>
<circle cx="4.47081" cy="93.1946" r="4.47059" transform="rotate(90 4.47081 93.1946)" fill="#C0EED5"/>
<circle cx="4.47081" cy="108.326" r="4.47059" transform="rotate(90 4.47081 108.326)" fill="#C0EED5"/>
<circle cx="71.5294" cy="34.0452" r="4.47059" transform="rotate(90 71.5294 34.0452)" fill="#C0EED5"/>
<circle cx="71.5294" cy="49.1764" r="4.47059" transform="rotate(90 71.5294 49.1764)" fill="#C0EED5"/>
<circle cx="71.5294" cy="93.1946" r="4.47059" transform="rotate(90 71.5294 93.1946)" fill="#C0EED5"/>
<circle cx="71.5294" cy="108.326" r="4.47059" transform="rotate(90 71.5294 108.326)" fill="#C0EED5"/>
<circle cx="44.7062" cy="34.0452" r="4.47059" transform="rotate(90 44.7062 34.0452)" fill="#C0EED5"/>
<circle cx="44.7062" cy="49.1764" r="4.47059" transform="rotate(90 44.7062 49.1764)" fill="#C0EED5"/>
<circle cx="44.7052" cy="93.1946" r="4.47059" transform="rotate(90 44.7052 93.1946)" fill="#C0EED5"/>
<circle cx="44.7052" cy="108.326" r="4.47059" transform="rotate(90 44.7052 108.326)" fill="#C0EED5"/>
<circle cx="17.8829" cy="34.0452" r="4.47059" transform="rotate(90 17.8829 34.0452)" fill="#C0EED5"/>
<circle cx="17.8829" cy="49.1764" r="4.47059" transform="rotate(90 17.8829 49.1764)" fill="#C0EED5"/>
<circle cx="17.8829" cy="93.1946" r="4.47059" transform="rotate(90 17.8829 93.1946)" fill="#C0EED5"/>
<circle cx="17.8829" cy="108.326" r="4.47059" transform="rotate(90 17.8829 108.326)" fill="#C0EED5"/>
<circle cx="71.5294" cy="4.47059" r="4.47059" transform="rotate(90 71.5294 4.47059)" fill="#C0EED5"/>
<circle cx="71.5294" cy="19.6018" r="4.47059" transform="rotate(90 71.5294 19.6018)" fill="#C0EED5"/>
<circle cx="71.5294" cy="63.62" r="4.47059" transform="rotate(90 71.5294 63.62)" fill="#C0EED5"/>
<circle cx="71.5294" cy="78.7512" r="4.47059" transform="rotate(90 71.5294 78.7512)" fill="#C0EED5"/>
<circle cx="44.7052" cy="4.47059" r="4.47059" transform="rotate(90 44.7052 4.47059)" fill="#C0EED5"/>
<circle cx="44.7052" cy="19.6018" r="4.47059" transform="rotate(90 44.7052 19.6018)" fill="#C0EED5"/>
<circle cx="44.7052" cy="63.62" r="4.47059" transform="rotate(90 44.7052 63.62)" fill="#C0EED5"/>
<circle cx="44.7052" cy="78.7512" r="4.47059" transform="rotate(90 44.7052 78.7512)" fill="#C0EED5"/>
<circle cx="17.8829" cy="4.47059" r="4.47059" transform="rotate(90 17.8829 4.47059)" fill="#C0EED5"/>
<circle cx="17.8829" cy="19.6018" r="4.47059" transform="rotate(90 17.8829 19.6018)" fill="#C0EED5"/>
<circle cx="17.8829" cy="63.62" r="4.47059" transform="rotate(90 17.8829 63.62)" fill="#C0EED5"/>
<circle cx="17.8829" cy="78.7512" r="4.47059" transform="rotate(90 17.8829 78.7512)" fill="#C0EED5"/>
</svg>
