<svg width="254" height="166" viewBox="0 0 254 166" fill="none" xmlns="http://www.w3.org/2000/svg">
<g clip-path="url(#clip0_115_589)">
<path d="M13.9799 11.3217H12.2344V152.948H13.9799V11.3217Z" fill="#85DDAE"/>
<path d="M243.072 152.514H12.6699V154.251H243.072V152.514Z" fill="#85DDAE"/>
<path d="M17.4705 149.472H8.74316V158.161H17.4705V149.472Z" fill="#85DDAE"/>
<path d="M0.015625 13.0594L13.1067 -0.0171509L26.2413 13.0594H0.015625Z" fill="#85DDAE"/>
<path d="M240.891 139.871L253.982 152.948L240.891 165.981V139.871Z" fill="#85DDAE"/>
<path d="M53.6888 23.4859H51.9434V135.571H53.6888V23.4859Z" fill="#DDF6E9"/>
<path d="M104.308 23.4859H102.562V135.571H104.308V23.4859Z" fill="#DDF6E9"/>
<path d="M154.926 23.4859H153.181V135.571H154.926V23.4859Z" fill="#DDF6E9"/>
<path d="M205.544 23.4859H203.799V135.571H205.544V23.4859Z" fill="#DDF6E9"/>
<path d="M235.654 53.462H33.1797V55.1998H235.654V53.462Z" fill="#DDF6E9"/>
<path d="M235.654 103.857H33.1797V105.594H235.654V103.857Z" fill="#DDF6E9"/>
<path d="M46.0268 131.014L44.127 127.424L129.938 83.0378L175.762 98.2071L239.136 42.4219L241.85 45.4288L176.712 102.785L130.3 87.436L46.0268 131.014Z" fill="#58BE88"/>
<path d="M151.811 34.0017H155.773V22.4071H152.438V20.139C154.282 19.7871 155.537 19.3178 156.714 18.5944H159.421V33.9821H162.873V36.9541H151.811V34.0017Z" fill="#67D59B"/>
<path d="M165.737 34.8424C170.739 30.3845 173.7 26.9432 173.7 24.1081C173.7 22.2507 172.68 21.1362 170.935 21.1362C169.601 21.1362 168.483 21.9965 167.561 23.0132L165.58 21.0384C167.267 19.2591 168.914 18.262 171.425 18.262C174.897 18.262 177.211 20.4909 177.211 23.9126C177.211 27.2365 174.446 30.7951 171.092 34.0799C172.013 33.9821 173.23 33.8843 174.073 33.8843H178.074V36.9541H165.737V34.8424Z" fill="#67D59B"/>
<path d="M180.643 27.7058C180.643 21.3708 183.134 18.262 186.88 18.262C190.606 18.262 193.097 21.3903 193.097 27.7058C193.097 34.0212 190.606 37.2865 186.88 37.2865C183.134 37.2865 180.643 34.0212 180.643 27.7058ZM189.645 27.7058C189.645 22.583 188.449 21.0971 186.88 21.0971C185.291 21.0971 184.095 22.583 184.095 27.7058C184.095 32.8676 185.291 34.4514 186.88 34.4514C188.449 34.4514 189.645 32.8676 189.645 27.7058Z" fill="#67D59B"/>
<path d="M195.529 27.7058C195.529 21.3708 198.02 18.262 201.766 18.262C205.493 18.262 207.984 21.3903 207.984 27.7058C207.984 34.0212 205.493 37.2865 201.766 37.2865C198.02 37.2865 195.529 34.0212 195.529 27.7058ZM204.532 27.7058C204.532 22.583 203.336 21.0971 201.766 21.0971C200.178 21.0971 198.981 22.583 198.981 27.7058C198.981 32.8676 200.178 34.4514 201.766 34.4514C203.336 34.4514 204.532 32.8676 204.532 27.7058Z" fill="#67D59B"/>
<path d="M221.735 19.6306H216.557V17.2257H221.735V15.9548H224.638V17.2257H227.246V19.6306H224.638V20.6865H221.735V19.6306ZM237.818 36.4848C237.818 37.6775 237.622 38.3032 236.857 38.6942C236.131 39.0853 235.092 39.1244 233.778 39.1244C233.68 38.5378 233.464 37.8339 233.189 37.2082L231.973 37.5211C231.914 37.1496 231.816 36.7194 231.679 36.2893C228.148 36.5435 224.52 36.739 221.892 36.915L221.637 34.4122C222.872 34.3536 224.461 34.2949 226.187 34.2167V32.3397H220.597V39.0462H217.773V32.3397H216.831V29.9934H217.773V29.3091H220.597V29.9934H226.187V28.9376H219.322V21.058H236.072V28.9376H229.011V29.9739H237.818V36.4848ZM222.166 24.1081H226.187V22.9741H222.166V24.1081ZM226.187 27.041V25.9265H222.166V27.041H226.187ZM238.72 17.2257V19.6306H233.425V20.6865H230.522V19.6306H228.07V17.2257H230.522V15.9548H233.425V17.2257H238.72ZM233.091 22.9741H229.011V24.1081H233.091V22.9741ZM233.091 25.9265H229.011V27.041H233.091V25.9265ZM230.816 34.0016C230.639 33.6106 230.443 33.2 230.247 32.8676L232.326 32.3397H229.011V34.0994L230.816 34.0016ZM234.621 36.7585C234.876 36.7585 234.935 36.6803 234.935 36.4457V32.3592H232.444C233.248 33.7279 233.954 35.5267 234.209 36.7781H234.621V36.7585Z" fill="#67D59B"/>
</g>
<defs>
<clipPath id="clip0_115_589">
<rect width="254" height="166" fill="white"/>
</clipPath>
</defs>
</svg>
