<svg xmlns="http://www.w3.org/2000/svg" viewBox="0 0 284.56 118.96"><defs><style>.cls-1{fill:#67d59b;}</style></defs><g id="圖層_2" data-name="圖層 2"><g id="badge"><path class="cls-1" d="M23.78,40.86h.16V30.5A11.88,11.88,0,0,1,35.82,18.62H49.57q12.48,0,17.2,5t4.72,14.71v2.5h3.87a66.34,66.34,0,0,1,20.06,2.65v-2a56,56,0,0,0-3.78-21.08A30,30,0,0,0,78.34,5.52Q68.83,0,51.58,0H11.89A11.89,11.89,0,0,0,0,11.89v95.18A11.89,11.89,0,0,0,11.89,119h0a11.9,11.9,0,0,0,11.89-11.89Z"/><path class="cls-1" d="M77.93,113.68a30,30,0,0,0,13.5-14.55A50.39,50.39,0,0,0,95.25,82.6c0-.11,0-.23,0-.35v-3q0-9.66-4.71-14.7t-17.21-5H71.49v21.6q0,9.92-4.64,14.59t-17.29,4.67H47.71V115A4,4,0,0,0,51.66,119h0Q68.41,119,77.93,113.68Z"/><circle class="cls-1" cx="91" cy="4.42" r="4.42"/><path class="cls-1" d="M129,56.4A16.08,16.08,0,0,1,120.43,54a17.43,17.43,0,0,1-6.15-6.43A18.25,18.25,0,0,1,112,38.52,17.86,17.86,0,0,1,120.54,23a16.14,16.14,0,0,1,8.62-2.4,14.18,14.18,0,0,1,5.66,1.11,14,14,0,0,1,2.52,1.39,1.32,1.32,0,0,0,2.1-.95V7a1.23,1.23,0,0,1,1.08-1.19l5.87-.92a1.28,1.28,0,0,1,1.52,1.19V54.71a1.25,1.25,0,0,1-1.3,1.2H141a1.25,1.25,0,0,1-1.3-1.2h0a1.31,1.31,0,0,0-2.12-.93,13.07,13.07,0,0,1-2.6,1.47A15.11,15.11,0,0,1,129,56.4Zm2-6.47a12,12,0,0,0,4.72-.91,9.87,9.87,0,0,0,3.34-2.22,1.17,1.17,0,0,0,.34-.82V31.06a1.17,1.17,0,0,0-.34-.82A10.39,10.39,0,0,0,135.72,28,11.93,11.93,0,0,0,131,27a10.5,10.5,0,0,0-5.55,1.46,10.15,10.15,0,0,0-3.75,4,12.71,12.71,0,0,0-1.35,6,12.61,12.61,0,0,0,1.35,5.88,10.11,10.11,0,0,0,3.75,4.07A10.5,10.5,0,0,0,131,49.93Z"/><path class="cls-1" d="M185.54,56.61q-6.82,0-10.35-3t-3.52-8.83V28.53a1.26,1.26,0,0,0-1.3-1.21h-10.9a1.25,1.25,0,0,1-1.29-1.2V22.27a1.25,1.25,0,0,1,1.29-1.21h19.37a1.26,1.26,0,0,1,1.3,1.21V44q0,3.12,1.61,4.52a7.36,7.36,0,0,0,4.91,1.39,19.53,19.53,0,0,0,3.68-.35c.71-.14,1.47-.32,2.27-.56a1.28,1.28,0,0,1,1.7,1.14v4.07a1.19,1.19,0,0,1-.85,1.13,31,31,0,0,1-3.27.83A23.73,23.73,0,0,1,185.54,56.61Zm-9.6-42.36a6.05,6.05,0,0,1-4.31-1.67,5.32,5.32,0,0,1-1.76-4,5.19,5.19,0,0,1,1.76-3.93,6.11,6.11,0,0,1,4.31-1.63,6,6,0,0,1,4.24,1.63,5.19,5.19,0,0,1,1.76,3.93,5.32,5.32,0,0,1-1.76,4A6,6,0,0,1,175.94,14.25Z"/><path class="cls-1" d="M204.73,54.71V22.27a1.26,1.26,0,0,1,1.3-1.21h5.87a1.26,1.26,0,0,1,1.3,1.21V23a1.3,1.3,0,0,0,2.17.88,13.65,13.65,0,0,1,9.37-3.4,14.31,14.31,0,0,1,6.83,1.56,11.77,11.77,0,0,1,4.61,4.38A12.47,12.47,0,0,1,237.86,33V54.71a1.25,1.25,0,0,1-1.29,1.2h-6a1.25,1.25,0,0,1-1.29-1.2V35.18a8.22,8.22,0,0,0-2.25-6.08,8.08,8.08,0,0,0-6-2.26,10,10,0,0,0-4.42,1,9.34,9.34,0,0,0-3.19,2.52,1.17,1.17,0,0,0-.26.74V54.71a1.25,1.25,0,0,1-1.3,1.2H206A1.25,1.25,0,0,1,204.73,54.71Z"/><path class="cls-1" d="M128.56,115.7a16.14,16.14,0,0,1-8.58-2.36,17.45,17.45,0,0,1-6.15-6.44,18.24,18.24,0,0,1-2.28-9.07,17.86,17.86,0,0,1,8.54-15.55,16.12,16.12,0,0,1,8.62-2.4A14.18,14.18,0,0,1,134.37,81a15.4,15.4,0,0,1,2.52,1.39,1.3,1.3,0,0,0,2.09-.95V66.29a1.24,1.24,0,0,1,1.09-1.19l5.87-.91a1.26,1.26,0,0,1,1.51,1.18V114a1.25,1.25,0,0,1-1.29,1.2h-5.65a1.25,1.25,0,0,1-1.3-1.2h0a1.31,1.31,0,0,0-2.13-.92,13.17,13.17,0,0,1-2.59,1.46A14.93,14.93,0,0,1,128.56,115.7Zm2-6.47a12.21,12.21,0,0,0,4.72-.9,10.17,10.17,0,0,0,3.34-2.22,1.16,1.16,0,0,0,.33-.82V90.36a1.16,1.16,0,0,0-.33-.82,10.53,10.53,0,0,0-3.38-2.25,11.75,11.75,0,0,0-4.68-.94A10.5,10.5,0,0,0,125,87.81a10.13,10.13,0,0,0-3.75,4,12.72,12.72,0,0,0-1.35,6,12.57,12.57,0,0,0,1.35,5.87,10,10,0,0,0,3.75,4.07A10.5,10.5,0,0,0,130.59,109.23Z"/><path class="cls-1" d="M175.72,115.91a19.27,19.27,0,0,1-9.6-2.4,18.16,18.16,0,0,1-6.75-6.47,18.29,18.29,0,0,1,0-18.36,18.16,18.16,0,0,1,6.75-6.47,20.38,20.38,0,0,1,19.19,0,18.16,18.16,0,0,1,6.75,6.47,18.29,18.29,0,0,1,0,18.36,18.28,18.28,0,0,1-6.71,6.47A19.22,19.22,0,0,1,175.72,115.91Zm0-6.75a10.06,10.06,0,0,0,5.43-1.46,10.57,10.57,0,0,0,3.75-4,12.17,12.17,0,0,0,1.39-5.84A12,12,0,0,0,184.9,92a10.62,10.62,0,0,0-3.75-4,10.75,10.75,0,0,0-10.87,0,10.89,10.89,0,0,0-3.75,4,11.8,11.8,0,0,0-1.38,5.74,12.17,12.17,0,0,0,1.38,5.84,10.57,10.57,0,0,0,3.75,4A10.07,10.07,0,0,0,175.72,109.16Z"/><path class="cls-1" d="M204.28,114V81.57a1.24,1.24,0,0,1,1.29-1.2h5.88a1.25,1.25,0,0,1,1.3,1.2v.76a1.3,1.3,0,0,0,2.17.88,13.65,13.65,0,0,1,9.37-3.4,14.24,14.24,0,0,1,6.82,1.56,11.82,11.82,0,0,1,4.62,4.39,12.44,12.44,0,0,1,1.68,6.5V114a1.25,1.25,0,0,1-1.3,1.2h-6a1.25,1.25,0,0,1-1.29-1.2V94.49a8.26,8.26,0,0,0-2.25-6.09,8.08,8.08,0,0,0-6-2.26,10,10,0,0,0-4.42,1A9.4,9.4,0,0,0,213,89.64a1.16,1.16,0,0,0-.26.73V114a1.25,1.25,0,0,1-1.3,1.2h-5.88A1.25,1.25,0,0,1,204.28,114Z"/><path class="cls-1" d="M266.65,115.91a20.42,20.42,0,0,1-9.9-2.4,18.68,18.68,0,0,1-7-6.5,16.91,16.91,0,0,1-2.58-9.18,17.45,17.45,0,0,1,2.43-9.19,18.1,18.1,0,0,1,6.68-6.43,18.87,18.87,0,0,1,9.48-2.4,19.56,19.56,0,0,1,9.71,2.37,17.81,17.81,0,0,1,6.67,6.39,17.6,17.6,0,0,1,2.43,9.26v.67a1.25,1.25,0,0,1-1.29,1.2H257a1.23,1.23,0,0,0-1.27,1.49,10.53,10.53,0,0,0,1.69,3.56,11.35,11.35,0,0,0,4.13,3.44,12.22,12.22,0,0,0,5.51,1.25,14.08,14.08,0,0,0,5.43-1,11.48,11.48,0,0,0,3.35-2.1,1.36,1.36,0,0,1,1.76,0l3.62,3a1.16,1.16,0,0,1,0,1.82,20.24,20.24,0,0,1-6,3.44A25.16,25.16,0,0,1,266.65,115.91Zm-9.41-21.15h17.6a1.23,1.23,0,0,0,1.26-1.52,10,10,0,0,0-5.22-5.95,11.17,11.17,0,0,0-5-1.08,10.76,10.76,0,0,0-4.76,1,9.63,9.63,0,0,0-3.56,3,11,11,0,0,0-1.58,3A1.21,1.21,0,0,0,257.24,94.76Z"/></g></g></svg>