<svg xmlns="http://www.w3.org/2000/svg" xmlns:xlink="http://www.w3.org/1999/xlink" viewBox="0 0 1098 1250"><defs><style>.cls-1{fill:none;}.cls-2{clip-path:url(#clip-path);}.cls-3{fill:#a2e5c2;}.cls-4{fill:#eee;}.cls-5{fill:#49a876;}.cls-6{clip-path:url(#clip-path-2);}.cls-7{clip-path:url(#clip-path-3);}.cls-8{clip-path:url(#clip-path-4);}.cls-9{clip-path:url(#clip-path-5);}.cls-10{clip-path:url(#clip-path-6);}.cls-11{clip-path:url(#clip-path-7);}.cls-12{clip-path:url(#clip-path-8);}.cls-13,.cls-17{fill:#fff;}.cls-13{opacity:0.51;isolation:isolate;}.cls-14{clip-path:url(#clip-path-9);}.cls-15{fill:#ffbeb5;}.cls-16{fill:#c0eed5;}.cls-18{fill:#85ddae;}.cls-19{fill:url(#未命名漸層_4);}.cls-20{clip-path:url(#clip-path-10);}.cls-21{clip-path:url(#clip-path-11);}.cls-22{clip-path:url(#clip-path-12);}</style><clipPath id="clip-path"><rect class="cls-1" y="71" width="1098" height="440"/></clipPath><clipPath id="clip-path-2"><rect class="cls-1" x="103.5" y="121.5" width="33" height="82" transform="translate(-72.14 100.16) rotate(-35.58)"/></clipPath><clipPath id="clip-path-3"><rect class="cls-1" x="684" y="28" width="95" height="38" transform="translate(75.56 374.17) rotate(-30.19)"/></clipPath><clipPath id="clip-path-4"><rect class="cls-1" x="884" y="311" width="92" height="37"/></clipPath><clipPath id="clip-path-5"><rect class="cls-1" x="920" y="317" width="100" height="100"/></clipPath><clipPath id="clip-path-6"><rect class="cls-1" x="474" width="99" height="91"/></clipPath><clipPath id="clip-path-7"><rect class="cls-1" x="725" y="155" width="74" height="79"/></clipPath><clipPath id="clip-path-8"><rect class="cls-1" x="297" y="1126" width="514" height="124"/></clipPath><clipPath id="clip-path-9"><rect class="cls-1" x="307" y="177" width="631" height="1019"/></clipPath><linearGradient id="未命名漸層_4" x1="2821.72" y1="-3610.47" x2="2855.8" y2="-3784.95" gradientTransform="matrix(0.13, 0, 0, -0.13, 201.35, 448.92)" gradientUnits="userSpaceOnUse"><stop offset="0.04" stop-color="#ffbeb5"/><stop offset="1" stop-color="#f99a91"/></linearGradient><clipPath id="clip-path-10"><rect class="cls-1" x="896" y="472" width="105" height="96" transform="translate(240.89 1338.13) rotate(-77.88)"/></clipPath><clipPath id="clip-path-11"><rect class="cls-1" x="145" y="474" width="92" height="97"/></clipPath><clipPath id="clip-path-12"><rect class="cls-1" x="757" y="170" width="62" height="62"/></clipPath></defs><g id="圖層_2" data-name="圖層 2"><g id="圖層_1-2" data-name="圖層 1"><g class="cls-2"><g id="geometry-i0"><path id="blue_outlined_circle-i0" data-name="blue outlined circle-i0" class="cls-3" d="M293.13,324.62c-52.69,0-95.55-42.95-95.55-95.73s42.86-95.72,95.55-95.72,95.55,42.94,95.55,95.72S345.82,324.62,293.13,324.62Zm0-181.38a85.65,85.65,0,1,0,85.5,85.65A85.67,85.67,0,0,0,293.13,143.24Z"/><ellipse id="white_outlined_circle_small-i0" data-name="white outlined circle small-i0" class="cls-4" cx="91.61" cy="495.13" rx="15.84" ry="15.87"/><ellipse id="white_outlined_circle_small_1_-i0" data-name="white outlined circle small 1 -i0" class="cls-4" cx="76.55" cy="445.45" rx="26.97" ry="27.02"/><polygon id="white_square-i0" data-name="white square-i0" class="cls-5" points="422.17 147.5 345.81 197.82 295.58 121.32 371.95 71 422.17 147.5"/><polygon id="blue_triangle-i0" data-name="blue triangle-i0" class="cls-3" points="142.68 267.52 0 258.06 65.92 367.49 142.68 267.52"/><path id="white_triangle-i0" data-name="white triangle-i0" class="cls-4" d="M750.76,288.65,785.51,118l148,95.75Zm41.65-154.24-28,137.8,147.56-60.5Z"/><path id="white_rounded_rectangle-i0" data-name="white rounded rectangle-i0" class="cls-4" d="M118.1,471.8a12.52,12.52,0,0,1,8.72-5.64l47.16-7A12.58,12.58,0,0,1,177.66,484l-47.16,7a12.57,12.57,0,0,1-12.4-19.23Zm63.2,3.32a6.49,6.49,0,0,0,1-4.49h0a6.54,6.54,0,0,0-7.41-5.5l-47.16,7a6.53,6.53,0,0,0,1.91,12.92l47.17-7A6.5,6.5,0,0,0,181.3,475.12Z"/><path id="blue_rounded_rectangle-i0" data-name="blue rounded rectangle-i0" class="cls-3" d="M932,164.78a33.88,33.88,0,0,1,52.16-37.25l99.7,71.36a33.92,33.92,0,0,1-39.39,55.23l-99.7-71.36A33.77,33.77,0,0,1,932,164.78Zm155.19,54.9a23.91,23.91,0,0,0-9.06-12.76l-99.7-71.35a24.06,24.06,0,0,0-33.51,5.59,24.12,24.12,0,0,0,5.58,33.57l99.7,71.36a24.08,24.08,0,0,0,33.51-5.59A24.06,24.06,0,0,0,1087.17,219.68Z"/><path id="white_outlined_circle-i0" data-name="white outlined circle-i0" class="cls-5" d="M157.43,414.4a39.49,39.49,0,1,1,27.9-11.57A39.3,39.3,0,0,1,157.43,414.4Zm0-72a32.45,32.45,0,1,0,22.94,9.51A32.29,32.29,0,0,0,157.43,342.39Z"/></g></g><g class="cls-6"><path id="blue_rounded_rectangle-i1" data-name="blue rounded rectangle-i1" class="cls-3" d="M122.08,192.31l-29.6-41.44a15.63,15.63,0,0,1,25.44-18.18l29.6,41.44a15.63,15.63,0,0,1-25.44,18.18Zm-7.21-57.44A11.89,11.89,0,0,0,95.52,148.7l29.61,41.43a11.89,11.89,0,0,0,19.35-13.83Z"/></g><g class="cls-7"><path id="blue_rounded_rectangle-i2" data-name="blue rounded rectangle-i2" class="cls-5" d="M766.05,47.75,715,77.38A18,18,0,0,1,697,46.25l51-29.63a18,18,0,1,1,18.09,31.13ZM699.12,50a13.69,13.69,0,1,0,13.75,23.68l51-29.63a13.7,13.7,0,1,0-13.75-23.69Z"/></g><g class="cls-8"><path id="blue_rounded_rectangle-i3" data-name="blue rounded rectangle-i3" class="cls-3" d="M958.56,347.05l-57.14,0a17.53,17.53,0,0,1,0-35.06l57.13,0a17.53,17.53,0,0,1,0,35.06Zm-57.12-30.9a13.34,13.34,0,0,0,0,26.67l57.13,0a13.34,13.34,0,0,0,0-26.67Z"/></g><g class="cls-9"><path id="outlined_square_1-i4" data-name="outlined square 1-i4" class="cls-3" d="M990.62,417,920,387.62,949.38,317,1020,346.38Zm-64.07-32.08,61.37,25.53,25.53-61.37-61.37-25.53Z"/></g><g class="cls-10"><path id="half_a_circle-i5" data-name="half a circle-i5" class="cls-3" d="M529.23,91A55.23,55.23,0,0,1,486.12,1.25l1-1.25L573,69.63l-1,1.18A55.36,55.36,0,0,1,529.23,91ZM487.63,4.39a52.15,52.15,0,0,0,81,65.63Z"/></g><g class="cls-11"><path id="triangle-i6" class="cls-3" d="M725,234l4.91-79L799,192.28Zm7.21-74.82-4.35,70.28,65.83-37.13Z"/></g><g class="cls-12"><ellipse class="cls-5" cx="554" cy="1188" rx="257" ry="62"/><path id="texure_1_-i7" data-name="texure 1 -i7" class="cls-13" d="M500.37,1173a.86.86,0,0,0,1.08-.53.84.84,0,0,0-.53-1.06.86.86,0,0,0-1.08.52h0a.85.85,0,0,0,.53,1.07Zm6.53-19.53a1,1,0,0,0,1.14-.54.86.86,0,0,0-.59-1.05.79.79,0,0,0-1,.43.36.36,0,0,0,0,.09.85.85,0,0,0,.53,1.07ZM587,1166.34a.85.85,0,0,0,1.15.4h0a.78.78,0,0,0,.41-1s0-.06-.06-.1a.84.84,0,0,0-1.1-.41.86.86,0,0,0-.4,1.15ZM468.13,1142a.83.83,0,0,0,1.17-.07.83.83,0,0,0-1.25-1.09.79.79,0,0,0,0,1.11A.18.18,0,0,0,468.13,1142Zm74.77,25a1,1,0,0,0,1,.8.88.88,0,1,0-.15-1.75A.94.94,0,0,0,542.9,1166.91Zm-1.49-20.54a.86.86,0,0,0,.94.75h0a.82.82,0,0,0,.82-.81v-.08a.91.91,0,0,0-.95-.8A.94.94,0,0,0,541.41,1146.37Zm-153.33,40.08a1.63,1.63,0,0,0,2.28,0l0,0a1.57,1.57,0,0,0,0-2.23h0a1.62,1.62,0,0,0-2.28,0l0,0a1.57,1.57,0,0,0,0,2.23Zm27.65-27.72a1.66,1.66,0,0,0,2.32,0,1.63,1.63,0,0,0,0-2.31l0,0a1.6,1.6,0,0,0-2.24,0h0a1.67,1.67,0,0,0,0,2.32Zm97,38.43a1.58,1.58,0,0,0,1.59,1.59h.06a1.56,1.56,0,0,0,1.62-1.5v-.09a1.73,1.73,0,0,0-1.67-1.65,1.65,1.65,0,0,0-1.6,1.65Zm-.2-39a1.64,1.64,0,0,0,1.66,1.6,1.61,1.61,0,0,0,1.6-1.64,1.59,1.59,0,0,0-1.59-1.61h0a1.63,1.63,0,0,0-1.67,1.59v.06Zm-76.83,84.56a1.61,1.61,0,0,0,2.07-.94,1.61,1.61,0,0,0-3-1.16,1.65,1.65,0,0,0,.93,2.1Zm14.88-36.14a1.63,1.63,0,0,0,2.08-1,1.6,1.6,0,0,0-.95-2.06,1.62,1.62,0,0,0-2.06.91,1.65,1.65,0,0,0,.93,2.1Zm14.9-36.1a1.65,1.65,0,1,0-.93-2.21,1.64,1.64,0,0,0,.85,2.17Zm119.76,72a1.65,1.65,0,0,0,2.15.84,1.57,1.57,0,0,0,.87-2v0a1.57,1.57,0,0,0-2-1l-.12,0A1.72,1.72,0,0,0,585.27,1242.44Zm-30.37-72a1.56,1.56,0,0,0,2,.89l.07,0a1.6,1.6,0,0,0,.93-2.07.24.24,0,0,0,0-.08,1.64,1.64,0,0,0-2.14-.85,1.62,1.62,0,0,0-.86,2.13Zm-154.45,56.87a1.46,1.46,0,0,0,1.95-.6,1.44,1.44,0,0,0-2.55-1.35h0a1.45,1.45,0,0,0,.6,2Zm16.32-30.85a1.48,1.48,0,0,0,2-.59,1.44,1.44,0,0,0-2.51-1.43.56.56,0,0,0-.05.08,1.4,1.4,0,0,0,.55,1.91l0,0Zm15.68-31.66a1.2,1.2,0,0,0,.65.81,1.46,1.46,0,0,0,1.36-2.59h0a1.47,1.47,0,0,0-1.37,0H433a1,1,0,0,0-.52.59,1.21,1.21,0,0,0-.05,1.19Zm114.35,75a1.54,1.54,0,0,0,1.87,1,1.39,1.39,0,0,0,.93-1.74l0-.06a1.44,1.44,0,0,0-1.79-1h0A1.49,1.49,0,0,0,546.8,1239.74ZM526,1173.18a1.46,1.46,0,0,0,1.79,1h0a1.37,1.37,0,0,0,1-1.66.78.78,0,0,0,0-.14,1.45,1.45,0,0,0-1.79-1h0a1.46,1.46,0,0,0-.92,1.79ZM515.58,1140a1.46,1.46,0,0,0,2.77-.9,1.46,1.46,0,1,0-2.77.9Zm-45,89.5a1.48,1.48,0,0,0,1.35,1.54,1.43,1.43,0,0,0,1.56-1.28,1.46,1.46,0,1,0-2.91-.26Zm3.23-34.72a1.39,1.39,0,0,0,1.21,1.55h.08a1.41,1.41,0,0,0,1.56-1.28,1.52,1.52,0,0,0-1.3-1.61A1.47,1.47,0,0,0,473.8,1194.75ZM477,1160a1.44,1.44,0,1,0,1.58-1.3A1.43,1.43,0,0,0,477,1160Zm100,5.12a1.51,1.51,0,0,0,2.07.2,1.46,1.46,0,0,0,.13-2.06,1.48,1.48,0,0,0-2-.2,1.42,1.42,0,0,0-.26,2A.19.19,0,0,1,577,1165.16Zm-97.43-.54a.85.85,0,0,0,.94.75.84.84,0,1,0-.18-1.67h0a.84.84,0,0,0-.76.92Zm-2.28-20.42a.88.88,0,0,0,1,.73.84.84,0,0,0,.75-.92h0a.8.8,0,0,0-.87-.75h-.06a.88.88,0,0,0-.82.91S477.29,1144.19,477.3,1144.2Zm-39.06,6.4a.92.92,0,0,0,1.06-.58.83.83,0,0,0-.55-1l0,0a.83.83,0,0,0-1,.51.25.25,0,0,0,0,.07.85.85,0,0,0,.59,1.06Zm78.31-8.36a.84.84,0,0,0,1.14.34.82.82,0,0,0,.34-1.14.8.8,0,0,0-1-.4l-.1.06a.82.82,0,0,0-.36,1.11l0,0ZM383,1162.42a.94.94,0,0,0,1.27-.37l0,0a.94.94,0,0,0-.34-1.3l-.07,0a.94.94,0,0,0-1.27.36l0,0a1,1,0,0,0,.41,1.33Zm98.48,9.47a.91.91,0,0,0,1.09.67l.11,0a1,1,0,0,0,.64-1.2,1.06,1.06,0,0,0-1.22-.68,1,1,0,0,0-.62,1.25Zm-6.84-22.46a1,1,0,0,0,1.26.61h0a1,1,0,0,0,.64-1.19,1,1,0,1,0-1.9.58Zm-42.23,15.35a1.32,1.32,0,0,0,.39.15,1,1,0,0,0,1.06-.84v0a1,1,0,0,0-.82-1.06l-.06,0a1,1,0,0,0-1.06.84v0a.87.87,0,0,0,.49.9ZM519,1139.53a1,1,0,0,0,1.37.13l0,0a1,1,0,0,0-1.17-1.55l-.06,0a1,1,0,0,0-.16,1.4Zm-113.17,84.59a1.67,1.67,0,1,0,1.82-1.5,1.67,1.67,0,0,0-1.82,1.5Zm3.26-40.1a1.73,1.73,0,0,0,1.58,1.8,1.66,1.66,0,1,0-1.58-1.8Zm130-1.16a1.71,1.71,0,0,0,2.36.2,1.66,1.66,0,0,0,.2-2.35,1.68,1.68,0,0,0-2.36-.2h0a1.67,1.67,0,0,0-.2,2.35Zm-26.22-30.67a1.7,1.7,0,0,0,2.36.2,1.74,1.74,0,0,0,.19-2.4,1.7,1.7,0,0,0-2.39-.11A1.67,1.67,0,0,0,512.82,1152.19ZM468,1199.48a1.72,1.72,0,0,0,2.14,1.08h0a1.64,1.64,0,0,0,1-2.06h0a1.66,1.66,0,0,0-2.07-1.1,1.64,1.64,0,0,0-1.11,2v0Zm-12.41-38.29a1.65,1.65,0,0,0,2.05,1.1h0a1.67,1.67,0,0,0,1.15-2.08,1.71,1.71,0,0,0-2.1-1.15,1.67,1.67,0,0,0-1.15,2.09S455.57,1161.18,455.58,1161.19Zm-9.44,52.72a1.68,1.68,0,0,0,3.25-.88,1.77,1.77,0,0,0-2.1-1.2,1.71,1.71,0,0,0-1.15,2.08Zm-10.76-38.65a1.69,1.69,0,0,0,2.09,1.15,1.65,1.65,0,0,0,1.17-2,1.68,1.68,0,0,0-2.05-1.16h0a1.7,1.7,0,0,0-1.21,2Zm-58.95,21.42a1.66,1.66,0,0,0,1.45,1.82h0a1.65,1.65,0,1,0,.42-3.28,1.73,1.73,0,0,0-1.88,1.46Zm5-39.82a1.67,1.67,0,0,0,3.3.46.43.43,0,0,0,0,0,1.74,1.74,0,0,0-1.48-1.87,1.65,1.65,0,0,0-1.83,1.44s0,0,0,0ZM521,1198.06a1.7,1.7,0,0,0,2.37.25,1.67,1.67,0,0,0-2-2.67l-.06,0A1.65,1.65,0,0,0,521,1198Zm-24.82-31.62a1.71,1.71,0,0,0,2.37.26,1.67,1.67,0,0,0-2-2.68s-.05,0-.06,0a1.64,1.64,0,0,0-.35,2.32Zm-43.66,17a1.28,1.28,0,0,0,1.71.52,1.25,1.25,0,0,0,.55-1.65,1.23,1.23,0,0,0-1.61-.58l-.12.06A1.25,1.25,0,0,0,452.56,1183.46Zm-14-26.77a1.29,1.29,0,0,0,1.72.52,1.27,1.27,0,0,0,.52-1.71,1.25,1.25,0,0,0-1.68-.54l0,0a1.3,1.3,0,0,0-.52,1.71ZM388,1185.23a1.26,1.26,0,0,0,1.37,1.12,1.33,1.33,0,0,0,1.13-1.37,1.24,1.24,0,0,0-1.36-1.12h0a1.21,1.21,0,0,0-1.14,1.27A.34.34,0,0,0,388,1185.23Zm-2.67-30.15a1.33,1.33,0,0,0,1.38,1.18,1.25,1.25,0,0,0,1.14-1.35s0,0,0,0a1.21,1.21,0,0,0-1.28-1.14h-.05a1.25,1.25,0,0,0-1.2,1.3s0,0,0,0Z"/></g><g class="cls-14"><g id="man_dancing-i8" data-name="man dancing-i8"><g id="R_hand_3_-i8" data-name="R hand 3 -i8"><path id="R_hand_6_-i8" data-name="R hand 6 -i8" class="cls-15" d="M527.53,1073.18s-5.39,88.36,2.6,91.55,33.55-2.39,43.13-5.58,24,0,32.74,6.38,38.34,25.52,38.34,25.52-14.32,7.79-34.72-2.41a65.82,65.82,0,0,1-6.81-4c-24-16-38.33-3.19-35.14-1.59s17.57,3.19,23.16,3.19,15.47-.93,17.26,8c0,0-60.52,3.49-80.12.4s-18.23,1-29.23-34.67-19.94-68.67-19.94-68.67Z"/></g><path id="R_shoe_1_-i8" data-name="R shoe 1 -i8" class="cls-3" d="M735.32,578.43l70.88,23.79,39.13-181.43s-15.69-6.11-28.65,14-65.37,68.4-65.37,68.4Z"/><path id="L_shoe_1_-i8" data-name="L shoe 1 -i8" class="cls-3" d="M608.77,368.34,682.15,354l-55.9-177s-16.66,2.44-18,26.3-28.2,93.42-28.2,93.42Z"/><g id="trousers-i8"><g id="L_trousers-i8" data-name="L trousers-i8"><path class="cls-16" d="M626.93,413.23s-1.2.8-3.41,2.21c-38.72-17.52-72.9-32.85-81.65-36.26-22.71-8.86-65.13-34.47-78,3.94-3.36,10.12-8,38.95-12.91,76-14.4-1.57-21.57,6.57-6,47.09-8.59,70.55-17.17,152.48-21.54,195.29-5.36-10.65-110.36-219.25-116-258.59-5.78-40.39,38.5-56.76,75.11-71.16,5.65-2.21,14.24-5.54,24.72-9.56,57.61-22.09,172.71-65.46,172.71-65.46l31.84,79.12Z"/></g><g id="R_trousers-i8" data-name="R trousers-i8"><path class="cls-16" d="M758,476.75,735.31,582.19c-14.8,1-37.49-9.85-58.23-27.6s-31.57-13.79-56.26-12.81-40.45-19.7-52.31-24.62-8.88,30.53,0,58.14c7.09,22.06,4.74,66.23,3.52,83C557,662,532.09,670,509.18,685.37c-35.83,24.15-56.68,30.8-80,38.29q-3.89,1.23-8.21,2.5c3.94-39.4,31.06-307.45,42.93-343,12.85-38.41,55.27-12.81,78-3.94S758,476.75,758,476.75Z"/></g><path id="texture-i8" class="cls-17" d="M570.13,638.4a.32.32,0,0,1,0,.44.31.31,0,0,1-.44-.44A.32.32,0,0,1,570.13,638.4Zm-5.75-5.26a.31.31,0,0,0,.44.44.32.32,0,0,0,0-.44A.3.3,0,0,0,564.38,633.14Zm-5.31-5.26a.31.31,0,1,0,.44,0A.31.31,0,0,0,559.07,627.88Zm11.72,26.67a.31.31,0,1,0,.3-.31A.3.3,0,0,0,570.79,654.55Zm-7.48,0a.31.31,0,0,0,.31.31.31.31,0,0,0,.31-.32.3.3,0,0,0-.31-.3A.3.3,0,0,0,563.31,654.58Zm-7.49,0a.33.33,0,0,0,.32.31.32.32,0,0,0,.31-.31.32.32,0,0,0-.63,0Zm-7.47,0a.31.31,0,0,0,.31.31.33.33,0,0,0,.31-.32.3.3,0,0,0-.31-.3A.3.3,0,0,0,548.35,654.64Zm21.91-38.41a.32.32,0,0,0-.16.41.29.29,0,0,0,.4.16.3.3,0,0,0,.17-.4A.31.31,0,0,0,570.26,616.23Zm-1.58,31a.32.32,0,0,0,.17.41.31.31,0,0,0,.41-.17.31.31,0,0,0-.17-.4A.32.32,0,0,0,568.68,647.2Zm-6.92-2.83a.33.33,0,0,0,.17.41.31.31,0,0,0,.41-.17.31.31,0,0,0-.58-.24Zm-6.92-2.83a.31.31,0,0,0,.17.4.31.31,0,1,0,.24-.57A.32.32,0,0,0,554.84,641.54Zm-6.92-2.83a.31.31,0,0,0,.17.4.3.3,0,0,0,.4-.16.31.31,0,1,0-.57-.24Zm22.37-15a.36.36,0,0,0,.23.69.36.36,0,0,0,.23-.46A.37.37,0,0,0,570.29,623.68Zm-2.74-8.39a.37.37,0,0,0-.23.46.37.37,0,0,0,.46.24.36.36,0,0,0,.23-.46A.36.36,0,0,0,567.55,615.29Zm-2.09,34.32a.36.36,0,0,0,.16.49.36.36,0,1,0-.16-.49Zm-7.87-4a.38.38,0,0,0,.16.5.36.36,0,0,0,.49-.17.37.37,0,0,0-.16-.49A.37.37,0,0,0,557.59,645.61Zm-7.87-4a.36.36,0,0,0,.16.49.36.36,0,0,0,.33-.65A.35.35,0,0,0,549.72,641.62Zm-7.88-4a.36.36,0,0,0,.16.49.37.37,0,0,0,.5-.17.35.35,0,0,0-.17-.48A.36.36,0,0,0,541.84,637.62Zm25.59,3a.37.37,0,1,0,.52,0A.37.37,0,0,0,567.43,640.58Zm-5.74-6.7a.37.37,0,1,0,.52,0A.37.37,0,0,0,561.69,633.88Zm-5.74-6.7a.36.36,0,0,0,0,.51.36.36,0,0,0,.52,0,.35.35,0,0,0,0-.51A.36.36,0,0,0,556,627.18Zm-5.74-6.7a.37.37,0,1,0,.52,0A.37.37,0,0,0,550.21,620.48Zm9.43,35.39a.37.37,0,0,0,.34.39.36.36,0,0,0,.39-.34.36.36,0,0,0-.33-.39A.38.38,0,0,0,559.64,655.87Zm-8.8-.69a.35.35,0,0,0,.33.39.37.37,0,0,0,.4-.33.38.38,0,0,0-.34-.4A.37.37,0,0,0,550.84,655.18Zm-8.81-.69a.37.37,0,0,0,.74.06.37.37,0,0,0-.34-.39A.38.38,0,0,0,542,654.49Zm-8.8-.68a.36.36,0,0,0,.34.39.37.37,0,1,0,0-.73A.37.37,0,0,0,533.23,653.81Zm33.41-2.55a.29.29,0,1,0,.41,0A.29.29,0,0,0,566.64,651.26Zm-5.24-4.7a.29.29,0,1,0,.41,0A.29.29,0,0,0,561.4,646.56Zm-5.25-4.69a.3.3,0,0,0,0,.41.29.29,0,1,0,.39-.43A.3.3,0,0,0,556.15,641.87Zm-5.24-4.7a.29.29,0,1,0,.41,0A.29.29,0,0,0,550.91,637.17Zm-1.78,25.29a.29.29,0,1,0,.58,0,.29.29,0,0,0-.58,0Zm-7,.39a.29.29,0,0,0,.58,0,.28.28,0,0,0-.3-.27A.29.29,0,0,0,542.1,662.85ZM570,644.7a.31.31,0,0,0-.14.39.29.29,0,0,0,.53-.25A.29.29,0,0,0,570,644.7Zm-3-6.34a.29.29,0,1,0,.25.52.29.29,0,0,0,.14-.38A.29.29,0,0,0,567,638.36ZM563.93,632a.29.29,0,0,0-.14.38.29.29,0,0,0,.39.14.29.29,0,1,0-.25-.52Zm-3-6.34a.28.28,0,0,0-.13.38.28.28,0,0,0,.38.14.29.29,0,0,0,.14-.39A.29.29,0,0,0,560.88,625.68Zm0,29.21a.28.28,0,0,0,.17.37.29.29,0,0,0,.38-.18.3.3,0,0,0-.18-.37A.29.29,0,0,0,560.88,654.89Zm-6.65-2.33a.29.29,0,0,0,.18.37.29.29,0,0,0,.37-.18.29.29,0,0,0-.55-.19Zm-6.65-2.34a.29.29,0,0,0,.18.37.31.31,0,0,0,.38-.18A.3.3,0,0,0,548,650,.3.3,0,0,0,547.58,650.22Zm-6.64-2.33a.29.29,0,0,0,.18.37.3.3,0,0,0,.37-.18.29.29,0,0,0-.18-.37A.29.29,0,0,0,540.94,647.89Zm18.93,2.16a.4.4,0,0,0,.38.71.41.41,0,0,0,.17-.55A.4.4,0,0,0,559.87,650.05Zm-4.6-8.57a.4.4,0,0,0-.17.55.42.42,0,0,0,.55.16.4.4,0,0,0,.16-.55A.39.39,0,0,0,555.27,641.48Zm-4.61-8.57a.39.39,0,0,0-.17.54.4.4,0,1,0,.71-.38A.39.39,0,0,0,550.66,632.91ZM546,624.34a.4.4,0,1,0,.55.16A.4.4,0,0,0,546,624.34ZM550.48,662a.39.39,0,0,0,.26.5.4.4,0,0,0,.51-.27.41.41,0,0,0-.27-.5A.41.41,0,0,0,550.48,662Zm-9.33-2.81a.4.4,0,1,0,.77.23.39.39,0,0,0-.27-.5A.4.4,0,0,0,541.15,659.2Zm-9.33-2.8a.41.41,0,0,0,.27.5.4.4,0,1,0,.23-.77A.41.41,0,0,0,531.82,656.4Zm-9.33-2.81a.4.4,0,0,0,.27.51.41.41,0,0,0,.5-.28.4.4,0,1,0-.77-.23Zm45.26-1.27a.4.4,0,0,0-.36.44.41.41,0,0,0,.44.36.39.39,0,0,0,.36-.44A.4.4,0,0,0,567.75,652.32Zm-1-9.68a.4.4,0,0,0-.36.44.4.4,0,0,0,.8-.08A.4.4,0,0,0,566.78,642.64Zm-1-9.68a.39.39,0,0,0-.36.44.4.4,0,1,0,.36-.44Zm-1-9.68a.4.4,0,0,0,.08.8.39.39,0,0,0,.36-.44A.4.4,0,0,0,564.83,623.28Zm-1-9.68a.39.39,0,0,0-.36.44.4.4,0,0,0,.8-.08A.4.4,0,0,0,563.86,613.6Zm-6.24,44.15a.41.41,0,0,0,.63.51.4.4,0,0,0-.06-.57A.41.41,0,0,0,557.62,657.75Zm-7.54-6.16a.4.4,0,0,0,.06.56.39.39,0,0,0,.56,0,.4.4,0,1,0-.62-.51Zm-7.54-6.16a.41.41,0,0,0,.05.57.4.4,0,0,0,.57-.06.39.39,0,0,0-.06-.56A.4.4,0,0,0,542.54,645.43ZM535,639.28a.4.4,0,0,0,.06.56.4.4,0,1,0,.51-.62A.4.4,0,0,0,535,639.28Zm-7.54-6.16a.39.39,0,0,0,.06.56.4.4,0,1,0,.5-.62A.39.39,0,0,0,527.45,633.12Zm-2.23,38.53a.4.4,0,0,0,.44.36.4.4,0,0,0,.37-.44.41.41,0,0,0-.45-.36A.4.4,0,0,0,525.22,671.65Zm-9.69,1a.39.39,0,0,0,.44.35.4.4,0,0,0,.36-.44.4.4,0,0,0-.44-.36A.42.42,0,0,0,515.53,672.63Zm37.54-12.06a.21.21,0,1,0,.32.27.21.21,0,0,0-.32-.27Zm-3.92-3.24a.2.2,0,0,0,0,.29.21.21,0,0,0,.3,0,.21.21,0,0,0,0-.29A.2.2,0,0,0,549.15,657.33Zm-3.93-3.25a.21.21,0,1,0,.3,0A.22.22,0,0,0,545.22,654.08Zm18.26.82a.21.21,0,0,0-.19.23.21.21,0,0,0,.23.19.21.21,0,1,0,0-.42Zm-.47-5.07a.21.21,0,0,0-.19.23.21.21,0,0,0,.23.19.21.21,0,0,0,.19-.23A.22.22,0,0,0,563,649.83Zm-.48-5.06a.22.22,0,0,0-.19.23.21.21,0,1,0,.42,0A.21.21,0,0,0,562.53,644.77Zm-19.64,18.86a.2.2,0,0,0,.14.26.21.21,0,0,0,.26-.13.21.21,0,1,0-.4-.13Zm-4.87-1.5a.21.21,0,0,0,.14.26.2.2,0,0,0,.26-.14.21.21,0,0,0-.13-.26A.22.22,0,0,0,538,662.13Zm32.3-8.89a.2.2,0,0,0-.26.14.21.21,0,0,0,.14.26.22.22,0,0,0,.26-.14A.21.21,0,0,0,570.32,653.24Zm1.51-4.87a.22.22,0,0,0-.27.14.23.23,0,0,0,.14.27.22.22,0,0,0,.13-.41ZM559,659a.21.21,0,0,0-.09.28.21.21,0,0,0,.29.09.21.21,0,0,0,.09-.28A.21.21,0,0,0,559,659Zm-2.38-4.5a.21.21,0,0,0-.09.28.21.21,0,0,0,.29.09.21.21,0,0,0,.09-.28A.21.21,0,0,0,556.57,654.52Zm-2.38-4.5a.21.21,0,0,0,.2.38.23.23,0,0,0,.09-.29A.22.22,0,0,0,554.19,650Zm-2.38-4.5a.22.22,0,0,0-.09.29.21.21,0,0,0,.38-.2A.22.22,0,0,0,551.81,645.52Zm6.5,10.18a.23.23,0,0,0-.22.27.24.24,0,0,0,.27.21.23.23,0,0,0,.22-.27A.24.24,0,0,0,558.31,655.7Zm-.67-5.87a.24.24,0,0,0-.21.27.24.24,0,0,0,.27.22.26.26,0,0,0,.22-.27A.26.26,0,0,0,557.64,649.83ZM557,644a.24.24,0,0,0-.21.27.23.23,0,0,0,.27.21.24.24,0,0,0,.22-.27A.25.25,0,0,0,557,644ZM546.35,662.5a.25.25,0,0,0,0,.34.24.24,0,0,0,.35,0,.25.25,0,0,0,0-.34A.26.26,0,0,0,546.35,662.5Zm-4.62-3.68a.24.24,0,1,0,.38.3.24.24,0,0,0,0-.34A.23.23,0,0,0,541.73,658.82Zm-4.62-3.68a.24.24,0,0,0,0,.34.23.23,0,0,0,.34,0,.24.24,0,0,0,0-.34A.24.24,0,0,0,537.11,655.14Zm29.44-1.56a.25.25,0,0,0-.31.17.24.24,0,0,0,.17.3.25.25,0,1,0,.14-.47Zm1.64-5.67a.25.25,0,1,0-.14.47.25.25,0,0,0,.14-.47Zm1.64-5.67a.25.25,0,0,0-.31.17.24.24,0,0,0,.17.3.25.25,0,0,0,.14-.47Zm-16.35,18.29a.24.24,0,0,0-.09.33.24.24,0,0,0,.33.1.25.25,0,0,0,.1-.33A.25.25,0,0,0,553.48,660.53Zm-2.85-5.17a.25.25,0,0,0-.1.34.24.24,0,0,0,.33.09.24.24,0,0,0,.1-.33A.25.25,0,0,0,550.63,655.36Zm-2.86-5.17a.26.26,0,0,0-.1.34.25.25,0,0,0,.34.09.25.25,0,0,0,.09-.33A.24.24,0,0,0,547.77,650.19ZM544.91,645a.25.25,0,0,0-.09.33.24.24,0,0,0,.33.1.24.24,0,0,0,.1-.33A.26.26,0,0,0,544.91,645Zm-10,21.2a.25.25,0,0,0,.17.3.25.25,0,1,0-.17-.3Zm-5.67-1.64a.25.25,0,0,0,.16.31.25.25,0,0,0,.3-.17.24.24,0,0,0-.17-.3A.23.23,0,0,0,529.28,664.59Zm19-2.31a.25.25,0,0,0,.11.49.24.24,0,0,0,.18-.3A.24.24,0,0,0,548.31,662.28ZM547,656.43a.25.25,0,1,0,.11.48.24.24,0,0,0,.18-.29A.24.24,0,0,0,547,656.43Zm-1.29-5.85a.25.25,0,0,0-.19.3.25.25,0,0,0,.3.18.23.23,0,0,0,.18-.29A.24.24,0,0,0,545.73,650.58Zm-13.82,16.61a.26.26,0,0,0,.07.35.24.24,0,0,0,.34-.08.24.24,0,0,0-.07-.34A.24.24,0,0,0,531.91,667.19ZM526.85,664a.25.25,0,1,0,.35-.08A.26.26,0,0,0,526.85,664Zm41.71-9.53a.25.25,0,1,0-.27.41.25.25,0,0,0,.35-.07A.25.25,0,0,0,568.56,654.44Zm-28.49,8.24a.24.24,0,0,0-.06.34.25.25,0,1,0,.06-.34Zm-3.44-4.91a.25.25,0,0,0,.29.41.25.25,0,0,0-.29-.41Zm-3.43-4.92a.25.25,0,0,0,.29.41.26.26,0,0,0,.06-.35A.25.25,0,0,0,533.2,652.85Zm-7.8,22.46a.25.25,0,0,0,.2.29.24.24,0,0,0,.29-.2.25.25,0,0,0-.49-.09Zm-5.9-1a.24.24,0,0,0,.48.08.24.24,0,1,0-.48-.08ZM556,659.19a.24.24,0,0,0-.29.2.23.23,0,0,0,.2.28.24.24,0,0,0,.29-.2A.25.25,0,0,0,556,659.19Zm1-5.9a.23.23,0,0,0-.28.19.24.24,0,0,0,.2.29.24.24,0,1,0,.08-.48Zm1.06-5.9a.25.25,0,0,0-.29.2.24.24,0,1,0,.29-.2Zm-15.2,18.23a.18.18,0,0,0-.13.23.19.19,0,0,0,.37-.11A.2.2,0,0,0,542.86,665.62Zm-1.26-4.41a.19.19,0,0,0,.1.36.17.17,0,0,0,.13-.23A.17.17,0,0,0,541.6,661.21Zm-13.78,11.11a.19.19,0,0,0,.07.26.19.19,0,1,0,.19-.33A.19.19,0,0,0,527.82,672.32Zm23.06-14.27a.19.19,0,0,0-.21.16.19.19,0,0,0,.17.21.18.18,0,0,0,.21-.16A.19.19,0,0,0,550.88,658.05ZM535,667a.19.19,0,0,0,.23.3.19.19,0,0,0,0-.27A.19.19,0,0,0,535,667Zm-2.86-3.59a.2.2,0,0,0,0,.27.19.19,0,0,0,.27,0,.18.18,0,0,0,0-.26A.19.19,0,0,0,532.15,663.39Zm21-5.94a.31.31,0,1,0-.2.59.31.31,0,1,0,.2-.59Zm2.38-7.24a.32.32,0,0,0-.4.2.31.31,0,0,0,.2.4.31.31,0,0,0,.4-.2A.33.33,0,0,0,555.57,650.21Zm-22.44,16a.33.33,0,0,0-.15.43.32.32,0,0,0,.43.13.31.31,0,0,0,.14-.42A.33.33,0,0,0,533.13,666.25Zm-3.44-6.79a.32.32,0,0,0-.15.42.32.32,0,0,0,.43.14.31.31,0,1,0-.28-.56Zm-3.44-6.8a.33.33,0,0,0-.15.43.32.32,0,0,0,.43.13.31.31,0,0,0,.14-.42A.33.33,0,0,0,526.25,652.66Zm-11.76,24.81a.32.32,0,0,0,.2.4.31.31,0,0,0,.4-.2.33.33,0,0,0-.2-.4A.33.33,0,0,0,514.49,677.47Zm-7.24-2.37a.31.31,0,0,0,.2.4.33.33,0,0,0,.4-.21.31.31,0,0,0-.2-.39A.31.31,0,0,0,507.25,675.1Zm64-20.59a.31.31,0,0,0-.44,0,.3.3,0,0,0,0,.44.31.31,0,1,0,.4-.47Zm-29.57,5.1a.31.31,0,0,0-.29.34.31.31,0,0,0,.33.29.3.3,0,0,0,.29-.34A.31.31,0,0,0,541.7,659.61Zm-.58-7.59a.32.32,0,0,0-.29.34.33.33,0,0,0,.34.29.31.31,0,0,0,.29-.34A.32.32,0,0,0,541.12,652Zm-.57-7.59a.3.3,0,0,0-.29.34.32.32,0,0,0,.34.29.33.33,0,0,0,.29-.34A.31.31,0,0,0,540.55,644.43Zm-17.3,24.49a.3.3,0,0,0,0,.44.31.31,0,0,0,.44,0,.32.32,0,0,0,0-.45A.31.31,0,0,0,523.25,668.92Zm-5.78-5a.31.31,0,0,0,0,.44.32.32,0,0,0,.45,0,.3.3,0,0,0,0-.44A.31.31,0,0,0,517.47,664Zm-5.78-5a.31.31,0,1,0,.47.41.31.31,0,1,0-.47-.41Zm20.72,10.16a.21.21,0,0,0-.14.27.22.22,0,0,0,.28.14.21.21,0,0,0,.14-.27A.22.22,0,0,0,532.41,669.15Zm-1.65-5.08a.22.22,0,0,0-.14.28.22.22,0,1,0,.14-.28Zm-15.59,13.49a.21.21,0,0,0,.09.29.23.23,0,0,0,.3-.09.22.22,0,1,0-.39-.2Zm26.23-12a.21.21,0,0,0-.23.2.22.22,0,0,0,.2.24.22.22,0,0,0,0-.44Zm.43-5.32a.22.22,0,0,0-.24.2.21.21,0,0,0,.2.23.22.22,0,0,0,.24-.2A.21.21,0,0,0,541.83,660.22Zm-18.11,11a.22.22,0,0,0,0,.31.21.21,0,0,0,.31,0,.23.23,0,0,0,0-.31A.23.23,0,0,0,523.72,671.25Zm-3.47-4.06a.22.22,0,0,0,0,.31.21.21,0,0,0,.31,0,.22.22,0,0,0,0-.31A.21.21,0,0,0,520.25,667.19Zm12.51.09a.3.3,0,0,0-.32.28.29.29,0,0,0,.27.31.29.29,0,0,0,.32-.27A.3.3,0,0,0,532.76,667.28Zm.51-7a.29.29,0,0,0-.32.27.31.31,0,0,0,.28.31.29.29,0,0,0,.31-.27A.29.29,0,0,0,533.27,660.23Zm-16.61,19.51a.3.3,0,0,0,0,.42.31.31,0,0,0,.42,0,.3.3,0,0,0,0-.42A.31.31,0,0,0,516.66,679.74ZM512,674.39a.29.29,0,1,0,.41,0A.3.3,0,0,0,512,674.39ZM507.38,669a.29.29,0,0,0,0,.42.3.3,0,1,0,.45-.39A.3.3,0,0,0,507.38,669Zm41.19-8a.3.3,0,0,0-.39.13.29.29,0,0,0,.13.39.29.29,0,0,0,.26-.52Zm-25.52,11.27a.29.29,0,0,0-.18.37.28.28,0,0,0,.37.18.29.29,0,1,0-.19-.55Zm-2.23-6.72a.3.3,0,0,0-.19.37.31.31,0,0,0,.38.19.3.3,0,0,0-.19-.56Zm-2.23-6.72a.29.29,0,1,0,.37.19A.29.29,0,0,0,518.59,658.9Zm-10.07,26a.3.3,0,1,0,.4-.13A.29.29,0,0,0,508.52,684.89Zm-6.34-3.17a.3.3,0,0,0,.13.39.3.3,0,0,0,.4-.13.3.3,0,0,0-.53-.26Zm-6.33-3.18a.31.31,0,0,0,.13.4.3.3,0,0,0,.27-.53A.3.3,0,0,0,495.85,678.54Zm22.58-2.67a.38.38,0,0,0-.4.37.39.39,0,1,0,.4-.37Zm.43-9.23a.39.39,0,0,0,0,.77.39.39,0,0,0,.4-.37A.38.38,0,0,0,518.86,666.64Zm.42-9.22a.38.38,0,1,0,.37.4A.38.38,0,0,0,519.28,657.42Zm-21,26a.39.39,0,0,0,0,.54.38.38,0,1,0,.57-.51A.39.39,0,0,0,498.28,683.45Zm-6.23-6.82a.38.38,0,0,0,.52.56.38.38,0,0,0,0-.54A.39.39,0,0,0,492.05,676.63Zm-6.23-6.83a.38.38,0,1,0,.54,0A.38.38,0,0,0,485.82,669.8Zm-14.9,32.39a.39.39,0,0,0,.37.4.38.38,0,0,0,0-.76A.39.39,0,0,0,470.92,702.19Zm38.23-20.34a.38.38,0,1,0,.49.23A.39.39,0,0,0,509.15,681.85ZM506,673.17a.37.37,0,0,0-.23.49.38.38,0,1,0,.23-.49Zm-3.15-8.69a.39.39,0,0,0,.26.73.39.39,0,0,0-.26-.73Zm-3.14-8.68a.38.38,0,0,0,.26.72.39.39,0,0,0,.23-.49A.38.38,0,0,0,499.72,655.8ZM487.49,690a.38.38,0,1,0,.51-.18A.37.37,0,0,0,487.49,690Zm-8.38-3.93a.39.39,0,1,0,.52-.18A.39.39,0,0,0,479.11,686.11Zm-8.37-3.92a.38.38,0,0,0,.69.33.39.39,0,0,0-.19-.51A.37.37,0,0,0,470.74,682.19ZM535,666a.38.38,0,0,0-.51.18.38.38,0,0,0,.18.51.38.38,0,0,0,.51-.19A.37.37,0,0,0,535,666Zm3.93-8.36a.39.39,0,0,0-.52.18.38.38,0,0,0,.19.5.38.38,0,0,0,.51-.18A.37.37,0,0,0,538.91,657.6Zm-44,32.24a.17.17,0,0,0-.11.23.18.18,0,0,0,.23.11.18.18,0,0,0,.1-.23A.16.16,0,0,0,494.88,689.84Zm8.64-3.66a.17.17,0,0,0-.19.17.17.17,0,0,0,.17.18.18.18,0,0,0,.19-.17A.17.17,0,0,0,503.52,686.18Zm-17.3,6.22a.18.18,0,0,0,0,.25.18.18,0,0,0,.26,0,.18.18,0,0,0,0-.25A.2.2,0,0,0,486.22,692.4Zm2.28,3a.2.2,0,0,0-.16.23.2.2,0,0,0,.24.15.2.2,0,0,0,.15-.23A.18.18,0,0,0,488.5,695.39Zm-.95-4.64a.19.19,0,0,0-.15.23.2.2,0,0,0,.23.16.19.19,0,0,0,.15-.24A.2.2,0,0,0,487.55,690.75ZM472.49,701.1a.19.19,0,0,0,.05.27.2.2,0,0,0,.28-.06.2.2,0,1,0-.33-.21Zm25.06-12.57a.19.19,0,1,0-.07.38.18.18,0,0,0,.22-.15A.18.18,0,0,0,497.55,688.53Zm-17,7.94a.2.2,0,0,0-.06.28.22.22,0,0,0,.28,0,.19.19,0,0,0,.05-.27A.2.2,0,0,0,480.52,696.47Zm-2.66-3.91a.19.19,0,0,0,.22.32.19.19,0,1,0-.22-.32Zm1.23,6.19a.16.16,0,0,0-.07.22.15.15,0,0,0,.21.07.16.16,0,0,0,.08-.21A.18.18,0,0,0,479.09,698.75Zm7.59-3.76a.17.17,0,0,0-.16.17.16.16,0,0,0,.17.15.15.15,0,0,0,.15-.16A.16.16,0,0,0,486.68,695Zm-14.83,7a.16.16,0,1,0,.22,0A.15.15,0,0,0,471.85,701.94Zm-4-3.08a.25.25,0,1,0,.29.2A.25.25,0,0,0,467.89,698.86Zm-1.17-5.81a.25.25,0,0,0-.2.29.24.24,0,0,0,.29.19.23.23,0,0,0,.2-.28A.25.25,0,0,0,466.72,693.05Zm-14,16.19a.25.25,0,0,0,.41.28.23.23,0,0,0-.07-.34A.24.24,0,0,0,452.75,709.24ZM447.8,706a.25.25,0,0,0,.07.34.24.24,0,0,0,.34-.06.25.25,0,0,0-.06-.35A.26.26,0,0,0,447.8,706Zm30.31-9.84a.25.25,0,0,0-.09.49.26.26,0,0,0,.29-.2A.25.25,0,0,0,478.11,696.12Zm1.15-5.81a.24.24,0,0,0-.29.19.25.25,0,0,0,.19.29.24.24,0,0,0,.29-.2A.23.23,0,0,0,479.26,690.31Zm-18.06,14.8a.25.25,0,0,0-.07.35.24.24,0,0,0,.34.06.25.25,0,0,0,.07-.34A.25.25,0,0,0,461.2,705.11Zm-3.32-4.92a.25.25,0,0,0-.06.35.25.25,0,0,0,.41-.28A.26.26,0,0,0,457.88,700.19Zm-3.31-4.92a.25.25,0,0,0,.28.41.25.25,0,0,0,.07-.34A.26.26,0,0,0,454.57,695.27Zm4,10.65a.2.2,0,0,0-.09.29.21.21,0,0,0,.28.09.22.22,0,0,0,.1-.29A.22.22,0,0,0,458.54,705.92Zm-2.34-4.63a.21.21,0,1,0,.2.38.2.2,0,0,0,.09-.28A.22.22,0,0,0,456.2,701.29Zm20-1.67a.22.22,0,0,0-.27.14.21.21,0,0,0,.13.27.22.22,0,0,0,.28-.14A.23.23,0,0,0,476.16,699.62Zm-26,9.65a.21.21,0,1,0,.3,0A.21.21,0,0,0,450.13,709.27Zm-3.94-3.38a.22.22,0,0,0,0,.3.21.21,0,0,0,.3,0,.22.22,0,0,0,0-.31A.23.23,0,0,0,446.19,705.89Zm20-4.75a.22.22,0,1,0,0,.43.22.22,0,0,0,.2-.24A.21.21,0,0,0,466.23,701.14Zm-.39-5.16a.21.21,0,0,0-.2.23.22.22,0,0,0,.43,0A.21.21,0,0,0,465.84,696Zm-3,4.75a.36.36,0,1,0,.36.35A.35.35,0,0,0,462.85,700.73Zm0-8.62a.36.36,0,0,0-.36.36.36.36,0,0,0,.36.35.36.36,0,1,0,0-.71Zm0-8.61a.36.36,0,1,0,0,.71.36.36,0,0,0,0-.71Zm-18.33,25.25a.35.35,0,0,0,0,.5.36.36,0,0,0,.51,0,.35.35,0,0,0,0-.51A.36.36,0,0,0,444.44,708.75Zm-6.13-6.06a.35.35,0,0,0,.5.5.35.35,0,1,0-.5-.5Zm-6.14-6.06a.37.37,0,0,0,0,.5.36.36,0,0,0,.51-.51A.35.35,0,0,0,432.17,696.63Zm42.47,1.8a.36.36,0,0,0-.47.2.36.36,0,1,0,.47-.2Zm3.26-8a.37.37,0,0,0-.47.2.36.36,0,0,0,.2.46.35.35,0,0,0,.46-.19A.36.36,0,0,0,477.9,690.45Zm3.26-8a.35.35,0,0,0-.46.19.35.35,0,0,0,.19.47.36.36,0,1,0,.27-.66Zm-26.57,24a.36.36,0,0,0,.28.66.36.36,0,0,0,.19-.47A.36.36,0,0,0,454.59,706.49Zm-3.34-7.94a.35.35,0,0,0-.19.47.36.36,0,0,0,.66-.28A.36.36,0,0,0,451.25,698.55Zm-3.34-7.95a.35.35,0,0,0-.19.47.35.35,0,0,0,.47.19.36.36,0,0,0,.19-.47A.37.37,0,0,0,447.91,690.6Zm-3.34-7.94a.36.36,0,1,0,.47.19A.37.37,0,0,0,444.57,682.66Zm-9.77,32.48a.35.35,0,0,0,.2.47.35.35,0,0,0,.46-.19.35.35,0,0,0-.2-.47A.35.35,0,0,0,434.8,715.14Zm-8-3.25a.36.36,0,0,0,.66.27.35.35,0,0,0-.19-.47A.36.36,0,0,0,426.81,711.89Zm25.12-2a.27.27,0,0,0-.17.34.27.27,0,0,0,.52-.16A.29.29,0,0,0,451.93,709.9Zm-2.05-6.19a.27.27,0,0,0-.17.34.26.26,0,0,0,.34.17.27.27,0,0,0-.17-.51Zm-2.05-6.19a.28.28,0,0,0-.18.34.27.27,0,0,0,.52-.17A.26.26,0,0,0,447.83,697.52Zm-19,16.61a.27.27,0,1,0,.37-.12A.27.27,0,0,0,428.87,714.13Zm44.12-15a.27.27,0,1,0,.12.36A.27.27,0,0,0,473,699.15Zm-29.94,12.11a.27.27,0,0,0,0,.38.28.28,0,0,0,.38,0,.29.29,0,0,0,0-.39A.28.28,0,0,0,443.05,711.26Zm-4.27-4.94a.26.26,0,0,0,0,.38.27.27,0,1,0,.41-.35A.26.26,0,0,0,438.78,706.32Zm-4.27-4.94a.27.27,0,0,0,0,.38.28.28,0,0,0,.39,0,.27.27,0,1,0-.36-.4Zm25.36,4.32a.27.27,0,1,0,0,.54.28.28,0,0,0,.29-.25A.27.27,0,0,0,459.87,705.7Zm.47-6.51a.26.26,0,0,0-.28.25.27.27,0,0,0,.25.29.27.27,0,1,0,0-.54Zm.48-6.5a.27.27,0,0,0-.29.25.26.26,0,0,0,.25.28.27.27,0,0,0,.29-.25A.26.26,0,0,0,460.82,692.69Zm-12,12.85a.28.28,0,0,0-.29.27.29.29,0,0,0,.28.29.28.28,0,0,0,.29-.28A.29.29,0,0,0,448.79,705.54Zm.11-6.77a.28.28,0,1,0,0,.56.27.27,0,0,0,.28-.27A.28.28,0,0,0,448.9,698.77Zm-19.53,14.67a.27.27,0,0,0,0,.39.26.26,0,0,0,.39,0,.28.28,0,1,0-.39-.4Zm-4.71-4.87a.28.28,0,1,0,.39.4.27.27,0,0,0,0-.39A.29.29,0,0,0,424.66,708.57Zm14.86,2a.28.28,0,1,0,.21.52.28.28,0,0,0,.15-.36A.27.27,0,0,0,439.52,710.6ZM437,704.31a.28.28,0,0,0-.16.36.29.29,0,0,0,.37.16.28.28,0,0,0,.15-.37A.28.28,0,0,0,437,704.31Zm-2.49-6.3a.28.28,0,0,0,.2.53.28.28,0,0,0,.16-.37A.29.29,0,0,0,434.54,698Zm26,6.67a.29.29,0,0,0-.37.15.29.29,0,0,0,.15.37.28.28,0,0,0,.22-.52Zm2.7-6.21a.29.29,0,0,0-.37.15.27.27,0,0,0,.14.36.27.27,0,0,0,.37-.14A.29.29,0,0,0,463.28,698.47Z"/></g><path id="R_hand_2_-i8" data-name="R hand 2 -i8" class="cls-15" d="M936.86,710.42,932.4,716c-1.76,1.3-4.08,2.8-6.61,4.31-9.79,5.91-28.69,8.57-40.1,7.62-25.33-2.11-45.81-20.21-56.79-19.22-9.41.88-49.22,24.33-73.77,39.29l-23.2-47.12c35.83-12.33,87.43-26,103.9-33,30.85-13.21,55.35-17.6,55.35-17.6,9.74,17.36-26.1,18.23-25,25.42s.11,7,31.35,13.71C932.46,696.89,941.55,704.37,936.86,710.42Z"/><path class="cls-18" d="M776.74,791.91s-31.67,30.78-81.69,35.78-119.34,60.59-119.34,60.59-6.3-8.68-22.21-4.34c-.75.22-1.5.43-2.19.7a29.39,29.39,0,0,0-8.16,4.31c-.4.29-.77.61-1.15.91s-.77.69-1.14,1-.72.7-1,1a27.05,27.05,0,0,0-4.32,6.12.65.65,0,0,0-.08.22,1.18,1.18,0,0,0-.16.29,1.31,1.31,0,0,0-.11.29,6.31,6.31,0,0,0-.16,4.43,5.17,5.17,0,0,0,.21.63l7.68,19.57c-.67.56-1.28,1.09-1.89,1.68s-1.15,1.12-1.68,1.67c-13,13.71-8.56,28.91-9.95,31.34-3.17,5.56-11.54,10.56-6.85,14.48,1.79,1.49,6.43,3.67,11.41,5.8l-.85,12.72,0,.35-2.74,40.65-.54,7.77-.48,7.06v.19l-1.2,17.75,0,.32-.53,7.93-90.87,34.13s-18.32-13.34-9.17-59.1,35-131.48,2.51-184.75-80.85-63.25-71.67-94,47.51-38.29,70.84-45.79,44.18-14.14,80-38.29,76.68-30,76.68-30l1.66,93.2s10.85.83,51.7-23.29,90-30,90-30Z"/><g id="head-i8"><path id="neck_2_-i8" data-name="neck 2 -i8" class="cls-19" d="M542.88,923.45l-7.66-19.55a7.14,7.14,0,0,1,.29-5.86c2.09-4.15,7.12-11.15,18-14.11,15.93-4.34,22.21,4.34,22.21,4.34s1.85,14.87,5.33,25.61"/><path id="face_3_-i8" data-name="face 3 -i8" class="cls-15" d="M542.88,923.45c-17.4,14.44-12,32-13.52,34.71-3.15,5.57-11.53,10.56-6.84,14.46s28.29,12.46,28.29,12.46c9.65-28,37.45-38.49,42.76-39s12-.57,13.21-8.53c1.64-10.52-13.69-9.79-20.45-14.13-2.05-1.32-3.84-5.08-5.33-9.68C581,913.77,557.46,911.35,542.88,923.45Z"/><g id="hair_3_-i8" data-name="hair 3 -i8"><path id="hair_4_-i8" data-name="hair 4 -i8" class="cls-3" d="M630.48,990.62c-25.15,15.42-40.58,21.7-38.85,40l-31.44,21.11s-20-34.68-9.36-66.68h0c9.68-28,37.44-38.42,42.75-38.9s12.82-1.15,13.27-9.68c.5-9.32-13.76-8.63-20.53-13-2.47-1.57-4.56-6.74-6.21-12.65-.12-.47-.19-.7-.29-1.06,0,0,36.36-19,58.66,7.26S655.62,975.21,630.48,990.62Z"/><path id="hair_7_-i8" data-name="hair 7 -i8" class="cls-18" d="M558.38,972.48a77.37,77.37,0,0,0-7.31,74.23c.33.78,1.62.44,1.29-.35a76.09,76.09,0,0,1,7.17-73.21c.49-.71-.67-1.38-1.15-.67Z"/></g><g id="eye_2_-i8" data-name="eye 2 -i8"><path id="eye-i8" class="cls-18" d="M546.68,976.29a6.22,6.22,0,0,1,8.1-8.84c.76.38,1.44-.77.67-1.15A7.5,7.5,0,0,0,545.52,977c.45.73,1.61.06,1.16-.67Z"/></g></g><path class="cls-17" d="M527.64,1064.75a.38.38,0,0,0-.19.48.33.33,0,0,0,.48.16.27.27,0,0,0,.13-.13l0-.32A.34.34,0,0,0,527.64,1064.75Zm-7.28,3.86a.39.39,0,0,0-.48-.16.33.33,0,0,0-.16.48.34.34,0,0,0,.45.16A.36.36,0,0,0,520.36,1068.61Zm7.62-23a.35.35,0,0,0-.45-.16.36.36,0,0,0-.19.48.36.36,0,1,0,.64-.32Zm-3.68-7.72a.36.36,0,0,0-.48-.18.37.37,0,0,0-.16.48.37.37,0,0,0,.48.18A.39.39,0,0,0,524.3,1037.86Zm-3.7-7.74a.35.35,0,0,0-.46-.17.37.37,0,0,0-.19.48.38.38,0,0,0,.48.16A.33.33,0,0,0,520.6,1030.12Zm-3.68-7.75a.38.38,0,0,0-.48-.16.35.35,0,0,0-.16.48.36.36,0,0,0,.64-.32Zm10.37,35.83a.37.37,0,0,0-.46.22.34.34,0,0,0,.22.45.34.34,0,0,0,.45-.21A.38.38,0,0,0,527.29,1058.2Zm-8.11-2.85a.34.34,0,0,0-.45.22.36.36,0,0,0,.21.45.37.37,0,0,0,.46-.21A.35.35,0,0,0,519.18,1055.35Zm-8.08-2.87a.34.34,0,0,0-.45.21.33.33,0,0,0,.21.45.35.35,0,0,0,.46-.21A.35.35,0,0,0,511.1,1052.48Zm-8.1-2.88a.37.37,0,0,0-.45.22.39.39,0,0,0,.21.48.37.37,0,0,0,.45-.24A.35.35,0,0,0,503,1049.6Zm-8.08-2.84a.33.33,0,0,0-.45.21.34.34,0,0,0,.21.45.35.35,0,0,0,.45-.21A.34.34,0,0,0,494.92,1046.76Zm31.28,5.77a.36.36,0,0,0-.43,0l-.08.08c-.05,0-.05.1-.05.16a.3.3,0,0,0,.08.34.39.39,0,0,0,.5,0A.36.36,0,0,0,526.2,1052.53Zm-6.38-5.75a.36.36,0,0,0-.48.53.36.36,0,1,0,.48-.53Zm-6.37-5.75a.38.38,0,0,0-.5,0,.36.36,0,0,0,0,.5.35.35,0,0,0,.51,0A.37.37,0,0,0,513.45,1041Zm-6.37-5.72a.35.35,0,0,0-.51,0,.35.35,0,0,0,0,.51.37.37,0,0,0,.5,0A.36.36,0,0,0,507.08,1035.31Zm-6.4-5.75a.34.34,0,0,0-.48,0,.36.36,0,0,0,0,.51.32.32,0,0,0,.48,0A.33.33,0,0,0,500.68,1029.56Zm22,32.16a.36.36,0,0,0-.35.37.37.37,0,0,0,.37.32.34.34,0,0,0,.35-.37A.33.33,0,0,0,522.65,1061.72Zm-8.59.42a.35.35,0,0,0-.31.37.34.34,0,0,0,.37.35.35.35,0,0,0,.32-.37A.36.36,0,0,0,514.06,1062.14Zm-8.56.45a.36.36,0,0,0-.34.38.39.39,0,0,0,.37.34.37.37,0,0,0,.35-.37A.39.39,0,0,0,505.5,1062.59Zm-8.58.46a.35.35,0,1,0,.37.32A.32.32,0,0,0,496.92,1063.05Zm-8.56.42a.39.39,0,0,0-.35.37.36.36,0,0,0,.38.35.38.38,0,0,0,.34-.37A.39.39,0,0,0,488.36,1063.47Zm39.38-12.91a.19.19,0,0,0-.29.06s0,.08,0,.1a.26.26,0,0,0,.08.19.29.29,0,0,0,.14,0,.17.17,0,0,0,.16-.08A.19.19,0,0,0,527.74,1050.56Zm-4.18-2.82a.19.19,0,0,0-.3,0,.26.26,0,0,0,.06.3.24.24,0,0,0,.29-.06A.19.19,0,0,0,523.56,1047.74Zm-4.19-2.82a.18.18,0,0,0-.29,0,.2.2,0,0,0,0,.3.26.26,0,0,0,.3-.06A.23.23,0,0,0,519.37,1044.92Zm-4.19-2.82a.18.18,0,0,0-.29.05.2.2,0,0,0,.05.29.25.25,0,0,0,.3,0A.23.23,0,0,0,515.18,1042.1Zm11,16a.2.2,0,0,0-.16.24.23.23,0,0,0,.24.19.24.24,0,0,0,.16-.27C526.44,1058.17,526.3,1058.1,526.2,1058.12Zm-5,1a.22.22,0,0,0-.16.27.21.21,0,0,0,.24.16.23.23,0,0,0,.16-.24C521.45,1059.13,521.34,1059.05,521.24,1059.08Zm-5,1a.23.23,0,0,0-.17.26.21.21,0,1,0,.41-.07A.23.23,0,0,0,516.28,1060Zm-5,1a.18.18,0,0,0-.16.23.2.2,0,0,0,.24.17.23.23,0,0,0,.16-.24A.2.2,0,0,0,511.32,1061Zm17.54-15.63a.18.18,0,0,0-.05.29.23.23,0,0,0,.29.06.26.26,0,0,0,.06-.3A.19.19,0,0,0,528.86,1045.4Zm-2.51-4.16a.19.19,0,0,0-.29,0s0,0,0,0a.2.2,0,0,0,0,.24l0,0a.22.22,0,0,0,.26,0A.18.18,0,0,0,526.35,1041.24Zm-3.06-4.28a.2.2,0,0,0-.06.29.22.22,0,0,0,.3.08.23.23,0,0,0,.05-.29A.22.22,0,0,0,523.29,1037Zm-2.51-4.13a.22.22,0,0,0-.29-.08.27.27,0,0,0-.06.3.2.2,0,0,0,.3,0A.17.17,0,0,0,520.78,1032.83Zm2.83,20.53a.2.2,0,0,0-.24.16.21.21,0,0,0,.16.26.2.2,0,0,0,.24-.16A.21.21,0,0,0,523.61,1053.36Zm-5-1a.23.23,0,0,0-.24.19.21.21,0,0,0,.16.24.19.19,0,0,0,.24-.16A.22.22,0,0,0,518.65,1052.34Zm-5-1a.2.2,0,0,0-.24.16.21.21,0,0,0,.16.24.22.22,0,0,0,.27-.16A.2.2,0,0,0,513.69,1051.36Zm-4.93-1a.22.22,0,0,0-.27.16.23.23,0,0,0,.19.24.2.2,0,0,0,.24-.16A.21.21,0,0,0,508.76,1050.35Zm16.82,12.59a.18.18,0,0,0-.29,0,.2.2,0,0,0-.06.26.22.22,0,0,0,.3.08A.19.19,0,0,0,525.58,1062.94Zm-4.5,2.72a.24.24,0,0,0-.06.29.19.19,0,0,0,.3,0,.23.23,0,0,0,0-.29A.22.22,0,0,0,521.08,1065.66Zm-4.22,2.79a.2.2,0,0,0-.05.3.24.24,0,0,0,.29,0,.25.25,0,0,0,.06-.29A.19.19,0,0,0,516.86,1068.45Zm-4.21,2.77a.21.21,0,0,0,.24.35.2.2,0,0,0,.05-.27A.22.22,0,0,0,512.65,1071.22Zm14.9-26.94a.16.16,0,0,0-.21,0,.17.17,0,0,0,0,.22c.08,0,.16,0,.21,0A.14.14,0,0,0,527.55,1044.28Zm-3-2.13a.12.12,0,0,0-.19,0c0,.06,0,.17,0,.19a.13.13,0,0,0,.21,0A.16.16,0,0,0,524.57,1042.15Zm-3-2.13a.17.17,0,0,0-.21.06c-.06.05,0,.16,0,.21s.19,0,.22,0A.15.15,0,0,0,521.61,1040Zm4.16,12.46a.11.11,0,0,0-.13,0,.12.12,0,0,0-.11.16.11.11,0,0,0,.11.11.08.08,0,0,0,.05,0,.18.18,0,0,0,.13-.18A.35.35,0,0,0,525.77,1052.48ZM522,1053a.12.12,0,0,0-.11.16c0,.11.08.16.16.13a.15.15,0,0,0,.13-.16C522.2,1053.06,522.12,1053,522,1053Zm-3.6.58a.21.21,0,0,0-.14.19.16.16,0,0,0,.19.11.13.13,0,0,0,.11-.17A.15.15,0,0,0,518.44,1053.62Zm9.73,8.87a.15.15,0,0,0-.21,0,.17.17,0,0,0,0,.22.18.18,0,0,0,.22,0A.16.16,0,0,0,528.17,1062.49Zm-2.13,3a.15.15,0,0,0-.22.06c-.05,0,0,.16,0,.21a.16.16,0,0,0,.21,0A.18.18,0,0,0,526,1065.44Zm1.46-16.88a.12.12,0,0,0-.16.11.16.16,0,0,0,.3.08A.21.21,0,0,0,527.5,1048.56Zm-3.54-.82a.15.15,0,0,0-.19.11.14.14,0,0,0,.11.18c.08,0,.16,0,.18-.1S524,1047.74,524,1047.74Zm-3.58-.82a.11.11,0,0,0-.16.1.16.16,0,0,0,.11.19.18.18,0,0,0,.19-.13A.15.15,0,0,0,520.38,1046.92Zm-3.54-.83a.16.16,0,0,0-.19.11.14.14,0,0,0,.11.18.18.18,0,0,0,.18-.13A.11.11,0,0,0,516.84,1046.09Zm8.58,11.31a.13.13,0,0,0,0,.19.12.12,0,0,0,.18.06.15.15,0,0,0,.06-.22A.17.17,0,0,0,525.42,1057.4Zm-3.09,1.92a.17.17,0,0,0-.06.21.19.19,0,0,0,.22.06.15.15,0,0,0,0-.22A.14.14,0,0,0,522.33,1059.32Zm-3.09,1.92c-.08,0-.11.16-.06.21a.14.14,0,0,0,.22,0,.16.16,0,0,0-.16-.26Zm10.5-21.38a.13.13,0,0,0-.21,0,.15.15,0,0,0,0,.21.17.17,0,0,0,.19,0,.14.14,0,0,0,.08-.13A.09.09,0,0,0,529.74,1039.86Zm-2.13-3.14c-.08,0-.08.13-.06.19a.15.15,0,0,0,.22,0,.13.13,0,0,0,.05-.21A.15.15,0,0,0,527.61,1036.72Zm-1.92-3.12a.16.16,0,0,0-.06.22.15.15,0,0,0,.22,0,.2.2,0,0,0,0-.21A.18.18,0,0,0,525.69,1033.6Zm3.2,5.57a.14.14,0,0,0-.22,0,.19.19,0,0,0,0,.19.15.15,0,0,0,.21,0C529,1039.3,528.94,1039.22,528.89,1039.17Zm-2.69-2.11a.14.14,0,0,0-.16.22.11.11,0,0,0,.18,0A.11.11,0,0,0,526.2,1037.06Zm-2.88-2.07a.13.13,0,0,0,0,.19.12.12,0,0,0,.19,0,.14.14,0,0,0,0-.19A.16.16,0,0,0,523.32,1035Zm3.46,11.71a.11.11,0,0,0-.11.13.15.15,0,0,0,.14.14c.08,0,.13-.08.13-.17A.12.12,0,0,0,526.78,1046.7Zm-3.38.4a.14.14,0,1,0,.05.27s.11-.08.11-.13A.15.15,0,0,0,523.4,1047.1Zm-3.39.4c-.08,0-.13.08-.11.16a.15.15,0,0,0,.16.13.13.13,0,0,0,.11-.16A.15.15,0,0,0,520,1047.5Zm6.61,11.34a.12.12,0,0,0-.19,0,.11.11,0,0,0,0,.18c0,.06.13,0,.19,0A.12.12,0,0,0,526.62,1058.84Zm2.56-26.83a.16.16,0,0,0,0,.18c0,.08.13.11.18.06a.12.12,0,0,0,.06-.19A.16.16,0,0,0,529.18,1032Zm-1.68-3a.14.14,0,1,0,.16.24c.06,0,.08-.13.06-.18A.16.16,0,0,0,527.5,1029.05Zm1.12,14a.12.12,0,0,0-.16.11c0,.06,0,.13.08.16a.15.15,0,0,0,.19-.1A.15.15,0,0,0,528.62,1043.05Zm-3.28-.9a.17.17,0,0,0-.19.08.19.19,0,0,0,.11.19.16.16,0,0,0,.19-.11C525.45,1042.23,525.42,1042.15,525.34,1042.15Zm-3.28-.93c-.08,0-.16,0-.18.11a.14.14,0,0,0,.1.18c.08,0,.17,0,.17-.1S522.14,1041.24,522.06,1041.22Zm-3.28-.91a.15.15,0,0,0-.18.11c0,.08,0,.13.1.16a.12.12,0,0,0,.16-.08A.16.16,0,0,0,518.78,1040.31Zm7.55,10.89a.18.18,0,0,0-.05.19.14.14,0,0,0,.21,0,.15.15,0,0,0,0-.19A.2.2,0,0,0,526.33,1051.2Zm-3,1.68c-.08,0-.08.13-.06.18a.13.13,0,0,0,.19.06.12.12,0,0,0,.06-.19C523.53,1052.85,523.45,1052.85,523.37,1052.88Zm-3,1.67a.13.13,0,0,0-.06.19c0,.08.11.08.19.06a.18.18,0,0,0,.06-.19C520.54,1054.53,520.46,1054.5,520.41,1054.55Zm8.37-15.06s-.08,0-.11.08.06.08.08.11a.12.12,0,0,0,.11-.11A.09.09,0,0,0,528.78,1039.49Zm-2.1-.16a.11.11,0,0,0-.11.08s0,.1.08.1.11,0,.11-.08A.12.12,0,0,0,526.68,1039.33Zm2.56,7.69a.08.08,0,0,0,0,.11l0,0V1047S529.24,1047,529.24,1047Zm1-14.91a.07.07,0,0,0-.11,0c-.06,0-.06.08,0,.13s.11,0,.14,0,0,0,0,0S530.3,1032.11,530.28,1032.11Zm-2.11,11a.06.06,0,0,0,0,.1c0,.06,0,.06.1.06a.2.2,0,0,0,.06-.11C528.25,1043.11,528.2,1043.08,528.17,1043.11Zm-2,.66s0,.06,0,.11.08.08.11,0a.06.06,0,0,0,0-.1C526.25,1043.77,526.2,1043.75,526.14,1043.77Zm2.59-7.93s-.08,0-.11.05,0,.08,0,.11.1,0,.13,0S528.78,1035.87,528.73,1035.84Zm-1.9-.93a.06.06,0,0,0-.1,0,.13.13,0,0,0,0,.14c.06,0,.11,0,.14-.06S526.89,1034.91,526.83,1034.91Zm1.1,3.43a.29.29,0,0,0-.43.38.28.28,0,0,0,.4,0A.26.26,0,0,0,527.93,1038.34Zm-5.17,4.5a.28.28,0,0,0-.41,0,.29.29,0,0,0,0,.4.29.29,0,0,0,.4,0A.28.28,0,0,0,522.76,1042.84Zm-5.18,4.47a.28.28,0,0,0-.42.38.28.28,0,1,0,.42-.38Zm-5.17,4.5a.28.28,0,0,0-.43.37.28.28,0,1,0,.43-.37ZM528.89,1019a.26.26,0,0,0-.4,0,.29.29,0,0,0,0,.4.32.32,0,0,0,.4,0A.29.29,0,0,0,528.89,1019Zm-4.51-5.17a.26.26,0,0,0-.4,0,.28.28,0,0,0,0,.4.33.33,0,0,0,.4,0A.27.27,0,0,0,524.38,1013.85Zm-4.48-5.16a.29.29,0,0,0-.4-.06.29.29,0,0,0,.38.45A.28.28,0,0,0,519.9,1008.69Zm-4.5-5.17a.3.3,0,0,0-.4,0,.29.29,0,0,0,0,.4.27.27,0,0,0,.4,0A.26.26,0,0,0,515.4,1003.52Zm8.79,24.86a.26.26,0,0,0-.29.27.28.28,0,0,0,.56,0A.27.27,0,0,0,524.19,1028.38Zm-6.82-.47a.25.25,0,0,0-.29.26.25.25,0,0,0,.24.3.29.29,0,0,0,.31-.27A.26.26,0,0,0,517.37,1027.91Zm-6.85-.48a.27.27,0,0,0-.3.26.28.28,0,0,0,.27.3.26.26,0,0,0,.29-.27A.25.25,0,0,0,510.52,1027.43Zm-6.83-.48a.25.25,0,0,0-.29.26.26.26,0,0,0,.26.3.3.3,0,0,0,.3-.27A.27.27,0,0,0,503.69,1027Zm23.78,23.77s0,0-.05,0a.33.33,0,0,0-.32.13.31.31,0,0,0,.13.38.27.27,0,0,0,.38-.11c0-.08,0-.13,0-.19A.4.4,0,0,0,527.47,1050.72Zm-3,6.12a.33.33,0,0,0-.4.14.3.3,0,0,0,.54.26A.33.33,0,0,0,524.43,1056.84Zm-3.06,6.13a.29.29,0,0,0-.37.13.3.3,0,0,0,.1.4.35.35,0,0,0,.41-.13A.34.34,0,0,0,521.37,1063Zm9-56.41a.3.3,0,0,0-.16.37.33.33,0,0,0,.35.18.29.29,0,0,0,.19-.37A.28.28,0,0,0,530.35,1006.56Zm-2.15-6.5a.29.29,0,0,0,.18.56.3.3,0,0,0,.16-.37A.3.3,0,0,0,528.2,1000.06ZM526,993.59a.29.29,0,0,0-.16.35.27.27,0,0,0,.35.19.29.29,0,1,0-.19-.54Zm3,31.12a.28.28,0,0,0-.38.14.27.27,0,0,0,.11.37.28.28,0,0,0,.4-.14A.31.31,0,0,0,529,1024.71Zm-6.14-3.06a.3.3,0,0,0-.37.13.27.27,0,0,0,.11.38.3.3,0,0,0,.4-.11A.33.33,0,0,0,522.86,1021.65Zm-6.13-3a.26.26,0,0,0-.37.1.3.3,0,0,0,.1.4.34.34,0,0,0,.41-.13A.3.3,0,0,0,516.73,1018.62Zm-6.13-3.06a.29.29,0,0,0-.4.13.3.3,0,0,0,.13.37.31.31,0,0,0,.4-.13A.31.31,0,0,0,510.6,1015.56Zm-6.13-3.07a.31.31,0,0,0-.41.14.29.29,0,0,0,.14.37.26.26,0,0,0,.37-.13A.28.28,0,0,0,504.47,1012.49Zm23.75,20a.32.32,0,0,0-.18.35.28.28,0,0,0,.37.18.26.26,0,0,0,.18-.34A.29.29,0,0,0,528.22,1032.54Zm-6.5,2.16a.29.29,0,0,0-.17.37.27.27,0,0,0,.35.18.29.29,0,0,0,.19-.37A.33.33,0,0,0,521.72,1034.7Zm-6.48,2.18a.27.27,0,0,0-.19.34.28.28,0,1,0,.54-.16A.28.28,0,0,0,515.24,1036.88Zm-6.51,2.18a.25.25,0,0,0-.18.35.27.27,0,0,0,.34.19.3.3,0,0,0,.19-.38A.28.28,0,0,0,508.73,1039.06Zm-6.5,2.16a.28.28,0,0,0-.19.37.3.3,0,0,0,.37.16.27.27,0,0,0,.16-.34A.24.24,0,0,0,502.23,1041.22Zm27.06-32.72a.24.24,0,0,0-.35-.08.27.27,0,0,0-.11.35.31.31,0,0,0,.35.08A.28.28,0,0,0,529.29,1008.5Zm-3.49-5.3a.23.23,0,0,0-.08.35.24.24,0,0,0,.34.08.27.27,0,0,0,.08-.35A.26.26,0,0,0,525.8,1003.2Zm-2.8-5.11a.28.28,0,0,0-.35-.11.24.24,0,0,0-.08.35.26.26,0,0,0,.35.11A.27.27,0,0,0,523,998.09Zm3.89,23.11a.21.21,0,0,0-.3.16.24.24,0,0,0,.16.32.25.25,0,0,0,.32-.19A.24.24,0,0,0,526.89,1021.2Zm-5.92-1.47a.22.22,0,0,0-.3.19.25.25,0,0,0,.49.11A.24.24,0,0,0,521,1019.73Zm-5.89-1.46a.27.27,0,0,0-.32.19.24.24,0,0,0,.18.29.28.28,0,0,0,.32-.19A.24.24,0,0,0,515.08,1018.27Zm-5.92-1.46a.23.23,0,0,0-.3.18.22.22,0,0,0,.19.3.27.27,0,0,0,.3-.19A.25.25,0,0,0,509.16,1016.81Zm19.46,13.65a.26.26,0,0,0-.35-.08.27.27,0,0,0-.08.35.24.24,0,0,0,.35.08A.25.25,0,0,0,528.62,1030.46Zm-5.2,3.14a.27.27,0,0,0-.35-.08.27.27,0,0,0-.1.35.25.25,0,0,0,.34.08A.25.25,0,0,0,523.42,1033.6Zm-5.22,3.15a.25.25,0,0,0-.35-.08.24.24,0,0,0-.08.34.25.25,0,0,0,.35.08A.25.25,0,0,0,518.2,1036.75Zm-5.23,3.14a.24.24,0,0,0-.35-.08.25.25,0,0,0-.08.34.26.26,0,0,0,.35.08A.23.23,0,0,0,513,1039.89ZM526.38,1015a.24.24,0,0,0-.34.06.24.24,0,0,0,.05.34.25.25,0,0,0,.35,0A.22.22,0,0,0,526.38,1015Zm-4.88-3.62a.29.29,0,0,0-.37.06.25.25,0,0,0,0,.34.24.24,0,0,0,.38,0A.25.25,0,0,0,521.5,1011.4Zm-4.9-3.59a.24.24,0,0,0-.35.05.26.26,0,0,0,0,.35.25.25,0,0,0,.35-.06A.25.25,0,0,0,516.6,1007.81Zm-4.91-3.62a.25.25,0,1,0-.29.4.25.25,0,1,0,.29-.4Zm17.73,21.16a.26.26,0,0,0,.08.51.28.28,0,0,0,.22-.29A.27.27,0,0,0,529.42,1025.35Zm-6,.91a.28.28,0,0,0-.22.29.27.27,0,0,0,.3.21.26.26,0,0,0,.21-.29A.26.26,0,0,0,523.4,1026.26Zm-6,.9a.26.26,0,0,0-.22.3.23.23,0,0,0,.27.21.26.26,0,0,0,.21-.29A.24.24,0,0,0,517.4,1027.16Zm-6,.91a.26.26,0,0,0-.21.29.24.24,0,1,0,.48-.08A.23.23,0,0,0,511.37,1028.07Zm-6,.9a.28.28,0,0,0-.21.3.26.26,0,0,0,.29.21.29.29,0,0,0,.22-.29A.27.27,0,0,0,505.34,1029Zm24.27,7.3a.25.25,0,0,0-.35,0,.23.23,0,0,0,.06.35.24.24,0,0,0,.34-.06A.24.24,0,0,0,529.61,1036.27Zm-3.63,4.89a.25.25,0,1,0,.06.35.24.24,0,0,0,0-.26S526,1041.19,526,1041.16Zm-3.6,4.88a.26.26,0,0,0-.37.08.25.25,0,0,0,0,.34.29.29,0,0,0,.38,0A.29.29,0,0,0,522.38,1046Zm-3.62,4.9a.25.25,0,0,0-.3.4.22.22,0,0,0,.35-.06A.25.25,0,0,0,518.76,1050.94Zm9.6-36.61a.14.14,0,0,0-.17.06.13.13,0,0,0,.08.16c.06,0,.11,0,.17-.06A.12.12,0,0,0,528.36,1014.33Zm-2.64-1.2a.13.13,0,0,0-.17.08.13.13,0,0,0,.06.16c.08,0,.13,0,.16-.08A.13.13,0,0,0,525.72,1013.13Zm2.4,10.06a.11.11,0,0,0-.06.14.09.09,0,0,0,.13.08c.08,0,.11-.08.08-.16A.12.12,0,0,0,528.12,1023.19Zm-2.7,1c-.08,0-.1.08-.08.14a.12.12,0,0,0,.16.08.14.14,0,0,0,.06-.17A.11.11,0,0,0,525.42,1024.23Zm4.43-14.85a.15.15,0,0,0,0,.19.13.13,0,0,0,.19-.19A.14.14,0,0,0,529.85,1009.38Zm-2-2.1a.12.12,0,0,0,0,.16.17.17,0,0,0,.19,0,.13.13,0,0,0,0-.18C528,1007.22,527.9,1007.22,527.88,1007.28Zm.87,11.26a.11.11,0,0,0-.1.1c0,.08.05.14.1.14a.13.13,0,0,0,.14-.11A.13.13,0,0,0,528.75,1018.54Zm-2.87-.08c-.08,0-.14,0-.14.1a.13.13,0,0,0,.11.14.12.12,0,0,0,.13-.11C526,1018.51,525.93,1018.46,525.88,1018.46Zm-2.91-.08c-.08,0-.13,0-.13.1a.13.13,0,0,0,.13.14.13.13,0,0,0,.11-.11A.12.12,0,0,0,523,1018.38Zm6.37,9.42c0,.06-.05.13,0,.19s.13,0,.19,0a.31.31,0,0,0,0-.19A.21.21,0,0,0,529.34,1027.8Zm-2.1,2s-.06.13,0,.16a.15.15,0,0,0,.18,0,.19.19,0,0,0,0-.18A.11.11,0,0,0,527.24,1029.8Zm4.55-47.65a.33.33,0,0,0-.24.4.32.32,0,0,0,.41.24.32.32,0,0,0,.24-.4A.37.37,0,0,0,531.79,982.15Zm-5.81,23a.32.32,0,0,0-.45.11.33.33,0,0,0,.1.45.31.31,0,0,0,.46-.1A.32.32,0,0,0,526,1005.17Zm-6.82-4.18a.32.32,0,0,0-.46.11.31.31,0,0,0,.11.45.33.33,0,0,0,.45-.1A.32.32,0,0,0,519.16,1001Zm-6.83-4.2a.37.37,0,0,0-.48.1.36.36,0,0,0,.13.46.34.34,0,0,0,.46-.11A.37.37,0,0,0,512.33,996.79Zm-6.85-4.18a.32.32,0,0,0-.46.1.33.33,0,0,0,.11.46.33.33,0,0,0,.35-.56Zm18.58,24.68a.31.31,0,0,0-.24.4.32.32,0,0,0,.4.23.34.34,0,0,0,.24-.39A.31.31,0,0,0,524.06,1017.29Zm-7.81,1.86a.33.33,0,0,0,.16.64.31.31,0,0,0,.24-.4A.3.3,0,0,0,516.25,1019.15Zm-7.79,1.86a.32.32,0,0,0-.24.4.35.35,0,0,0,.41.24.36.36,0,0,0,.24-.4A.33.33,0,0,0,508.46,1021Zm-7.81,1.87a.32.32,0,0,0-.24.4.38.38,0,0,0,.4.24.31.31,0,0,0,.24-.4A.3.3,0,0,0,500.65,1022.88Zm26.88,11a.33.33,0,0,0-.46.11.33.33,0,0,0,.11.46.36.36,0,0,0,.46-.11A.33.33,0,0,0,527.53,1033.92Zm-4.19,6.82a.3.3,0,0,0-.45.1.31.31,0,0,0,.11.46.33.33,0,0,0,.45-.11A.36.36,0,0,0,523.34,1040.74Zm-4.21,6.81a.37.37,0,0,0-.45.11.34.34,0,0,0,.1.48.36.36,0,0,0,.46-.13A.34.34,0,0,0,519.13,1047.55Zm8.69-50.31a.31.31,0,0,0-.45-.08.31.31,0,0,0-.08.45.32.32,0,1,0,.53-.37Zm-4.69-6.5a.35.35,0,0,0-.48-.08.38.38,0,0,0-.06.48.35.35,0,0,0,.46.06A.32.32,0,0,0,523.13,990.74Zm-4.72-6.46a.32.32,0,0,0-.53.37.32.32,0,0,0,.53-.37Zm-4.69-6.5a.34.34,0,0,0-.48-.08.36.36,0,0,0-.08.48.37.37,0,0,0,.48.05A.34.34,0,0,0,513.72,977.78Zm13.78,33.62a.34.34,0,0,0-.1.67.38.38,0,0,0,.4-.27A.37.37,0,0,0,527.5,1011.4Zm-7.92-1.25a.34.34,0,0,0-.37.27.37.37,0,0,0,.27.4.39.39,0,0,0,.4-.3A.36.36,0,0,0,519.58,1010.15Zm-7.91-1.25a.32.32,0,0,0-.38.26.32.32,0,0,0,.27.38.36.36,0,0,0,.4-.27A.34.34,0,0,0,511.67,1008.9Zm-7.93-1.28a.34.34,0,0,0-.37.3.32.32,0,0,0,.27.37.34.34,0,0,0,.37-.27C504.07,1007.84,503.93,1007.68,503.74,1007.62Zm-7.91-1.25a.35.35,0,0,0-.38.27.33.33,0,0,0,.27.39.32.32,0,0,0,.37-.29A.32.32,0,0,0,495.83,1006.37Zm34,14.11a.33.33,0,1,0-.53.4.33.33,0,1,0,.53-.4Zm-6.5,4.71a.33.33,0,1,0-.08.46A.32.32,0,0,0,523.37,1025.19Zm-6.48,4.69a.35.35,0,0,0-.48-.06.3.3,0,0,0,0,.45.3.3,0,0,0,.45.08A.33.33,0,0,0,516.89,1029.88Zm-6.51,4.71a.31.31,0,0,0-.45-.08.34.34,0,0,0-.08.48.33.33,0,0,0,.45,0A.3.3,0,0,0,510.38,1034.59Zm-6.47,4.71a.34.34,0,0,0-.48-.08.33.33,0,0,0-.06.46.32.32,0,0,0,.46.08A.34.34,0,0,0,503.91,1039.3Zm25.22-22.44a.3.3,0,0,0-.4,0,.28.28,0,0,0-.06.41.3.3,0,0,0,.46-.38Zm-5.44,4.36a.29.29,0,0,0-.4,0,.3.3,0,0,0-.06.4.33.33,0,0,0,.43,0A.29.29,0,0,0,523.69,1021.22Zm-5.41,4.37a.36.36,0,0,0-.43,0,.32.32,0,0,0,0,.42.3.3,0,0,0,.46-.37Zm-5.44,4.37a.29.29,0,0,0-.4-.06.3.3,0,0,0-.06.43.28.28,0,0,0,.4,0A.26.26,0,0,0,512.84,1030Zm18-32.72a.28.28,0,0,0-.4,0,.26.26,0,0,0,0,.39.29.29,0,0,0,.4.06A.3.3,0,0,0,530.83,997.24Zm-4.37-5.4a.29.29,0,0,0-.4-.06.3.3,0,0,0,.37.46A.29.29,0,0,0,526.46,991.84Zm-4.37-5.43a.28.28,0,0,0-.4,0,.3.3,0,0,0-.06.4.32.32,0,0,0,.43,0A.27.27,0,0,0,522.09,986.41ZM517.72,981a.27.27,0,0,0-.4,0,.29.29,0,0,0-.06.4.34.34,0,0,0,.43,0A.3.3,0,0,0,517.72,981Zm8,25.61a.27.27,0,0,0-.32.24.31.31,0,0,0,.26.32.3.3,0,0,0,.32-.24A.29.29,0,0,0,525.72,1006.61Zm-6.94-.74a.27.27,0,0,0-.32.24.32.32,0,0,0,.27.32.31.31,0,0,0,.32-.27A.29.29,0,0,0,518.78,1005.87Zm-6.93-.78a.3.3,0,0,0-.05.59.31.31,0,0,0,.32-.27A.32.32,0,0,0,511.85,1005.09Zm-6.93-.74a.31.31,0,0,0-.32.26.32.32,0,0,0,.26.32.29.29,0,0,0,.06-.58Zm23.28,25.1a.32.32,0,0,0-.41.11.29.29,0,0,0,.14.4.29.29,0,0,0,.37-.13A.27.27,0,0,0,528.2,1029.45Zm-3.34,6.1a.29.29,0,0,0-.4.11.28.28,0,0,0,.11.39.3.3,0,0,0,.4-.1A.29.29,0,0,0,524.86,1035.55Zm-3.36,6.1a.29.29,0,0,0-.4.13.31.31,0,0,0,.13.37.27.27,0,0,0,.38-.11A.28.28,0,0,0,521.5,1041.65Zm11.31-57a.28.28,0,0,0-.19.35.35.35,0,0,0,.37.22.32.32,0,0,0,.19-.38A.29.29,0,0,0,532.81,984.67ZM530.86,978a.29.29,0,0,0,.16.56.29.29,0,0,0,.19-.37A.28.28,0,0,0,530.86,978Zm-.13,25.08a.31.31,0,0,0-.4.11.3.3,0,0,0,.1.4.31.31,0,0,0,.4-.13A.27.27,0,0,0,530.73,1003.07Zm-6.13-3.35a.28.28,0,0,0-.38.1.29.29,0,0,0,.51.29A.27.27,0,0,0,524.6,999.72Zm-6.11-3.33a.3.3,0,0,0-.4.11.34.34,0,0,0,.13.4.25.25,0,0,0,.37-.14A.26.26,0,0,0,518.49,996.39ZM512.38,993a.29.29,0,0,0-.4.14.27.27,0,0,0,.11.37.29.29,0,0,0,.29-.51Zm-6.13-3.32a.27.27,0,0,0-.37.1.29.29,0,1,0,.51.29A.27.27,0,0,0,506.25,989.71ZM529.63,1011a.3.3,0,0,0-.18.37.28.28,0,0,0,.34.18.3.3,0,0,0,.22-.37A.31.31,0,0,0,529.63,1011Zm-6.66,2a.27.27,0,0,0-.21.34.29.29,0,0,0,.37.19.28.28,0,0,0,.19-.35A.27.27,0,0,0,523,1013Zm-6.69,1.94a.29.29,0,1,0,.15.56.31.31,0,0,0,.19-.37A.28.28,0,0,0,516.28,1014.89Zm-6.69,2a.29.29,0,0,0-.22.35.28.28,0,0,0,.37.18.25.25,0,0,0,.19-.34A.26.26,0,0,0,509.59,1016.86Zm-6.7,1.94a.28.28,0,0,0-.18.37.26.26,0,0,0,.34.19.27.27,0,0,0,.19-.35A.28.28,0,0,0,502.89,1018.8ZM533,991.2a.2.2,0,0,0-.06.26c0,.06.06.08.14.06l0-.35C533,991.17,533,991.17,533,991.2Zm-2.37-3.89a.21.21,0,0,0-.06.27.18.18,0,0,0,.24,0,.19.19,0,0,0,.08-.27A.21.21,0,0,0,530.6,987.31Zm-2.38-3.89a.21.21,0,0,0-.05.27.18.18,0,0,0,.24,0,.18.18,0,0,0,.08-.26A.22.22,0,0,0,528.22,983.42Zm3.25,17.36a.18.18,0,0,0-.21.13.17.17,0,0,0,.13.22.19.19,0,0,0,.24-.13A.18.18,0,0,0,531.47,1000.78Zm-4.42-1.09a.19.19,0,0,0-.22.13.19.19,0,0,0,.14.24.15.15,0,0,0,.21-.13A.18.18,0,0,0,527.05,999.69Zm-4.43-1.07c-.11,0-.21,0-.21.14a.19.19,0,0,0,.13.24.18.18,0,0,0,.21-.16A.18.18,0,0,0,522.62,998.62Zm-4.42-1.06a.18.18,0,0,0-.24.13c0,.11,0,.19.16.21a.16.16,0,0,0,.21-.13A.16.16,0,0,0,518.2,997.56ZM528.67,1010a.19.19,0,0,0-.08.26.22.22,0,0,0,.27.06.2.2,0,0,0,0-.27A.17.17,0,0,0,528.67,1010Zm-3.89,2.37a.18.18,0,0,0-.08.26.22.22,0,0,0,.27.06.21.21,0,0,0,0-.27A.17.17,0,0,0,524.78,1012.39Zm-3.89,2.37a.18.18,0,0,0-.08.26.21.21,0,0,0,.26.06.21.21,0,0,0,.06-.27A.17.17,0,0,0,520.89,1014.76Zm10.21-18.61c-.11-.06-.21-.06-.26.05a.15.15,0,0,0,0,.24.18.18,0,0,0,.27,0A.21.21,0,0,0,531.1,996.15Zm-3.68-2.69a.19.19,0,0,0-.26,0,.18.18,0,0,0,0,.27.21.21,0,0,0,.27,0A.21.21,0,0,0,527.42,993.46Zm-3.7-2.69a.18.18,0,0,0-.24.06.17.17,0,0,0,0,.26.2.2,0,0,0,.27-.05A.2.2,0,0,0,523.72,990.77ZM520,988.11a.15.15,0,0,0-.24,0,.18.18,0,0,0,0,.27.19.19,0,0,0,.27-.06A.15.15,0,0,0,520,988.11Zm8.85,16.48c-.11,0-.16.1-.16.21a.21.21,0,0,0,.21.16c.11,0,.19-.13.16-.21A.16.16,0,0,0,528.89,1004.59Zm-4.51.69a.2.2,0,0,0-.16.21c0,.11.13.19.21.16a.18.18,0,0,0,.17-.21A.17.17,0,0,0,524.38,1005.28Zm-4.5.69a.22.22,0,0,0-.16.21.21.21,0,0,0,.23.17.18.18,0,0,0,.14-.22C520.09,1006,520,1006,519.88,1006Zm-4.51.72a.17.17,0,0,0-.13.22c0,.1.11.16.21.16a.22.22,0,0,0,.14-.22A.18.18,0,0,0,515.37,1006.69Zm15.52,9a.2.2,0,0,0-.27,0,.18.18,0,0,0,.06.26.17.17,0,0,0,.24,0A.18.18,0,0,0,530.89,1015.72Zm-2.69,3.67a.2.2,0,0,0-.27.05.21.21,0,0,0,.05.27.19.19,0,0,0,.27-.06A.22.22,0,0,0,528.2,1019.39Zm-2.7,3.7a.17.17,0,0,0-.26,0,.2.2,0,0,0,0,.27.2.2,0,0,0,.27,0A.18.18,0,0,0,525.5,1023.09Zm2.88-15.25a.34.34,0,1,0-.53.42.38.38,0,0,0,.48.06A.37.37,0,0,0,528.38,1007.84Zm-6.24,5.16a.35.35,0,0,0-.48,0,.31.31,0,0,0,0,.46.34.34,0,0,0,.48.05A.36.36,0,0,0,522.14,1013Zm-6.26,5.19a.29.29,0,0,0-.46-.05.31.31,0,0,0,0,.47.32.32,0,0,0,.48,0A.31.31,0,0,0,515.88,1018.19Zm-6.24,5.17a.33.33,0,0,0-.48-.06.35.35,0,0,0,0,.48.34.34,0,0,0,.46.05A.32.32,0,0,0,509.64,1023.36ZM530,985a.35.35,0,0,0-.48,0,.33.33,0,0,0-.06.46.32.32,0,0,0,.48.05A.34.34,0,0,0,530,985Zm-5.18-6.23a.38.38,0,0,0-.48-.06.37.37,0,0,0,0,.48.35.35,0,0,0,.48.06A.37.37,0,0,0,524.86,978.74Zm-5.2-6.23a.34.34,0,0,0-.45-.06.35.35,0,0,0-.06.48.38.38,0,0,0,.48.06A.33.33,0,0,0,519.66,972.51Zm-5.17-6.23a.34.34,0,0,0-.48-.06.33.33,0,0,0,0,.48.3.3,0,0,0,.45,0A.29.29,0,0,0,514.49,966.28Zm17.84,30.4a.35.35,0,0,0-.37.32.32.32,0,0,0,.29.37.36.36,0,0,0,.37-.32A.38.38,0,0,0,532.33,996.68Zm-8.11-.75a.33.33,0,0,0-.34.32.29.29,0,0,0,.29.35.32.32,0,0,0,.37-.29A.38.38,0,0,0,524.22,995.93Zm-8.08-.74a.32.32,0,0,0-.34.29.32.32,0,0,0,.29.38.33.33,0,0,0,.37-.3A.35.35,0,0,0,516.14,995.19Zm-8.07-.74a.3.3,0,0,0-.35.29.32.32,0,0,0,.29.37.33.33,0,1,0,.06-.66ZM500,993.7a.3.3,0,0,0-.37.29.34.34,0,0,0,.29.38.39.39,0,0,0,.38-.32A.32.32,0,0,0,500,993.7Zm27.49,28.78a.34.34,0,0,0-.45.13.33.33,0,0,0,.13.45.32.32,0,0,0,.46-.13A.32.32,0,0,0,527.5,1022.48Zm-3.78,7.16a.33.33,0,0,0-.46.16.35.35,0,0,0,.13.45.33.33,0,0,0,.46-.16A.32.32,0,0,0,523.72,1029.64Zm-3.79,7.16a.35.35,0,0,0-.45.16.34.34,0,0,0,.13.45.35.35,0,0,0,.32-.61Zm7.41-82a.35.35,0,0,0-.24.42.32.32,0,0,0,.43.22.31.31,0,0,0,.21-.4A.32.32,0,0,0,527.34,954.81ZM530,991.73a.34.34,0,0,0-.32.61.35.35,0,0,0,.45-.16A.34.34,0,0,0,530,991.73ZM522.84,988a.34.34,0,0,0-.46.13.33.33,0,0,0,.13.46.33.33,0,0,0,.46-.14A.34.34,0,0,0,522.84,988Zm-7.2-3.78a.33.33,0,1,0-.3.59.33.33,0,1,0,.3-.59Zm-7.18-3.78a.34.34,0,0,0-.45.13.32.32,0,0,0,.16.45.33.33,0,0,0,.46-.13A.33.33,0,0,0,508.46,980.39Zm-7.17-3.78a.34.34,0,0,0-.45.13.34.34,0,0,0,.16.46.33.33,0,0,0,.45-.14A.35.35,0,0,0,501.29,976.61Zm27.6,24.36a.33.33,0,1,0,.19.64.3.3,0,0,0,.21-.4A.32.32,0,0,0,528.89,1001Zm-7.76,2.39a.32.32,0,0,0-.21.43.33.33,0,0,0,.4.21.34.34,0,0,0,.24-.42A.36.36,0,0,0,521.13,1003.36Zm-7.76,2.4a.35.35,0,0,0-.21.43.34.34,0,0,0,.64-.22A.35.35,0,0,0,513.37,1005.76Zm-7.76,2.39a.36.36,0,0,0-.21.43.34.34,0,0,0,.42.21.32.32,0,0,0,.22-.42A.34.34,0,0,0,505.61,1008.15Zm-7.73,2.4a.32.32,0,0,0-.24.4.34.34,0,0,0,.43.24.33.33,0,0,0-.19-.64Z"/></g></g><g class="cls-20"><path id="half_a_circle-i9" data-name="half a circle-i9" class="cls-5" d="M996.71,524.14a58.48,58.48,0,0,1-69.24,45A57.88,57.88,0,0,1,894.53,549l-1.07-1.29L984.41,474l1,1.28A58.83,58.83,0,0,1,996.71,524.14Zm-98.6,24a54.82,54.82,0,0,0,77.64,5.45,55.42,55.42,0,0,0,8.09-74.88Z"/></g><g class="cls-21"><path id="triangle-i10" class="cls-3" d="M145,571l6.1-97L237,519.77Zm9-91.86-5.4,86.28,81.83-45.58Z"/></g><g class="cls-22"><circle id="circle-i11" class="cls-5" cx="788" cy="201" r="31"/></g></g></g></svg>