<svg width="71" height="88" viewBox="0 0 71 88" fill="none" xmlns="http://www.w3.org/2000/svg">
<path d="M17.5619 30.2157H17.68V22.5546C17.68 20.2246 18.6044 17.99 20.2497 16.3425C21.8951 14.695 24.1267 13.7694 26.4536 13.7694H36.6081C42.7525 13.7694 46.9867 15.0019 49.3105 17.4669C51.6344 19.9318 52.7963 23.5578 52.7963 28.3448V30.1936H55.6544C60.6636 30.0844 65.6598 30.7453 70.4689 32.1532V30.6742C70.5486 25.3466 69.6007 20.0536 67.6773 15.0857C65.7533 10.4028 62.2874 6.51997 57.8551 4.08201C53.1729 1.36067 46.5854 0 38.0925 0H8.78096C6.45212 0 4.21866 0.926359 2.57192 2.57529C0.925179 4.22422 4.96942e-05 6.46065 4.96942e-05 8.79259V79.1777C-0.003838 80.3348 0.220418 81.4813 0.659959 82.5515C1.0995 83.6217 1.74568 84.5945 2.56145 85.4141C3.37722 86.2337 4.34654 86.884 5.41382 87.3277C6.48109 87.7714 7.62535 87.9998 8.78096 87.9998C11.1092 87.9979 13.3415 87.0709 14.9878 85.4224C16.6342 83.7739 17.5599 81.5386 17.5619 79.2072V30.2157Z" fill="#67D59B"/>
<path d="M57.5522 84.0657C61.9985 81.7157 65.5143 77.9214 67.5222 73.306C69.1457 69.4204 70.0996 65.2872 70.3433 61.0822C70.3433 61.0009 70.3433 60.9121 70.3433 60.8234V58.6049C70.3433 53.8425 69.1838 50.219 66.8649 47.7343C64.5459 45.2496 60.3093 44.0171 54.1551 44.0369H52.7962V60.0099C52.7962 64.9005 51.654 68.4969 49.3695 70.7992C47.085 73.1014 42.8287 74.2526 36.6006 74.2526H35.2344V85.0418C35.2343 85.82 35.5405 86.5668 36.0865 87.1205C36.6325 87.6741 37.3745 87.9901 38.1515 87.9998C46.3982 87.9998 52.8651 86.6884 57.5522 84.0657Z" fill="#67D59B"/>
<path d="M67.2047 6.53713C69.0074 6.53713 70.4689 5.07374 70.4689 3.26857C70.4689 1.46339 69.0074 0 67.2047 0C65.4019 0 63.9404 1.46339 63.9404 3.26857C63.9404 5.07374 65.4019 6.53713 67.2047 6.53713Z" fill="#67D59B"/>
</svg>
