<svg width="193" height="169" viewBox="0 0 193 169" fill="none" xmlns="http://www.w3.org/2000/svg">
<path d="M72.4438 142.474H116.119V93.5097H72.4438V142.474Z" fill="#CFF2DF"/>
<path d="M45.3884 144.676H143.174V140.9H45.3884V144.676Z" fill="#CFF2DF"/>
<path d="M0.0258789 125.166H191.91V0.050293H0.0258789V125.166Z" fill="#CFF2DF"/>
<path d="M3.39999 106.16H188.536V3.07123H3.39999V106.16Z" fill="white"/>
<path d="M151.056 131.249C151.013 131.855 151.359 133.068 151.445 133.847C151.488 134.193 151.445 134.973 151.618 135.276C151.921 135.752 153.477 135.622 154.039 135.579C155.034 135.579 155.899 135.319 156.807 134.929C158.233 134.366 157.109 133.934 156.245 133.76C156.634 133.587 158.061 133.371 158.061 132.678C158.061 131.855 156.504 132.202 156.158 132.072C156.763 131.509 157.542 131.076 157.585 130.167C157.628 129.171 156.417 128.955 155.639 128.998C154.645 128.998 153.65 129.344 152.742 129.777C152.007 130.124 151.705 130.773 151.056 131.206C151.056 131.249 150.97 131.249 151.056 131.249Z" fill="#FBE4E1"/>
<path d="M152.785 131.855C151.92 133.847 151.228 142.116 148.115 141.164C148.677 139.129 149.456 137.051 149.931 135.016C150.58 132.505 150.364 130.773 152.18 129.128C156.071 125.621 160.784 128.565 165.54 127.612C165.497 128.998 166.059 130.297 165.799 131.596C163.897 131.682 160.654 130.167 159.27 131.422C156.547 133.847 157.411 132.765 155.595 134.583C154.125 136.055 152.223 138.609 152.525 135.492C152.698 133.804 154.601 132.245 155.206 130.686C153.952 130.6 152.828 132.115 152.785 131.855Z" fill="#FBE4E1"/>
<path d="M156.763 161.036C158.579 162.162 160.741 162.725 162.643 163.894C164.027 164.76 165.367 165.669 166.794 166.405C168.653 167.357 171.074 168.7 173.193 168.916C179.895 169.652 172.674 161.426 171.204 159.478C170.339 158.352 169.518 157.313 168.653 156.274C168.221 155.754 167.961 155.408 167.442 154.975C167.14 154.715 166.318 153.676 166.016 153.633C165.367 153.46 164.113 154.499 163.508 154.845C162.211 155.538 160.87 156.144 159.573 156.88C158.276 157.616 156.849 158.136 155.639 158.915C156.46 160.214 155.466 160.214 156.763 161.036Z" fill="#49A876"/>
<path d="M159.271 142.939C151.143 143.285 145.089 142.809 139.555 143.632C133.804 144.498 122.995 145.147 124.465 154.152C126.411 166.059 150.537 161.123 158.406 161.123C161.303 161.123 166.924 161.469 171.205 161.469C172.545 156.231 172.113 148.654 171.205 143.372C166.967 143.155 158.623 143.155 159.271 142.939Z" fill="#A2E5C2"/>
<path d="M191.785 139.042C191.785 145.667 192.823 154.845 187.894 159.954C182.922 165.106 175.355 162.249 168.956 162.292C162.6 162.292 155.812 162.855 149.629 161.989C142.495 160.993 139.166 150.862 146.516 146.792C149.629 145.06 155.769 144.627 159.314 144.281C163.551 143.848 168.307 144.151 172.415 143.069C172.588 141.164 172.415 140.168 172.112 138.393C177.041 140.255 188.413 138.826 191.785 139.042Z" fill="#85DDAE"/>
<path d="M166.751 103.627C172.804 103.454 176.349 105.575 178.857 107.48C182.489 110.251 186.078 113.065 188.413 116.919C193.515 125.404 193.428 134.799 192.52 143.935C187.289 144.281 159.011 143.588 159.011 143.588L158.925 109.602C158.925 109.602 160.308 106.095 161.692 104.969C162.859 104.017 164.286 103.714 166.751 103.627Z" fill="#E9E9E9"/>
<path d="M153.952 107.48C156.719 108.563 157.844 109.602 160.957 111.507C162.643 112.546 164.243 112.199 165.41 110.381C166.145 109.299 167.356 107.264 167.096 105.878C166.75 104.19 165.194 103.67 163.724 102.848C162.643 102.241 160.351 99.9035 159.27 99.8169C157.541 99.6438 153.65 105.575 153.952 107.48Z" fill="#FBE4E1"/>
<path d="M143.403 97.912C141.544 104.017 147.899 108.649 153.174 108.692C156.633 108.736 158.968 106.355 160.482 102.978C164.805 93.5825 150.84 87.1315 145.003 94.4917C144.311 95.4009 143.705 96.3534 143.446 97.479C143.273 97.6089 143.576 98.2583 143.403 97.912Z" fill="#FBE4E1"/>
<path d="M146.992 90.6384C149.845 88.9499 153.131 88.3005 156.374 89.7725C165.411 93.9289 160.914 103.54 160.914 103.54L143.273 97.8687C143.273 97.8687 142.279 93.4093 146.992 90.6384Z" fill="#3E3E3E"/>
<path d="M151.791 101.506C152.266 100.077 154.255 98.6047 155.768 99.3408C157.628 100.25 157.412 102.501 157.022 104.06C155.596 103.237 153.39 102.155 151.791 101.722C151.964 101.765 151.704 101.419 151.791 101.506Z" fill="#FBE4E1"/>
<path d="M157.152 109.082C160.256 109.082 162.773 106.582 162.773 103.497C162.773 100.413 160.256 97.912 157.152 97.912C154.048 97.912 151.531 100.413 151.531 103.497C151.531 106.582 154.048 109.082 157.152 109.082Z" fill="#CFF2DF"/>
<path d="M162.816 141.51H142.581V144.454H162.816V141.51Z" fill="#85DDAE"/>
<path d="M117.893 123.586H143.057L148.851 144.454H123.686L117.893 123.586Z" fill="#85DDAE"/>
<path d="M132.637 137.657C134.451 137.657 135.923 136.184 135.923 134.366C135.923 132.549 134.451 131.076 132.637 131.076C130.822 131.076 129.351 132.549 129.351 134.366C129.351 136.184 130.822 137.657 132.637 137.657Z" fill="#CFF2DF"/>
<path d="M174.101 140.211C173.409 138.783 172.631 137.397 171.939 135.968C171.593 135.276 171.81 134.929 170.945 134.929C170.556 134.929 169.734 135.579 169.388 135.665C169.475 135.536 168.956 135.622 169.086 135.536C167.313 136.185 165.67 136.704 163.94 137.527C163.119 137.917 162.297 138.22 161.476 138.566C161.216 138.523 160.957 138.436 160.654 138.436C159.703 138.35 159.055 138.609 158.19 138.913C156.59 139.475 154.904 139.519 153.563 140.558C153.001 142.116 156.374 141.813 158.147 141.64C157.584 142.852 157.066 144.065 156.46 145.234C156.158 145.84 155.163 147.182 156.201 147.745C156.979 148.134 157.066 147.485 157.541 147.398C158.492 147.182 158.233 147.225 159.357 147.442C160.654 147.701 161.519 147.182 162.643 147.269C163.205 147.312 163.681 147.875 164.243 147.572C164.502 147.442 164.632 146.273 164.719 146.013C164.978 145.277 165.151 144.454 165.324 143.632C166.102 143.459 166.837 143.285 167.529 143.026C169.821 142.333 171.81 140.818 174.101 140.211Z" fill="#FBE4E1"/>
<path d="M146.343 107.22C145.478 107.22 144.527 106.701 143.792 105.835C143.273 105.229 142.927 104.493 142.841 103.8C142.754 103.064 142.927 102.458 143.403 102.068C143.706 101.809 144.051 101.679 144.484 101.679C145.349 101.679 146.3 102.198 147.035 103.064C147.554 103.67 147.9 104.406 147.986 105.099C148.072 105.835 147.9 106.441 147.424 106.831C147.121 107.091 146.732 107.22 146.343 107.22ZM144.484 102.155C144.138 102.155 143.878 102.242 143.662 102.415C143.316 102.718 143.187 103.194 143.273 103.757C143.36 104.363 143.662 105.012 144.138 105.575C144.786 106.311 145.651 106.788 146.343 106.788C146.689 106.788 146.948 106.701 147.164 106.528C147.51 106.225 147.64 105.748 147.554 105.186C147.467 104.579 147.164 103.93 146.689 103.367C146.04 102.588 145.219 102.155 144.484 102.155Z" fill="#23286B"/>
<path d="M170.556 115.1C169.994 112.026 170.123 107.091 174.447 106.917C177.993 106.787 181.408 112.156 183.138 114.667C187.375 120.772 190.272 126.876 191.829 134.02C186.337 139.432 177.863 143.805 171.075 147.009C168.999 143.762 166.535 140.298 165.367 136.618C170.815 133.63 174.447 132.332 179.16 129.647C177.128 128.132 171.464 119.906 170.556 115.1Z" fill="#E9E9E9"/>
<path d="M162.081 103.757H162.038C161.908 103.714 161.865 103.627 161.865 103.497C162.773 99.9036 162.427 96.3534 160.827 93.7557C159.703 91.894 158.017 90.6384 155.942 90.1189C155.812 90.0756 155.769 89.989 155.769 89.8591C155.812 89.7292 155.898 89.6859 156.028 89.6859C158.233 90.2055 160.006 91.5476 161.216 93.4959C162.859 96.1802 163.205 99.8603 162.297 103.584C162.254 103.67 162.168 103.757 162.081 103.757Z" fill="#3E3E3E"/>
<path d="M159.617 101.722L158.406 101.289C158.622 100.683 158.838 100.077 159.054 99.5572C159.703 97.8254 160.265 96.3534 160.438 94.4917C160.741 91.2878 159.227 89.0365 156.417 88.084C151.834 86.5253 147.899 90.2054 147.899 90.2054C147.034 90.6384 146.083 91.2445 145.262 92.0238C146.559 87.8675 152.05 85.443 156.806 86.8717C160.222 87.8675 162.124 90.8549 161.735 94.6648C161.519 96.6997 160.957 98.2583 160.265 100.077C160.049 100.51 159.833 101.073 159.617 101.722Z" fill="#CFF2DF"/>
<path d="M157.152 107.22C159.206 107.22 160.87 105.553 160.87 103.497C160.87 101.441 159.206 99.7737 157.152 99.7737C155.098 99.7737 153.434 101.441 153.434 103.497C153.434 105.553 155.098 107.22 157.152 107.22Z" fill="#A2E5C2"/>
<path d="M179.462 112.026C179.462 112.069 179.506 112.069 179.549 112.069C179.592 112.069 179.592 112.026 179.592 111.983C179.592 111.94 179.549 111.94 179.506 111.94C179.462 111.94 179.462 111.983 179.462 112.026ZM184.132 117.048C184.132 117.092 184.132 117.135 184.175 117.135C184.218 117.135 184.262 117.135 184.262 117.092C184.262 117.048 184.262 117.005 184.218 117.005C184.218 116.962 184.175 117.005 184.132 117.048ZM181.927 114.321C181.884 114.364 181.884 114.407 181.927 114.407C181.97 114.451 182.013 114.451 182.013 114.407C182.057 114.364 182.057 114.321 182.013 114.321C182.013 114.321 181.97 114.321 181.927 114.321ZM173.755 117.914C173.712 117.958 173.712 118.044 173.755 118.088C173.798 118.131 173.885 118.174 173.928 118.131C173.971 118.088 173.971 118.001 173.928 117.958C173.885 117.871 173.798 117.871 173.755 117.914ZM176.176 115.966C176.133 116.009 176.133 116.096 176.176 116.139C176.22 116.183 176.306 116.183 176.349 116.139C176.393 116.096 176.393 116.009 176.349 115.966C176.306 115.923 176.22 115.923 176.176 115.966ZM178.554 113.974C178.511 114.018 178.511 114.104 178.554 114.148C178.598 114.191 178.684 114.234 178.727 114.191C178.771 114.148 178.771 114.061 178.727 114.018C178.727 113.931 178.641 113.931 178.554 113.974ZM171.939 111.507C171.982 111.593 172.026 111.593 172.112 111.593C172.198 111.593 172.198 111.507 172.198 111.42C172.155 111.333 172.112 111.333 172.026 111.333C171.939 111.377 171.939 111.463 171.939 111.507ZM174.922 110.641C174.966 110.727 175.009 110.727 175.095 110.727C175.182 110.727 175.182 110.641 175.182 110.554C175.139 110.468 175.095 110.468 175.009 110.468C174.922 110.468 174.879 110.554 174.922 110.641ZM179.333 120.729C179.289 120.772 179.333 120.858 179.376 120.902C179.419 120.945 179.506 120.902 179.549 120.858C179.592 120.815 179.549 120.729 179.506 120.685C179.462 120.642 179.376 120.642 179.333 120.729ZM180.846 118.001C180.803 118.044 180.846 118.131 180.889 118.174C180.932 118.217 181.019 118.174 181.062 118.131C181.105 118.088 181.062 118.001 181.019 117.958C180.932 117.914 180.846 117.914 180.846 118.001ZM182.316 115.273C182.273 115.317 182.316 115.403 182.359 115.447C182.403 115.49 182.489 115.447 182.532 115.403C182.575 115.36 182.532 115.273 182.489 115.23C182.403 115.187 182.359 115.187 182.316 115.273ZM171.161 108.563C171.161 108.606 171.247 108.649 171.29 108.649C171.334 108.649 171.377 108.563 171.377 108.519C171.377 108.476 171.29 108.433 171.247 108.433C171.204 108.433 171.161 108.519 171.161 108.563ZM177.603 118.217C177.56 118.261 177.603 118.347 177.646 118.391C177.69 118.434 177.776 118.434 177.819 118.347C177.863 118.304 177.863 118.217 177.776 118.174C177.733 118.131 177.646 118.174 177.603 118.217ZM179.16 115.923C179.116 115.966 179.16 116.053 179.203 116.096C179.246 116.139 179.333 116.139 179.376 116.053C179.419 116.009 179.419 115.923 179.333 115.879C179.246 115.836 179.203 115.879 179.16 115.923ZM180.716 113.628C180.673 113.671 180.673 113.715 180.759 113.758C180.803 113.801 180.889 113.801 180.889 113.715C180.932 113.671 180.932 113.585 180.846 113.542C180.803 113.542 180.759 113.542 180.716 113.628ZM174.49 112.979C174.447 113.022 174.447 113.065 174.447 113.152C174.49 113.195 174.533 113.238 174.62 113.195C174.663 113.152 174.706 113.109 174.663 113.022C174.62 112.979 174.533 112.979 174.49 112.979ZM176.782 111.463C176.738 111.507 176.695 111.55 176.738 111.593C176.782 111.637 176.825 111.68 176.911 111.637C176.955 111.593 176.998 111.55 176.955 111.463C176.911 111.463 176.868 111.42 176.782 111.463ZM183.181 119.083C183.181 119.127 183.224 119.213 183.267 119.213C183.31 119.213 183.397 119.17 183.397 119.127C183.397 119.083 183.354 118.997 183.31 118.997C183.267 118.953 183.181 118.997 183.181 119.083ZM183.743 116.356C183.743 116.399 183.786 116.486 183.829 116.486C183.873 116.486 183.959 116.442 183.959 116.399C183.959 116.356 183.916 116.269 183.873 116.269C183.786 116.269 183.743 116.269 183.743 116.356ZM168.956 110.554C168.912 110.597 168.869 110.684 168.912 110.727C168.956 110.771 169.042 110.814 169.085 110.771C169.129 110.727 169.172 110.641 169.129 110.597C169.129 110.511 169.042 110.511 168.956 110.554ZM171.636 108.736C171.593 108.779 171.55 108.866 171.593 108.909C171.636 108.952 171.723 108.996 171.766 108.952C171.809 108.909 171.853 108.822 171.809 108.779C171.766 108.736 171.68 108.692 171.636 108.736ZM180.154 118.044C180.154 118.131 180.197 118.174 180.241 118.217C180.327 118.217 180.37 118.174 180.414 118.088C180.414 118.001 180.37 117.958 180.327 117.958C180.241 117.914 180.154 117.958 180.154 118.044ZM180.759 114.884C180.759 114.97 180.803 115.014 180.846 115.057C180.932 115.057 180.976 115.014 181.019 114.97C181.062 114.927 180.976 114.84 180.932 114.797C180.846 114.797 180.759 114.84 180.759 114.884ZM174.447 114.018C174.404 114.061 174.447 114.148 174.49 114.191C174.533 114.234 174.62 114.191 174.663 114.148C174.706 114.104 174.706 114.018 174.62 113.974C174.577 113.931 174.49 113.974 174.447 114.018ZM176.22 111.333C176.176 111.377 176.176 111.463 176.263 111.507C176.306 111.55 176.393 111.55 176.436 111.463C176.479 111.42 176.479 111.333 176.393 111.29C176.349 111.29 176.263 111.29 176.22 111.333ZM172.371 113.325C172.328 113.368 172.328 113.455 172.415 113.498C172.458 113.542 172.544 113.542 172.588 113.455C172.631 113.412 172.631 113.325 172.544 113.282C172.501 113.238 172.415 113.238 172.371 113.325ZM174.231 110.727C174.187 110.771 174.187 110.857 174.274 110.901C174.317 110.944 174.404 110.944 174.447 110.857C174.49 110.814 174.49 110.727 174.404 110.684C174.36 110.641 174.274 110.641 174.231 110.727ZM178.944 114.537C178.944 114.624 178.987 114.667 179.03 114.71C179.116 114.71 179.16 114.667 179.203 114.624C179.203 114.537 179.203 114.494 179.116 114.451C179.03 114.407 178.944 114.451 178.944 114.537Z" fill="white"/>
<path d="M99.0007 98.0707C121.242 98.0707 139.272 79.807 139.272 57.2776C139.272 34.7482 121.242 16.4845 99.0007 16.4845C76.7595 16.4845 58.7295 34.7482 58.7295 57.2776C58.7295 79.807 76.7595 98.0707 99.0007 98.0707Z" fill="#CFF2DF"/>
<path d="M128.649 36.1468H45.3154V41.885H128.649V36.1468Z" fill="#85DDAE"/>
<path d="M148.025 78.354H75.5049V80.5024H148.025V78.354Z" fill="#85DDAE"/>
<path d="M104.313 48.0312H63.6621V53.7694H104.313V48.0312Z" fill="#85DDAE"/>
<path d="M138.649 28.4233H83.8252V30.1094H138.649V28.4233Z" fill="#A2E5C2"/>
<path d="M108.378 61.2481H39.624V62.9342H108.378V61.2481Z" fill="#A2E5C2"/>
<path d="M127.376 66.9048H91.6572V68.5909H127.376V66.9048Z" fill="#A2E5C2"/>
</svg>
